SplineFontDB: 3.2
FontName: TinyAPL386
FullName: TinyAPL386 Unicode
FamilyName: TinyAPL386 Unicode
Weight: Book
Copyright: Copyright 2024 Madeline Vergani. Licensed under the MIT license.
Version: April-20 2013
ItalicAngle: 0
UnderlinePosition: -245
UnderlineWidth: 85
Ascent: 800
Descent: 200
InvalidEm: 0
sfntRevision: 0x0002002a
LayerCount: 2
Layer: 0 1 "Back" 1
Layer: 1 1 "Fore" 0
XUID: [1021 918 1724401063 31311]
StyleMap: 0x0040
FSType: 0
OS2Version: 1
OS2_WeightWidthSlopeOnly: 0
OS2_UseTypoMetrics: 0
CreationTime: 1366486900
ModificationTime: 1725900301
PfmFamily: 17
TTFWeight: 400
TTFWidth: 5
LineGap: 0
VLineGap: 0
Panose: 2 11 7 9 0 2 2 0 2 3
OS2TypoAscent: 910
OS2TypoAOffset: 0
OS2TypoDescent: -235
OS2TypoDOffset: 0
OS2TypoLinegap: 0
OS2WinAscent: 910
OS2WinAOffset: 0
OS2WinDescent: 231
OS2WinDOffset: 0
HheadAscent: 910
HheadAOffset: 0
HheadDescent: -231
HheadDOffset: 0
OS2SubXSize: 700
OS2SubYSize: 650
OS2SubXOff: 0
OS2SubYOff: 143
OS2SupXSize: 700
OS2SupYSize: 650
OS2SupXOff: 0
OS2SupYOff: 453
OS2StrikeYSize: 50
OS2StrikeYPos: 259
OS2FamilyClass: 2057
OS2Vendor: 'acds'
OS2CodePages: 00000001.00000000
OS2UnicodeRanges: 800002c7.00005ce1.00000000.00000000
MarkAttachClasses: 1
DEI: 91125
TtTable: prep
PUSHW_1
 511
SCANCTRL
PUSHB_1
 1
SCANTYPE
SVTCA[y-axis]
MPPEM
PUSHB_1
 8
LT
IF
PUSHB_2
 1
 1
INSTCTRL
EIF
PUSHB_2
 70
 6
CALL
IF
POP
PUSHB_1
 16
EIF
MPPEM
PUSHB_1
 20
GT
IF
POP
PUSHB_1
 128
EIF
SCVTCI
PUSHB_1
 6
CALL
NOT
IF
SVTCA[y-axis]
PUSHB_1
 4
DUP
RCVT
PUSHB_1
 3
CALL
WCVTP
PUSHB_1
 6
DUP
RCVT
PUSHB_3
 4
 75
 2
CALL
PUSHB_1
 3
CALL
WCVTP
PUSHB_1
 5
DUP
RCVT
PUSHB_3
 6
 52
 2
CALL
PUSHB_1
 3
CALL
WCVTP
PUSHB_1
 7
DUP
RCVT
PUSHB_3
 4
 132
 2
CALL
PUSHB_1
 3
CALL
WCVTP
PUSHB_1
 8
DUP
RCVT
PUSHB_3
 7
 12
 2
CALL
PUSHB_1
 3
CALL
WCVTP
SVTCA[x-axis]
PUSHB_1
 9
DUP
RCVT
PUSHB_1
 3
CALL
WCVTP
PUSHB_1
 10
DUP
RCVT
PUSHB_3
 9
 98
 2
CALL
PUSHB_2
 3
 70
SROUND
CALL
WCVTP
PUSHB_1
 11
DUP
RCVT
PUSHB_3
 9
 109
 2
CALL
PUSHB_2
 3
 70
SROUND
CALL
WCVTP
PUSHB_1
 12
DUP

StartChar: .notdef
Encoding: 1114112 -1 0
Width: 600
GlyphClass: 1
Flags: W
LayerCount: 2
Fore
SplineSet
127 483 m 1,0,-1
 466 483 l 1,1,-1
 466 170 l 1,2,-1
 127 170 l 1,3,-1
 127 483 l 1,0,-1
EndSplineSet
Validated: 1
EndChar

StartChar: exclam
Encoding: 33 33 4
Width: 600
GlyphClass: 2
Flags: W
LayerCount: 2
Fore
SplineSet
341 250 m 2,0,1
 341 232 341 232 327.5 221 c 128,-1,2
 314 210 314 210 298 210 c 0,3,4
 281 210 281 210 268 222 c 128,-1,5
 255 234 255 234 255 252 c 2,6,-1
 255 725 l 2,7,8
 255 744 255 744 267 756 c 128,-1,9
 279 768 279 768 298 768 c 0,10,11
 316 768 316 768 328.5 756.5 c 128,-1,12
 341 745 341 745 341 727 c 2,13,-1
 341 250 l 2,0,1
385 48 m 0,14,15
 385 10 385 10 361 -14 c 128,-1,16
 337 -38 337 -38 299 -38 c 0,17,18
 263 -38 263 -38 238.5 -13 c 128,-1,19
 214 12 214 12 214 48 c 0,20,21
 214 66 214 66 221 81.5 c 128,-1,22
 228 97 228 97 239.5 109 c 128,-1,23
 251 121 251 121 266.5 128 c 128,-1,24
 282 135 282 135 299 135 c 0,25,26
 317 135 317 135 332.5 128 c 128,-1,27
 348 121 348 121 359.5 109.5 c 128,-1,28
 371 98 371 98 378 82 c 128,-1,29
 385 66 385 66 385 48 c 0,14,15
EndSplineSet
Validated: 1
EndChar

StartChar: quotedbl
Encoding: 34 34 5
Width: 600
GlyphClass: 2
Flags: W
LayerCount: 2
Fore
SplineSet
423 655 m 0,0,1
 423 640 423 640 423 629 c 128,-1,2
 423 618 423 618 423 612 c 2,3,-1
 423 437 l 2,4,5
 421 400 421 400 383 401 c 0,6,7
 340 400 340 400 342 438 c 2,8,-1
 342 620 l 2,9,10
 342 689 342 689 386 692 c 0,11,12
 406 691 406 691 414.5 680 c 128,-1,13
 423 669 423 669 423 655 c 0,0,1
254 438 m 0,14,15
 254 422 254 422 247.5 411 c 128,-1,16
 241 400 241 400 218 401 c 0,17,18
 176 403 176 403 176 436 c 2,19,-1
 176 655 l 2,20,21
 176 672 176 672 189.5 682.5 c 128,-1,22
 203 693 203 693 216 693 c 0,23,24
 232 693 232 693 244.5 680.5 c 128,-1,25
 257 668 257 668 254 655 c 0,26,27
 254 625 254 625 254 611 c 0,28,29
 254 593 254 593 254 582.5 c 128,-1,30
 254 572 254 572 254 563 c 128,-1,31
 254 554 254 554 254 438 c 0,14,15
EndSplineSet
Validated: 33
EndChar

StartChar: numbersign
Encoding: 35 35 6
Width: 600
GlyphClass: 2
Flags: W
LayerCount: 2
Fore
SplineSet
567 471 m 0,0,1
 567 429 567 429 496 429 c 0,2,3
 488 429 488 429 474.5 429.5 c 128,-1,4
 461 430 461 430 456 430 c 1,5,-1
 420 250 l 1,6,7
 427 250 427 250 443 251 c 128,-1,8
 459 252 459 252 466 252 c 0,9,10
 530 252 530 252 530 210 c 0,11,12
 530 171 530 171 500 171 c 2,13,-1
 403 171 l 1,14,-1
 373 30 l 2,15,16
 363 -19 363 -19 328 -19 c 0,17,18
 294 -19 294 -19 294 21 c 0,19,20
 294 44 294 44 308 95 c 0,21,22
 315 120 315 120 318.5 139 c 128,-1,23
 322 158 322 158 321 171 c 1,24,-1
 199 171 l 1,25,26
 190 84 190 84 165 21 c 0,27,28
 155 -10 155 -10 117 -10 c 0,29,30
 90 -10 90 -10 90 22 c 0,31,32
 90 50 90 50 101 97 c 0,33,34
 109 131 109 131 113.5 149.5 c 128,-1,35
 118 168 118 168 119 171 c 1,36,37
 112 171 112 171 97.5 170 c 128,-1,38
 83 169 83 169 75 169 c 0,39,40
 33 169 33 169 33 209 c 0,41,42
 33 252 33 252 91 252 c 0,43,44
 100 252 100 252 116.5 251 c 128,-1,45
 133 250 133 250 138 250 c 1,46,-1
 180 431 l 1,47,48
 173 431 173 431 156.5 430 c 128,-1,49
 140 429 140 429 132 429 c 0,50,51
 81 429 81 429 81 472 c 0,52,53
 81 508 81 508 155 508 c 0,54,55
 165 508 165 508 180 507.5 c 128,-1,56
 195 507 195 507 197 507 c 0,57,58
 202 533 202 533 206 560 c 128,-1,59
 210 587 210 587 215 614 c 0,60,61
 233 686 233 686 272 686 c 0,62,63
 305 686 305 686 305 645 c 0,64,65
 305 615 305 615 296 575 c 0,66,67
 291 558 291 558 287 540.5 c 128,-1,68
 283 523 283 523 279 506 c 1,69,-1
 395 506 l 1,70,71
 400 532 400 532 406 558.5 c 128,-1,72
 412 585 412 585 418 611 c 0,73,74
 439 686 439 686 475 686 c 0,75,76
 503 686 503 686 503 649 c 0,77,78
 503 620 503 620 474 506 c 1,79,80
 481 506 481 506 494.5 506.5 c 128,-1,81
 508 507 508 507 515 507 c 0,82,83
 567 507 567 507 567 471 c 0,0,1
376 430 m 1,84,-1
 260 430 l 1,85,-1
 219 249 l 1,86,-1
 341 249 l 1,87,-1
 376 430 l 1,84,-1
EndSplineSet
Validated: 33
EndChar

StartChar: dollar
Encoding: 36 36 7
Width: 600
GlyphClass: 2
Flags: W
LayerCount: 2
Fore
SplineSet
534 222 m 0,0,1
 534 138 534 138 479 80 c 0,2,3
 426 24 426 24 343 11 c 1,4,-1
 343 -85 l 2,5,6
 343 -110 343 -110 302 -110 c 0,7,8
 289 -110 289 -110 276 -104 c 0,9,10
 261 -97 261 -97 261 -85 c 2,11,-1
 261 11 l 1,12,13
 190 11 190 11 138 35 c 0,14,15
 65 66 65 66 65 131 c 0,16,17
 65 169 65 169 99 169 c 0,18,19
 117 169 117 169 133 150 c 0,20,21
 160 121 160 121 169 115 c 0,22,23
 198 97 198 97 240 98 c 2,24,-1
 261 98 l 1,25,-1
 259 319 l 1,26,27
 180 340 180 340 145 365 c 0,28,29
 88 402 88 402 88 466 c 0,30,31
 88 533 88 533 142 586 c 0,32,33
 190 632 190 632 261 649 c 1,34,-1
 261 727 l 2,35,36
 261 743 261 743 302 743 c 0,37,38
 346 743 346 743 346 706 c 0,39,40
 346 696 346 696 344.5 677 c 128,-1,41
 343 658 343 658 343 649 c 1,42,43
 501 638 501 638 501 594 c 0,44,45
 501 558 501 558 463 558 c 0,46,47
 443 558 443 558 403 564 c 0,48,49
 362 570 362 570 343 570 c 1,50,-1
 344 392 l 1,51,52
 534 362 534 362 534 222 c 0,0,1
261 411 m 1,53,54
 261 411 261 411 261 565 c 1,55,56
 175 532 175 532 175 470 c 0,57,58
 175 446 175 446 208 428 c 0,59,60
 234 412 234 412 261 411 c 1,53,54
451 218 m 0,61,62
 451 260 451 260 416 280 c 0,63,64
 394 293 394 293 343 301 c 1,65,66
 343 301 343 301 343 98 c 1,67,68
 384 111 384 111 416 143 c 0,69,70
 451 178 451 178 451 218 c 0,61,62
EndSplineSet
Validated: 33
EndChar

StartChar: percent
Encoding: 37 37 8
Width: 600
GlyphClass: 2
Flags: W
LayerCount: 2
Fore
SplineSet
319 596 m 0,0,1
 319 540 319 540 280 506 c 0,2,3
 242 471 242 471 186 471 c 0,4,5
 132 471 132 471 93 507 c 0,6,7
 55 543 55 543 55 597 c 0,8,9
 55 649 55 649 95 686 c 0,10,11
 135 725 135 725 186 725 c 0,12,13
 242 725 242 725 280 688 c 0,14,15
 319 650 319 650 319 596 c 0,0,1
490 681 m 0,16,17
 490 671 490 671 341 359 c 0,18,19
 267 204 267 204 224 115.5 c 128,-1,20
 181 27 181 27 167 3 c 0,21,22
 156 -15 156 -15 145 -15 c 0,23,24
 136 -15 136 -15 127 -11 c 128,-1,25
 118 -7 118 -7 110.5 -0.5 c 128,-1,26
 103 6 103 6 98 14 c 128,-1,27
 93 22 93 22 93 31 c 0,28,29
 93 41 93 41 244 355 c 0,30,31
 322 516 322 516 365 603 c 128,-1,32
 408 690 408 690 418 704 c 0,33,34
 428 720 428 720 445 720 c 256,35,36
 462 720 462 720 476 709 c 128,-1,37
 490 698 490 698 490 681 c 0,16,17
544 117 m 0,38,39
 544 62 544 62 506 26 c 0,40,41
 468 -9 468 -9 413 -9 c 0,42,43
 361 -9 361 -9 322 27 c 0,44,45
 283 64 283 64 283 117 c 0,46,47
 283 167 283 167 323 204 c 0,48,49
 363 243 363 243 413 243 c 0,50,51
 464 243 464 243 504 205 c 0,52,53
 544 168 544 168 544 117 c 0,38,39
249 595 m 0,54,55
 249 620 249 620 231 637 c 128,-1,56
 213 654 213 654 188 654 c 0,57,58
 165 654 165 654 146.5 636 c 128,-1,59
 128 618 128 618 128 595 c 0,60,61
 128 571 128 571 146 553 c 128,-1,62
 164 535 164 535 188 535 c 0,63,64
 214 535 214 535 231.5 552 c 128,-1,65
 249 569 249 569 249 595 c 0,54,55
477 114 m 0,66,67
 477 138 477 138 458.5 156 c 128,-1,68
 440 174 440 174 415 174 c 0,69,70
 392 174 392 174 374 155.5 c 128,-1,71
 356 137 356 137 356 114 c 0,72,73
 356 89 356 89 373.5 72 c 128,-1,74
 391 55 391 55 415 55 c 0,75,76
 442 55 442 55 459.5 71 c 128,-1,77
 477 87 477 87 477 114 c 0,66,67
EndSplineSet
Validated: 1
EndChar

StartChar: ampersand
Encoding: 38 38 9
Width: 600
GlyphClass: 2
Flags: W
LayerCount: 2
Fore
SplineSet
543 167 m 0,0,1
 543 133 543 133 478 86 c 1,2,3
 518 37 518 37 518 17 c 0,4,5
 518 1 518 1 503 -11 c 128,-1,6
 488 -23 488 -23 473 -23 c 0,7,8
 455 -23 455 -23 437 -3 c 0,9,10
 436 -2 436 -2 429.5 6.5 c 128,-1,11
 423 15 423 15 412 32 c 1,12,13
 354 -11 354 -11 263 -11 c 0,14,15
 180 -11 180 -11 122 26 c 0,16,17
 56 71 56 71 56 150 c 0,18,19
 56 240 56 240 198 361 c 1,20,21
 182 381 182 381 170.5 401.5 c 128,-1,22
 159 422 159 422 143 443 c 0,23,24
 110 492 110 492 110 540 c 0,25,26
 110 608 110 608 165 647 c 0,27,28
 213 683 213 683 285 683 c 0,29,30
 353 683 353 683 404 653 c 0,31,32
 464 618 464 618 464 554 c 0,33,34
 464 455 464 455 319 357 c 1,35,-1
 438 166 l 1,36,37
 449 170 449 170 469.5 189 c 128,-1,38
 490 208 490 208 501 208 c 0,39,40
 517 208 517 208 530 195.5 c 128,-1,41
 543 183 543 183 543 167 c 0,0,1
372 543 m 0,42,43
 372 571 372 571 344.5 588 c 128,-1,44
 317 605 317 605 287 605 c 0,45,46
 264 605 264 605 234.5 581 c 128,-1,47
 205 557 205 557 205 533 c 0,48,49
 205 503 205 503 229 475 c 0,50,51
 240 464 240 464 247.5 450 c 128,-1,52
 255 436 255 436 266 424 c 1,53,54
 304 448 304 448 333 479 c 0,55,56
 372 519 372 519 372 543 c 0,42,43
359 111 m 1,57,58
 359 111 359 111 250 288 c 1,59,60
 212 263 212 263 180.5 223 c 128,-1,61
 149 183 149 183 151 146 c 0,62,63
 149 109 149 109 179 90 c 128,-1,64
 209 71 209 71 249 71 c 0,65,66
 322 71 322 71 359 111 c 1,57,58
EndSplineSet
Validated: 33
EndChar

StartChar: quotesingle
Encoding: 39 39 10
Width: 600
GlyphClass: 2
Flags: W
LayerCount: 2
Fore
SplineSet
343 499 m 2,0,1
 343 483 343 483 329.5 473.5 c 128,-1,2
 316 464 316 464 300 464 c 0,3,4
 283 464 283 464 270 475 c 128,-1,5
 257 486 257 486 257 503 c 2,6,7
 257 503 257 503 257 709 c 0,8,9
 257 739 257 739 300 739 c 256,10,11
 343 739 343 739 343 714 c 2,12,-1
 343 499 l 2,0,1
EndSplineSet
Validated: 1
EndChar

StartChar: parenleft
Encoding: 40 40 11
Width: 600
GlyphClass: 2
Flags: W
LayerCount: 2
Fore
SplineSet
357 734 m 0,0,1
 366 742 366 742 377 737 c 0,2,3
 398 728 398 728 402 700 c 0,4,5
 403 687 403 687 396 678 c 0,6,7
 261 524 261 524 263 304 c 0,8,9
 265 86 265 86 398 -40 c 0,10,11
 412 -51 412 -51 410 -66 c 0,12,13
 409 -79 409 -79 399.5 -89 c 128,-1,14
 390 -99 390 -99 377 -101 c 0,15,16
 363 -103 363 -103 350 -92 c 0,17,18
 271 -30 271 -30 229 82 c 0,19,20
 209 135 209 135 199 194 c 0,21,22
 187 261 187 261 188 315 c 0,23,24
 188 371 188 371 200 437 c 0,25,26
 223 560 223 560 285 653 c 0,27,28
 316 701 316 701 357 734 c 0,0,1
EndSplineSet
Validated: 33
EndChar

StartChar: parenright
Encoding: 41 41 12
Width: 600
GlyphClass: 2
Flags: W
LayerCount: 2
Fore
SplineSet
241 734 m 0,0,1
 286 696 286 696 316 653 c 0,2,3
 379 561 379 561 401 437 c 0,4,5
 406 408 406 408 408.5 377.5 c 128,-1,6
 411 347 411 347 412 315 c 0,7,8
 412 280 412 280 410 249.5 c 128,-1,9
 408 219 408 219 404 194 c 0,10,11
 383 73 383 73 321 -16 c 0,12,13
 292 -58 292 -58 247 -92 c 0,14,15
 234 -102 234 -102 222 -101 c 0,16,17
 210 -99 210 -99 200.5 -89 c 128,-1,18
 191 -79 191 -79 191 -66 c 0,19,20
 188 -50 188 -50 200 -40 c 0,21,22
 268 23 268 23 303 112 c 0,23,24
 320 157 320 157 328.5 205 c 128,-1,25
 337 253 337 253 338 304 c 0,26,27
 339 524 339 524 202 678 c 0,28,29
 197 686 197 686 197 692 c 0,30,31
 197 697 197 697 198 700 c 0,32,33
 201 727 201 727 223 737 c 0,34,35
 233 741 233 741 241 734 c 0,0,1
EndSplineSet
Validated: 33
EndChar

StartChar: asterisk
Encoding: 42 42 13
Width: 600
GlyphClass: 2
Flags: W
LayerCount: 2
Fore
SplineSet
490 382 m 0,0,1
 490 367 490 367 438 337 c 0,2,3
 421 329 421 329 404.5 320 c 128,-1,4
 388 311 388 311 371 302 c 1,5,6
 376 294 376 294 423 250 c 0,7,8
 464 211 464 211 464 198 c 2,9,-1
 463 188 l 1,10,11
 443 150 443 150 421 150 c 0,12,13
 410 150 410 150 359 198 c 0,14,15
 340 216 340 216 324.5 231 c 128,-1,16
 309 246 309 246 298 259 c 1,17,18
 284 243 284 243 271 227.5 c 128,-1,19
 258 212 258 212 244 195 c 0,20,21
 203 147 203 147 186 147 c 256,22,23
 169 147 169 147 156 163.5 c 128,-1,24
 143 180 143 180 143 197 c 0,25,26
 143 208 143 208 181 249 c 0,27,28
 224 293 224 293 228 303 c 1,29,30
 211 310 211 310 193 319.5 c 128,-1,31
 175 329 175 329 158 340 c 0,32,33
 109 371 109 371 109 394 c 0,34,35
 109 405 109 405 117 423 c 0,36,37
 126 441 126 441 138 441 c 0,38,39
 148 441 148 441 192 414 c 0,40,41
 241 382 241 382 253 378 c 1,42,-1
 253 480 l 2,43,44
 253 527 253 527 294 527 c 0,45,46
 339 527 339 527 339 458 c 0,47,48
 339 449 339 449 338.5 433 c 128,-1,49
 338 417 338 417 338 412 c 256,50,51
 338 407 338 407 338 397 c 0,52,53
 338 388 338 388 339 373 c 1,54,55
 353 376 353 376 400 405 c 0,56,57
 443 432 443 432 454 432 c 0,58,59
 470 432 470 432 481 415 c 0,60,61
 490 400 490 400 490 382 c 0,0,1
EndSplineSet
Validated: 1
EndChar

StartChar: plus
Encoding: 43 43 14
Width: 600
GlyphClass: 2
Flags: W
LayerCount: 2
Fore
SplineSet
303 531 m 0,0,1
 341 531 341 531 341 490 c 2,2,-1
 341 354 l 1,3,-1
 463 354 l 2,4,5
 477 354 477 354 490 341 c 0,6,7
 502 329 502 329 502 313 c 0,8,9
 502 275 502 275 461 275 c 2,10,-1
 341 275 l 1,11,-1
 341 141 l 2,12,13
 341 98 341 98 302 98 c 0,14,15
 289 98 289 98 276 105 c 0,16,17
 262 113 262 113 262 129 c 2,18,-1
 262 275 l 1,19,-1
 143 275 l 2,20,21
 100 275 100 275 100 314 c 0,22,23
 100 327 100 327 107 340 c 0,24,25
 115 354 115 354 131 354 c 2,26,-1
 262 354 l 1,27,-1
 262 492 l 2,28,29
 262 506 262 506 275 519 c 0,30,31
 287 531 287 531 303 531 c 0,0,1
EndSplineSet
Validated: 1
EndChar

StartChar: comma
Encoding: 44 44 15
Width: 600
GlyphClass: 2
Flags: W
LayerCount: 2
Fore
SplineSet
388 36 m 0,0,1
 388 16 388 16 380 -14 c 0,2,3
 360 -82 360 -82 328 -104 c 0,4,5
 299 -124 299 -124 226 -128 c 1,6,7
 212 -119 212 -119 212 -101 c 0,8,9
 212 -85 212 -85 224 -71 c 1,10,11
 230 -72 230 -72 236 -72 c 256,12,13
 242 -72 242 -72 249 -72 c 0,14,15
 275 -72 275 -72 296 -53 c 128,-1,16
 317 -34 317 -34 321 -8 c 1,17,18
 295 0 295 0 278 6.5 c 128,-1,19
 261 13 261 13 254 17 c 0,20,21
 222 38 222 38 222 76 c 0,22,23
 222 134 222 134 309 134 c 0,24,25
 347 134 347 134 369 103 c 0,26,27
 388 75 388 75 388 36 c 0,0,1
EndSplineSet
Validated: 1
EndChar

StartChar: hyphen
Encoding: 45 45 16
Width: 600
GlyphClass: 2
Flags: W
LayerCount: 2
Fore
SplineSet
502 313 m 0,0,1
 502 275 502 275 461 275 c 2,2,-1
 143 275 l 2,3,4
 100 275 100 275 100 314 c 0,5,6
 100 327 100 327 107 340 c 0,7,8
 115 354 115 354 131 354 c 2,9,-1
 463 354 l 2,10,11
 477 354 477 354 490 341 c 0,12,13
 502 329 502 329 502 313 c 0,0,1
EndSplineSet
Validated: 1
EndChar

StartChar: period
Encoding: 46 46 17
Width: 600
GlyphClass: 2
Flags: W
LayerCount: 2
Fore
SplineSet
385 68 m 0,0,1
 385 29 385 29 361 5.5 c 128,-1,2
 337 -18 337 -18 299 -18 c 0,3,4
 263 -18 263 -18 238.5 6.5 c 128,-1,5
 214 31 214 31 214 68 c 0,6,7
 214 85 214 85 221 100.5 c 128,-1,8
 228 116 228 116 239.5 128 c 128,-1,9
 251 140 251 140 266.5 147.5 c 128,-1,10
 282 155 282 155 299 155 c 0,11,12
 317 155 317 155 332.5 148 c 128,-1,13
 348 141 348 141 359.5 129.5 c 128,-1,14
 371 118 371 118 378 102 c 128,-1,15
 385 86 385 86 385 68 c 0,0,1
EndSplineSet
Validated: 1
EndChar

StartChar: slash
Encoding: 47 47 18
Width: 600
GlyphClass: 2
Flags: W
LayerCount: 2
Fore
SplineSet
517 686 m 0,0,1
 517 670 517 670 360 331 c 0,2,3
 198 -10 198 -10 187 -47 c 1,4,5
 177 -63 177 -63 149 -63 c 0,6,7
 94 -63 94 -63 94 -31 c 0,8,9
 94 -20 94 -20 249 325 c 0,10,11
 406 671 406 671 426 700 c 0,12,13
 441 721 441 721 477 721 c 0,14,15
 492 721 492 721 504.5 711 c 128,-1,16
 517 701 517 701 517 686 c 0,0,1
EndSplineSet
Validated: 1
EndChar

StartChar: zero
Encoding: 48 48 19
Width: 600
GlyphClass: 2
Flags: W
LayerCount: 2
Fore
SplineSet
520 352 m 2,0,1
 520 352 520 352 520 347 c 0,2,3
 520 253 520 253 505.5 186.5 c 128,-1,4
 491 120 491 120 462.5 78 c 128,-1,5
 434 36 434 36 391.5 17 c 128,-1,6
 349 -2 349 -2 293 -2 c 0,7,8
 184 -2 184 -2 132 85.5 c 128,-1,9
 80 173 80 173 80 350 c 0,10,11
 80 470 80 470 133 562 c 0,12,13
 165 617 165 617 206 646 c 128,-1,14
 247 675 247 675 304 675 c 0,15,16
 357 675 357 675 399.5 648.5 c 128,-1,17
 442 622 442 622 471 571 c 0,18,19
 495 529 495 529 507.5 469 c 128,-1,20
 520 409 520 409 520 352 c 2,0,1
433 350 m 2,21,-1
 433 356 l 2,22,23
 433 473 433 473 403 530.5 c 128,-1,24
 373 588 373 588 310 588 c 0,25,26
 275 588 275 588 245 567 c 128,-1,27
 215 546 215 546 194 503 c 0,28,29
 177 469 177 469 172 429.5 c 128,-1,30
 167 390 167 390 167 350 c 0,31,32
 167 212 167 212 197 148.5 c 128,-1,33
 227 85 227 85 293 85 c 0,34,35
 363 85 363 85 398 148.5 c 128,-1,36
 433 212 433 212 433 350 c 2,21,-1
EndSplineSet
Validated: 1
EndChar

StartChar: one
Encoding: 49 49 20
Width: 600
GlyphClass: 2
Flags: W
LayerCount: 2
Fore
SplineSet
456 40 m 0,0,1
 458 -1 458 -1 402 0 c 2,2,-1
 177 0 l 2,3,4
 142 -1 142 -1 142 40 c 0,5,6
 142 86 142 86 206 86 c 0,7,8
 216 86 216 86 234 85 c 128,-1,9
 252 84 252 84 258 86 c 1,10,-1
 258 481 l 1,11,12
 213 416 213 416 185 416 c 0,13,14
 146 416 146 416 146 454 c 0,15,16
 146 479 146 479 164 500 c 0,17,18
 173 509 173 509 182 518 c 128,-1,19
 191 527 191 527 200 535 c 0,20,21
 213 555 213 555 225 576 c 128,-1,22
 237 597 237 597 248 617 c 0,23,24
 282 674 282 674 311 674 c 0,25,26
 324 674 324 674 334.5 663.5 c 128,-1,27
 345 653 345 653 345 640 c 2,28,-1
 345 86 l 1,29,30
 357 86 357 86 373 86 c 128,-1,31
 389 86 389 86 398 86 c 0,32,33
 456 86 456 86 456 40 c 0,0,1
EndSplineSet
Validated: 33
EndChar

StartChar: two
Encoding: 50 50 21
Width: 600
GlyphClass: 2
Flags: W
LayerCount: 2
Fore
SplineSet
506 42 m 0,0,1
 503 1 503 1 454 1 c 2,2,-1
 156 1 l 2,3,4
 119 1 119 1 108 13 c 128,-1,5
 97 25 97 25 97 45 c 0,6,7
 97 76 97 76 123 108 c 2,8,-1
 351 383 l 2,9,10
 389 430 389 430 389 476 c 0,11,12
 389 521 389 521 359.5 550 c 128,-1,13
 330 579 330 579 285 579 c 0,14,15
 235 579 235 579 204 550 c 0,16,17
 199 545 199 545 190 529.5 c 128,-1,18
 181 514 181 514 170 485 c 0,19,20
 153 452 153 452 133 452 c 0,21,22
 93 452 93 452 93 496 c 0,23,24
 93 571 93 571 148 622 c 0,25,26
 200 671 200 671 277 671 c 0,27,28
 371 671 371 671 417 625 c 1,29,30
 475 577 475 577 475 485 c 0,31,32
 475 396 475 396 434 355 c 1,33,-1
 209 87 l 1,34,-1
 448 87 l 2,35,36
 474 87 474 87 490 75.5 c 128,-1,37
 506 64 506 64 506 42 c 0,0,1
EndSplineSet
Validated: 1
EndChar

StartChar: three
Encoding: 51 51 22
Width: 600
GlyphClass: 2
Flags: W
LayerCount: 2
Fore
SplineSet
501 204 m 0,0,1
 501 105 501 105 443.5 50.5 c 128,-1,2
 386 -4 386 -4 286 -4 c 0,3,4
 204 -4 204 -4 152 38 c 0,5,6
 98 84 98 84 98 165 c 0,7,8
 98 181 98 181 102 194 c 1,9,10
 116 205 116 205 137 205 c 0,11,12
 168 205 168 205 180 172 c 0,13,14
 200 119 200 119 206 111 c 0,15,16
 231 78 231 78 296 78 c 0,17,18
 347 78 347 78 380 118 c 0,19,20
 411 155 411 155 411 207 c 0,21,22
 411 272 411 272 363 301 c 0,23,24
 346 311 346 311 273 326 c 0,25,26
 225 336 225 336 225 362 c 0,27,28
 225 387 225 387 271 393 c 0,29,30
 337 400 337 400 355 411 c 0,31,32
 401 433 401 433 401 500 c 0,33,34
 401 521 401 521 392.5 538 c 128,-1,35
 384 555 384 555 369.5 567 c 128,-1,36
 355 579 355 579 336 585.5 c 128,-1,37
 317 592 317 592 296 592 c 0,38,39
 250 592 250 592 225 571 c 0,40,41
 212 562 212 562 189.5 539.5 c 128,-1,42
 167 517 167 517 146 521 c 1,43,44
 133 519 133 519 125.5 528.5 c 128,-1,45
 118 538 118 538 118 555 c 0,46,47
 118 574 118 574 137 597.5 c 128,-1,48
 156 621 156 621 201 648 c 0,49,50
 240 667 240 667 308 671 c 0,51,52
 347 671 347 671 380 658.5 c 128,-1,53
 413 646 413 646 436 623 c 128,-1,54
 459 600 459 600 472 567.5 c 128,-1,55
 485 535 485 535 485 496 c 0,56,57
 485 404 485 404 419 355 c 1,58,59
 461 322 461 322 480 290 c 0,60,61
 501 254 501 254 501 204 c 0,0,1
EndSplineSet
Validated: 33
EndChar

StartChar: four
Encoding: 52 52 23
Width: 600
GlyphClass: 2
Flags: W
LayerCount: 2
Fore
SplineSet
545 249 m 0,0,1
 539 203 539 203 474 203 c 0,2,3
 410 203 410 203 410 203 c 1,4,-1
 410 26 l 2,5,6
 410 13 410 13 396 1.5 c 128,-1,7
 382 -10 382 -10 365 -10 c 256,8,9
 348 -10 348 -10 335 0 c 0,10,11
 321 11 321 11 321 26 c 2,12,-1
 321 203 l 1,13,-1
 132 203 l 2,14,15
 107 206 107 206 93.5 220 c 128,-1,16
 80 234 80 234 80 256 c 0,17,18
 80 266 80 266 81.5 279 c 128,-1,19
 83 292 83 292 85 308 c 0,20,21
 89 330 89 330 91 343 c 128,-1,22
 93 356 93 356 94 360 c 0,23,24
 106 457 106 457 106 624 c 0,25,26
 106 678 106 678 148 678 c 0,27,28
 189 678 189 678 189 610 c 0,29,30
 189 531 189 531 183.5 452 c 128,-1,31
 178 373 178 373 169 295 c 1,32,-1
 321 295 l 1,33,-1
 321 478 l 2,34,35
 320 517 320 517 365 517 c 0,36,37
 407 517 407 517 410 475 c 2,38,-1
 410 295 l 1,39,-1
 470 295 l 2,40,41
 553 297 553 297 545 249 c 0,0,1
EndSplineSet
Validated: 33
EndChar

StartChar: five
Encoding: 53 53 24
Width: 600
GlyphClass: 2
Flags: W
LayerCount: 2
Fore
SplineSet
501 224 m 0,0,1
 501 -6 501 -6 279 -6 c 0,2,3
 204 -6 204 -6 163.5 24.5 c 128,-1,4
 123 55 123 55 102 126 c 0,5,6
 99 136 99 136 99 142 c 0,7,8
 99 155 99 155 111 165.5 c 128,-1,9
 123 176 123 176 136 176 c 0,10,11
 156 176 156 176 173 152 c 0,12,13
 198 116 198 116 209 107 c 0,14,15
 239 83 239 83 291 83 c 0,16,17
 418 83 418 83 418 216 c 0,18,19
 418 275 418 275 376 313 c 0,20,21
 335 349 335 349 275 349 c 0,22,23
 242 349 242 349 201 321 c 0,24,25
 161 293 161 293 137 293 c 0,26,27
 107 293 107 293 107 339 c 2,28,-1
 107 631 l 2,29,30
 107 648 107 648 121 659 c 128,-1,31
 135 670 135 670 152 670 c 2,32,-1
 444 670 l 2,33,34
 473 670 473 670 473 622 c 0,35,36
 473 584 473 584 442 584 c 2,37,-1
 194 584 l 1,38,-1
 194 415 l 1,39,40
 242 437 242 437 304 437 c 0,41,42
 386 437 386 437 445 372 c 0,43,44
 501 308 501 308 501 224 c 0,0,1
EndSplineSet
Validated: 1
EndChar

StartChar: six
Encoding: 54 54 25
Width: 600
GlyphClass: 2
Flags: W
LayerCount: 2
Fore
SplineSet
519 227 m 1,0,1
 513 123 513 123 455 58.5 c 128,-1,2
 397 -6 397 -6 294 -6 c 0,3,4
 87 -6 87 -6 87 252 c 0,5,6
 87 358 87 358 130 445 c 0,7,8
 167 523 167 523 245 607 c 1,9,10
 327 679 327 679 348 679 c 0,11,12
 370 679 370 679 383.5 671 c 128,-1,13
 397 663 397 663 396 631 c 0,14,15
 396 605 396 605 302 534 c 1,16,17
 219 441 219 441 207 404 c 1,18,19
 221 409 221 409 234 415 c 128,-1,20
 247 421 247 421 270 429.5 c 128,-1,21
 293 438 293 438 316 438 c 0,22,23
 402 433 402 433 460.5 378.5 c 128,-1,24
 519 324 519 324 519 227 c 1,0,1
434 227 m 0,25,26
 434 285 434 285 397 316.5 c 128,-1,27
 360 348 360 348 300 348 c 0,28,29
 257 348 257 348 188 289 c 1,30,31
 187 267 187 267 181 256.5 c 128,-1,32
 175 246 175 246 175 245 c 0,33,34
 171 71 171 71 301 71 c 0,35,36
 362 71 362 71 398 116.5 c 128,-1,37
 434 162 434 162 434 227 c 0,25,26
EndSplineSet
Validated: 33
EndChar

StartChar: seven
Encoding: 55 55 26
Width: 600
GlyphClass: 2
Flags: W
LayerCount: 2
Fore
SplineSet
242 -10 m 1,0,1
 198 5 198 5 198 19 c 0,2,3
 198 40 198 40 282 285 c 0,4,5
 308 360 308 360 334 434 c 128,-1,6
 360 508 360 508 386 583 c 1,7,-1
 144 583 l 2,8,9
 110 583 110 583 110 623 c 0,10,11
 110 640 110 640 120.5 655 c 128,-1,12
 131 670 131 670 147 670 c 2,13,-1
 472 670 l 1,14,15
 492 658 492 658 492 634 c 0,16,17
 492 629 492 629 298 26 c 0,18,19
 286 -10 286 -10 242 -10 c 1,0,1
EndSplineSet
Validated: 1
EndChar

StartChar: eight
Encoding: 56 56 27
Width: 600
GlyphClass: 2
Flags: W
LayerCount: 2
Fore
SplineSet
511 176 m 0,0,1
 511 85 511 85 447 39 c 0,2,3
 390 -3 390 -3 297 -3 c 0,4,5
 205 -3 205 -3 151 33 c 0,6,7
 88 76 88 76 88 163 c 0,8,9
 88 220 88 220 111 271 c 0,10,11
 136 325 136 325 183 351 c 1,12,13
 109 399 109 399 109 483 c 0,14,15
 109 563 109 563 165 617 c 0,16,17
 220 671 220 671 301 671 c 0,18,19
 389 671 389 671 436 626 c 0,20,21
 486 581 486 581 486 493 c 0,22,23
 486 446 486 446 461 415 c 0,24,25
 441 389 441 389 395 364 c 1,26,27
 511 310 511 310 511 176 c 0,0,1
403 514 m 0,28,29
 403 556 403 556 370 577 c 0,30,31
 343 590 343 590 300 590 c 0,32,33
 246 590 246 590 219.5 562 c 128,-1,34
 193 534 193 534 193 483 c 0,35,36
 193 423 193 423 296 401 c 1,37,38
 357 416 357 416 376 434 c 0,39,40
 403 458 403 458 403 514 c 0,28,29
432 185 m 0,41,42
 432 273 432 273 292 324 c 1,43,44
 226 291 226 291 201 263 c 0,45,46
 163 222 163 222 163 162 c 0,47,48
 163 116 163 116 209 91 c 0,49,50
 246 75 246 75 300 75 c 0,51,52
 432 75 432 75 432 185 c 0,41,42
EndSplineSet
Validated: 1
EndChar

StartChar: nine
Encoding: 57 57 28
Width: 600
GlyphClass: 2
Flags: W
LayerCount: 2
Fore
SplineSet
524 440 m 0,0,1
 524 148 524 148 261 14 c 1,2,3
 204 -9 204 -9 156 -9 c 0,4,5
 140 -9 140 -9 128.5 3 c 128,-1,6
 117 15 117 15 117 31 c 0,7,8
 117 49 117 49 127 56 c 0,9,10
 144 67 144 67 145 69 c 0,11,12
 161 73 161 73 183.5 79.5 c 128,-1,13
 206 86 206 86 236 95 c 0,14,15
 349 131 349 131 410 274 c 1,16,17
 354 237 354 237 287 237 c 0,18,19
 196 237 196 237 135 293 c 0,20,21
 75 348 75 348 75 440 c 0,22,23
 75 548 75 548 141 611 c 0,24,25
 211 681 211 681 319 681 c 0,26,27
 405 681 405 681 462 611 c 1,28,29
 524 551 524 551 524 440 c 0,0,1
440 440 m 0,30,31
 440 488 440 488 396 543 c 0,32,33
 355 598 355 598 308 598 c 0,34,35
 242 598 242 598 196 557 c 1,36,37
 158 514 158 514 158 447 c 0,38,39
 158 386 158 386 199 351 c 0,40,41
 238 318 238 318 300 318 c 0,42,43
 356 318 356 318 433 380 c 1,44,45
 440 409 440 409 440 440 c 0,30,31
EndSplineSet
Validated: 1
EndChar

StartChar: colon
Encoding: 58 58 29
Width: 600
GlyphClass: 2
Flags: W
LayerCount: 2
Fore
SplineSet
372 390 m 256,0,1
 372 373 372 373 365.5 358 c 128,-1,2
 359 343 359 343 347.5 331.5 c 128,-1,3
 336 320 336 320 321 313 c 128,-1,4
 306 306 306 306 290 306 c 0,5,6
 273 306 273 306 258 313 c 128,-1,7
 243 320 243 320 231.5 331.5 c 128,-1,8
 220 343 220 343 213 358 c 128,-1,9
 206 373 206 373 206 390 c 0,10,11
 206 422 206 422 232 450 c 0,12,13
 257 478 257 478 290 478 c 0,14,15
 307 478 307 478 322 470.5 c 128,-1,16
 337 463 337 463 348 451 c 128,-1,17
 359 439 359 439 365.5 423 c 128,-1,18
 372 407 372 407 372 390 c 256,0,1
368 117 m 0,19,20
 368 88 368 88 342 62 c 0,21,22
 317 37 317 37 287 37 c 0,23,24
 272 37 272 37 257 43.5 c 128,-1,25
 242 50 242 50 231 61.5 c 128,-1,26
 220 73 220 73 213 87.5 c 128,-1,27
 206 102 206 102 206 117 c 0,28,29
 206 144 206 144 232 174 c 0,30,31
 254 199 254 199 280 202 c 0,32,33
 284 202 284 202 287 202 c 0,34,35
 304 202 304 202 318.5 195 c 128,-1,36
 333 188 333 188 344 176 c 128,-1,37
 355 164 355 164 361.5 148.5 c 128,-1,38
 368 133 368 133 368 117 c 0,19,20
EndSplineSet
Validated: 1
EndChar

StartChar: semicolon
Encoding: 59 59 30
Width: 600
GlyphClass: 2
Flags: W
LayerCount: 2
Fore
SplineSet
372 390 m 256,0,1
 372 373 372 373 365.5 358 c 128,-1,2
 359 343 359 343 347.5 331.5 c 128,-1,3
 336 320 336 320 321 313 c 128,-1,4
 306 306 306 306 290 306 c 0,5,6
 273 306 273 306 258 313 c 128,-1,7
 243 320 243 320 231.5 331.5 c 128,-1,8
 220 343 220 343 213 358 c 128,-1,9
 206 373 206 373 206 390 c 0,10,11
 206 422 206 422 232 450 c 0,12,13
 257 478 257 478 290 478 c 0,14,15
 307 478 307 478 322 470.5 c 128,-1,16
 337 463 337 463 348 451 c 128,-1,17
 359 439 359 439 365.5 423 c 128,-1,18
 372 407 372 407 372 390 c 256,0,1
371 105 m 0,19,20
 371 81 371 81 363 53 c 0,21,22
 343 -16 343 -16 311 -38 c 0,23,24
 281 -59 281 -59 210 -60 c 1,25,26
 196 -51 196 -51 196 -33 c 0,27,28
 196 -17 196 -17 207 -3 c 1,29,-1
 218 -4 l 1,30,31
 294 -4 294 -4 305 59 c 1,32,33
 259 73 259 73 239 85 c 0,34,35
 206 107 206 107 206 144 c 0,36,37
 206 202 206 202 293 202 c 0,38,39
 330 202 330 202 352 171 c 0,40,41
 371 143 371 143 371 105 c 0,19,20
EndSplineSet
Validated: 1
EndChar

StartChar: less
Encoding: 60 60 31
Width: 600
GlyphClass: 2
Flags: W
LayerCount: 2
Fore
SplineSet
480 466 m 0,0,1
 480 448 480 448 372 390 c 0,2,3
 339 373 339 373 306 356.5 c 128,-1,4
 273 340 273 340 239 323 c 1,5,-1
 457 199 l 2,6,7
 478 187 478 187 478 165 c 0,8,9
 478 148 478 148 466 135 c 128,-1,10
 454 122 454 122 438 122 c 0,11,12
 419 122 419 122 298 191 c 0,13,14
 252 217 252 217 215.5 239 c 128,-1,15
 179 261 179 261 151 279 c 0,16,17
 120 298 120 298 120 326 c 0,18,19
 120 353 120 353 153 373 c 0,20,21
 173 385 173 385 210.5 406 c 128,-1,22
 248 427 248 427 302 457 c 0,23,24
 428 526 428 526 437 526 c 0,25,26
 456 526 456 526 470 505 c 0,27,28
 480 489 480 489 480 466 c 0,0,1
EndSplineSet
Validated: 1
EndChar

StartChar: equal
Encoding: 61 61 32
Width: 600
GlyphClass: 2
Flags: W
LayerCount: 2
Fore
SplineSet
487 409 m 0,0,1
 487 395 487 395 479 381 c 0,2,3
 470 367 470 367 455 367 c 2,4,-1
 139 367 l 2,5,6
 113 367 113 367 113 409 c 0,7,8
 113 424 113 424 121 438 c 0,9,10
 130 454 130 454 145 454 c 2,11,-1
 453 454 l 2,12,13
 487 454 487 454 487 409 c 0,0,1
487 239 m 0,14,15
 487 196 487 196 453 196 c 2,16,-1
 145 196 l 2,17,18
 130 196 130 196 121 210 c 0,19,20
 113 224 113 224 113 239 c 0,21,22
 113 255 113 255 122.5 269 c 128,-1,23
 132 283 132 283 147 283 c 2,24,-1
 455 283 l 2,25,26
 470 283 470 283 479 268 c 0,27,28
 487 254 487 254 487 239 c 0,14,15
EndSplineSet
Validated: 1
EndChar

StartChar: greater
Encoding: 62 62 33
Width: 600
GlyphClass: 2
Flags: W
LayerCount: 2
Fore
SplineSet
492 321 m 0,0,1
 492 303 492 303 339 210 c 0,2,3
 185 118 185 118 156 118 c 0,4,5
 140 118 140 118 127.5 129.5 c 128,-1,6
 115 141 115 141 115 156 c 0,7,8
 115 182 115 182 139 196 c 2,9,-1
 358 320 l 1,10,-1
 136 440 l 2,11,12
 108 456 108 456 108 481 c 0,13,14
 108 499 108 499 121.5 512.5 c 128,-1,15
 135 526 135 526 152 526 c 0,16,17
 162 526 162 526 174 521 c 2,18,-1
 443 371 l 2,19,20
 492 343 492 343 492 321 c 0,0,1
EndSplineSet
Validated: 1
EndChar

StartChar: question
Encoding: 63 63 34
Width: 600
GlyphClass: 2
Flags: W
LayerCount: 2
Fore
SplineSet
453 496 m 0,0,1
 453 449 453 449 429 403 c 0,2,3
 421 389 421 389 408 370 c 128,-1,4
 395 351 395 351 375 326 c 0,5,6
 355 300 355 300 341 280.5 c 128,-1,7
 327 261 327 261 319 247 c 0,8,9
 314 237 314 237 308 209 c 0,10,11
 302 185 302 185 293 174 c 0,12,13
 281 159 281 159 257 159 c 0,14,15
 240 159 240 159 226.5 171 c 128,-1,16
 213 183 213 183 213 200 c 0,17,18
 213 268 213 268 310 389 c 0,19,20
 317 397 317 397 326 408.5 c 128,-1,21
 335 420 335 420 346 436 c 0,22,23
 355 454 355 454 355 482 c 0,24,25
 355 517 355 517 335 538 c 128,-1,26
 315 559 315 559 280 559 c 0,27,28
 255 559 255 559 230 543 c 0,29,30
 211 530 211 530 199.5 523.5 c 128,-1,31
 188 517 188 517 184 515 c 0,32,33
 146 529 146 529 146 568 c 0,34,35
 146 601 146 601 194 627 c 0,36,37
 235 650 235 650 272 650 c 0,38,39
 344 650 344 650 384 625 c 0,40,41
 428 598 428 598 446 531 c 0,42,43
 453 507 453 507 453 496 c 0,0,1
314 29 m 0,44,45
 314 3 314 3 297 -14.5 c 128,-1,46
 280 -32 280 -32 255 -32 c 0,47,48
 233 -32 233 -32 216 -16 c 128,-1,49
 199 0 199 0 199 22 c 0,50,51
 199 47 199 47 214 65 c 0,52,53
 230 86 230 86 255 86 c 0,54,55
 275 86 275 86 294 67 c 0,56,57
 314 47 314 47 314 29 c 0,44,45
EndSplineSet
Validated: 1
EndChar

StartChar: at
Encoding: 64 64 35
Width: 600
GlyphClass: 2
Flags: W
LayerCount: 2
Fore
SplineSet
582 394 m 0,0,1
 582 306 582 306 549 248 c 0,2,3
 510 182 510 182 440 182 c 0,4,5
 372 182 372 182 345 227 c 1,6,7
 309 186 309 186 276 186 c 0,8,9
 234 186 234 186 203 219 c 0,10,11
 172 253 172 253 172 295 c 0,12,13
 172 375 172 375 208 434 c 0,14,15
 252 503 252 503 331 499 c 0,16,17
 346 498 346 498 356 485 c 128,-1,18
 366 472 366 472 366 456 c 0,19,20
 366 435 366 435 333 425 c 0,21,22
 285 409 285 409 271 397 c 0,23,24
 238 370 238 370 238 311 c 0,25,26
 238 295 238 295 248.5 280.5 c 128,-1,27
 259 266 259 266 271 266 c 0,28,29
 299 266 299 266 326 324 c 128,-1,30
 353 382 353 382 369 382 c 0,31,32
 404 382 404 382 404 335 c 0,33,34
 404 328 404 328 402 313.5 c 128,-1,35
 400 299 400 299 400 292 c 0,36,37
 400 259 400 259 440 259 c 0,38,39
 465 259 465 259 488 298 c 0,40,41
 509 332 509 332 509 359 c 0,42,43
 509 436 509 436 495 469 c 0,44,45
 474 518 474 518 424 556 c 0,46,47
 371 595 371 595 321 595 c 0,48,49
 214 595 214 595 150 505 c 0,50,51
 93 425 93 425 93 317 c 0,52,53
 93 216 93 216 155 142 c 0,54,55
 221 65 221 65 321 65 c 0,56,57
 370 65 370 65 468 108 c 1,58,59
 504 100 504 100 504 65 c 0,60,61
 504 27 504 27 428 6 c 0,62,63
 400 -1 400 -1 373.5 -4.5 c 128,-1,64
 347 -8 347 -8 321 -8 c 0,65,66
 194 -8 194 -8 104 91 c 0,67,68
 18 189 18 189 18 317 c 0,69,70
 18 457 18 457 90 561 c 0,71,72
 173 677 173 677 306 677 c 0,73,74
 422 677 422 677 503 593 c 0,75,76
 582 511 582 511 582 394 c 0,0,1
EndSplineSet
Validated: 33
EndChar

StartChar: A
Encoding: 65 65 36
Width: 600
GlyphClass: 2
Flags: W
LayerCount: 2
Fore
SplineSet
516 47 m 0,0,1
 533 -4 533 -4 481 -4 c 0,2,3
 444 -4 444 -4 432 30 c 2,4,-1
 382 192 l 1,5,-1
 214 192 l 1,6,-1
 166 45 l 1,7,8
 155 -7 155 -7 116 -5 c 0,9,10
 60 -6 60 -6 74 38 c 2,11,-1
 266 636 l 2,12,13
 282 681 282 681 304 681 c 256,14,15
 326 681 326 681 341 636 c 0,16,17
 406 449 406 449 516 47 c 0,0,1
360 279 m 1,18,-1
 304 490 l 1,19,-1
 244 279 l 1,20,-1
 360 279 l 1,18,-1
EndSplineSet
Validated: 33
EndChar

StartChar: B
Encoding: 66 66 37
Width: 600
GlyphClass: 2
Flags: W
LayerCount: 2
Fore
SplineSet
495 206 m 2,0,1
 495 206 495 206 495 167 c 0,2,3
 495 115 495 115 474.5 81.5 c 128,-1,4
 454 48 454 48 424 29 c 0,5,6
 397 12 397 12 355 4.5 c 128,-1,7
 313 -3 313 -3 258 -3 c 0,8,9
 190 -3 190 -3 157 10 c 0,10,11
 105 31 105 31 105 87 c 2,12,-1
 105 601 l 2,13,14
 105 617 105 617 112.5 633.5 c 128,-1,15
 120 650 120 650 134 658 c 0,16,17
 159 672 159 672 192 672 c 0,18,19
 282 672 282 672 324 661 c 0,20,21
 388 645 388 645 430 586 c 0,22,23
 464 540 464 540 464 498 c 0,24,25
 464 413 464 413 382 358 c 1,26,27
 411 344 411 344 432 330.5 c 128,-1,28
 453 317 453 317 467 299.5 c 128,-1,29
 481 282 481 282 488 259.5 c 128,-1,30
 495 237 495 237 495 206 c 2,0,1
379 494 m 0,31,32
 379 545 379 545 327 567 c 0,33,34
 307 576 307 576 291 580.5 c 128,-1,35
 275 585 275 585 247 585 c 2,36,-1
 192 585 l 1,37,-1
 192 401 l 1,38,39
 212 400 212 400 226 400.5 c 128,-1,40
 240 401 240 401 251 401 c 0,41,42
 295 401 295 401 335 424 c 0,43,44
 379 453 379 453 379 494 c 0,31,32
408 180 m 2,45,-1
 408 188 l 2,46,47
 408 207 408 207 397 230 c 128,-1,48
 386 253 386 253 369 273 c 0,49,50
 339 306 339 306 285 313 c 0,51,52
 276 314 276 314 253 312 c 128,-1,53
 230 310 230 310 192 316 c 1,54,55
 192 316 192 316 192 85 c 1,56,57
 208 85 208 85 232.5 85 c 128,-1,58
 257 85 257 85 282 85 c 0,59,60
 300 85 300 85 323 89.5 c 128,-1,61
 346 94 346 94 364 108 c 0,62,63
 384 123 384 123 396 141.5 c 128,-1,64
 408 160 408 160 408 180 c 2,45,-1
EndSplineSet
Validated: 33
EndChar

StartChar: C
Encoding: 67 67 38
Width: 600
GlyphClass: 2
Flags: W
LayerCount: 2
Fore
SplineSet
543 507 m 0,0,1
 543 443 543 443 495 443 c 0,2,3
 484 443 484 443 468 479 c 0,4,5
 449 526 449 526 430 548 c 0,6,7
 399 585 399 585 337 585 c 0,8,9
 261 585 261 585 207 505 c 0,10,11
 162 436 162 436 160 354 c 0,12,13
 160 221 160 221 195 160 c 0,14,15
 240 83 240 83 357 83 c 0,16,17
 397 83 397 83 418 98.5 c 128,-1,18
 439 114 439 114 465 176 c 1,19,20
 492 208 492 208 504 208 c 0,21,22
 548 208 548 208 548 165 c 1,23,24
 529 83 529 83 474 36 c 1,25,26
 419 -4 419 -4 353 -4 c 0,27,28
 210 -4 210 -4 140.5 86 c 128,-1,29
 71 176 71 176 72 366 c 0,30,31
 74 480 74 480 145 572 c 0,32,33
 222 673 222 673 330 673 c 0,34,35
 425 673 425 673 465 642 c 0,36,37
 513 610 513 610 539 531 c 0,38,39
 543 520 543 520 543 507 c 0,0,1
EndSplineSet
Validated: 33
EndChar

StartChar: D
Encoding: 68 68 39
Width: 600
GlyphClass: 2
Flags: W
LayerCount: 2
Fore
SplineSet
543 330 m 1,0,1
 536 219 536 219 517 158 c 1,2,3
 473 72 473 72 394 25 c 0,4,5
 345 0 345 0 277 -1 c 2,6,-1
 155 -1 l 2,7,8
 114 -1 114 -1 92 18 c 0,9,10
 68 39 68 39 68 86 c 2,11,-1
 68 586 l 2,12,13
 68 669 68 669 154 669 c 0,14,15
 531 669 531 669 543 330 c 1,0,1
454 313 m 0,16,17
 457 470 457 470 375 519 c 1,18,19
 299 583 299 583 155 583 c 1,20,21
 155 583 155 583 155 86 c 1,22,-1
 262 86 l 2,23,24
 454 88 454 88 454 313 c 0,16,17
EndSplineSet
Validated: 33
EndChar

StartChar: E
Encoding: 69 69 40
Width: 600
GlyphClass: 2
Flags: W
LayerCount: 2
Fore
SplineSet
444 0 m 2,0,1
 444 0 444 0 201 0 c 0,2,3
 162 0 162 0 138.5 24 c 128,-1,4
 115 48 115 48 115 87 c 2,5,-1
 115 584 l 2,6,7
 115 625 115 625 136 647 c 128,-1,8
 157 669 157 669 200 670 c 2,9,-1
 441 671 l 2,10,11
 480 671 480 671 480 627 c 0,12,13
 480 584 480 584 442 584 c 2,14,-1
 202 584 l 1,15,-1
 202 395 l 1,16,-1
 358 395 l 2,17,18
 394 395 394 395 394 349 c 0,19,20
 394 325 394 325 384 316.5 c 128,-1,21
 374 308 374 308 354 308 c 2,22,-1
 202 308 l 1,23,-1
 202 87 l 1,24,-1
 444 87 l 1,25,26
 484 65 484 65 484 44 c 0,27,28
 484 0 484 0 444 0 c 2,0,1
EndSplineSet
Validated: 1
EndChar

StartChar: F
Encoding: 70 70 41
Width: 600
GlyphClass: 2
Flags: W
LayerCount: 2
Fore
SplineSet
204 583 m 1,0,-1
 204 400 l 1,1,-1
 355 400 l 2,2,3
 373 401 373 401 385 387 c 128,-1,4
 397 373 397 373 397 354 c 0,5,6
 397 314 397 314 355 313 c 2,7,-1
 204 313 l 1,8,9
 206 175 206 175 205 102 c 128,-1,10
 204 29 204 29 204 27 c 0,11,12
 204 1 204 1 191.5 -8 c 128,-1,13
 179 -17 179 -17 158 -17 c 0,14,15
 138 -17 138 -17 127.5 -2.5 c 128,-1,16
 117 12 117 12 117 29 c 2,17,-1
 117 583 l 2,18,19
 117 670 117 670 201 670 c 2,20,-1
 435 670 l 2,21,22
 455 670 455 670 468.5 657 c 128,-1,23
 482 644 482 644 482 625 c 0,24,25
 482 583 482 583 435 583 c 2,26,-1
 204 583 l 1,0,-1
EndSplineSet
Validated: 33
EndChar

StartChar: G
Encoding: 71 71 42
Width: 600
GlyphClass: 2
Flags: W
LayerCount: 2
Fore
SplineSet
308 676 m 0,0,1
 427 676 427 676 481 624 c 0,2,3
 489 616 489 616 498.5 606 c 128,-1,4
 508 596 508 596 520 582.5 c 128,-1,5
 532 569 532 569 532 548 c 1,6,7
 521 512 521 512 487 508 c 0,8,9
 472 508 472 508 462 518 c 128,-1,10
 452 528 452 528 446 534 c 128,-1,11
 440 540 440 540 427.5 550.5 c 128,-1,12
 415 561 415 561 396 571 c 128,-1,13
 377 581 377 581 360.5 586 c 128,-1,14
 344 591 344 591 331 591 c 0,15,16
 312 591 312 591 294 586.5 c 128,-1,17
 276 582 276 582 258 573.5 c 128,-1,18
 240 565 240 565 224 552.5 c 128,-1,19
 208 540 208 540 197 524 c 0,20,21
 152 443 152 443 152 332 c 0,22,23
 152 282 152 282 173.5 214.5 c 128,-1,24
 195 147 195 147 247 114 c 0,25,26
 293 85 293 85 341 85 c 0,27,28
 347 85 347 85 353 85.5 c 128,-1,29
 359 86 359 86 376 89 c 128,-1,30
 393 92 393 92 418 110 c 0,31,32
 438 123 438 123 447.5 149.5 c 128,-1,33
 457 176 457 176 457 192 c 128,-1,34
 457 208 457 208 456 213 c 1,35,-1
 357 213 l 2,36,37
 338 213 338 213 334 255 c 0,38,39
 334 277 334 277 338 288.5 c 128,-1,40
 342 300 342 300 357 300 c 2,41,-1
 515 300 l 2,42,43
 534 300 534 300 540 270 c 0,44,45
 543 253 543 253 542 207 c 0,46,47
 540 163 540 163 536 138.5 c 128,-1,48
 532 114 532 114 527 106 c 0,49,50
 516 79 516 79 505 61.5 c 128,-1,51
 494 44 494 44 465 27 c 0,52,53
 441 11 441 11 418.5 5.5 c 128,-1,54
 396 0 396 0 376 -1.5 c 128,-1,55
 356 -3 356 -3 330 -4 c 0,56,57
 219 -4 219 -4 139 82 c 0,58,59
 104 125 104 125 82.5 192 c 128,-1,60
 61 259 61 259 61 325 c 0,61,62
 61 386 61 386 76 453.5 c 128,-1,63
 91 521 91 521 120 567 c 0,64,65
 150 616 150 616 203.5 646 c 128,-1,66
 257 676 257 676 308 676 c 0,0,1
EndSplineSet
Validated: 33
EndChar

StartChar: H
Encoding: 72 72 43
Width: 600
GlyphClass: 2
Flags: W
HStem: 277 87<190 410> 656 20G<135 153 444.5 462.5>
VStem: 103 87<4.40796 277 364 666.199> 410 87<5.43994 277 364 663.623>
LayerCount: 2
Fore
SplineSet
497 43 m 2,0,1
 496 -9 496 -9 454 -9 c 0,2,3
 432 -9 432 -9 421 5 c 128,-1,4
 410 19 410 19 410 43 c 2,5,-1
 410 277 l 1,6,-1
 190 277 l 1,7,-1
 190 37 l 2,8,9
 190 12 190 12 179 1.5 c 128,-1,10
 168 -9 168 -9 147 -9 c 0,11,12
 127 -9 127 -9 115 4 c 128,-1,13
 103 17 103 17 103 37 c 2,14,-1
 103 631 l 2,15,16
 103 657 103 657 114 666.5 c 128,-1,17
 125 676 125 676 145 676 c 0,18,19
 161 676 161 676 175.5 666.5 c 128,-1,20
 190 657 190 657 190 631 c 2,21,-1
 190 364 l 1,22,-1
 410 364 l 1,23,-1
 410 631 l 2,24,25
 410 657 410 657 422 666.5 c 128,-1,26
 434 676 434 676 455 676 c 0,27,28
 470 676 470 676 483.5 664 c 128,-1,29
 497 652 497 652 497 631 c 2,30,-1
 497 43 l 2,0,1
EndSplineSet
Validated: 1
EndChar

StartChar: I
Encoding: 73 73 44
Width: 600
GlyphClass: 2
Flags: W
HStem: 0 87<118.276 255 340 477.717> 583 87<119.5 255 340 482.356>
VStem: 255 85<87 583>
LayerCount: 2
Fore
SplineSet
486 42 m 0,0,1
 486 0 486 0 452 0 c 2,2,-1
 142 0 l 2,3,4
 113 0 113 0 113 42 c 0,5,6
 113 58 113 58 122 72 c 0,7,8
 132 87 132 87 148 87 c 2,9,-1
 255 87 l 1,10,-1
 255 583 l 1,11,-1
 152 583 l 2,12,13
 135 583 135 583 124 597.5 c 128,-1,14
 113 612 113 612 113 630 c 0,15,16
 113 670 113 670 139 670 c 2,17,-1
 455 670 l 2,18,19
 485 670 485 670 485 626 c 0,20,21
 485 583 485 583 455 583 c 2,22,-1
 340 583 l 1,23,-1
 340 87 l 1,24,-1
 453 87 l 2,25,26
 469 87 469 87 478 72 c 0,27,28
 486 58 486 58 486 42 c 0,0,1
EndSplineSet
Validated: 1
EndChar

StartChar: J
Encoding: 74 74 45
Width: 600
GlyphClass: 2
Flags: W
LayerCount: 2
Fore
SplineSet
528 622 m 0,0,1
 528 581 528 581 471 581 c 0,2,3
 466 581 466 581 459 581.5 c 128,-1,4
 452 582 452 582 444.5 582.5 c 128,-1,5
 437 583 437 583 431 583.5 c 128,-1,6
 425 584 425 584 422 584 c 1,7,-1
 422 216 l 2,8,9
 422 98 422 98 397 54 c 0,10,11
 359 -8 359 -8 256 -6 c 0,12,13
 186 -8 186 -8 126 29 c 1,14,15
 72 82 72 82 72 150 c 0,16,17
 72 203 72 203 106 203 c 0,18,19
 133 203 133 203 150 138 c 1,20,21
 174 89 174 89 204 80 c 128,-1,22
 234 71 234 71 263 75 c 1,23,24
 309 75 309 75 326 117 c 0,25,26
 336 143 336 143 336 199 c 2,27,-1
 336 584 l 1,28,-1
 203 585 l 2,29,30
 171 585 171 585 171 627 c 0,31,32
 171 643 171 643 184 656.5 c 128,-1,33
 197 670 197 670 213 670 c 2,34,-1
 488 670 l 2,35,36
 506 670 506 670 517 655.5 c 128,-1,37
 528 641 528 641 528 622 c 0,0,1
EndSplineSet
Validated: 33
EndChar

StartChar: K
Encoding: 75 75 46
Width: 600
GlyphClass: 2
Flags: W
LayerCount: 2
Fore
SplineSet
509 22 m 1,0,1
 498 -11 498 -11 453 -11 c 0,2,3
 423 -11 423 -11 392 36 c 2,4,-1
 239 289 l 1,5,-1
 171 219 l 1,6,-1
 171 26 l 2,7,8
 171 10 171 10 157.5 -0.5 c 128,-1,9
 144 -11 144 -11 127 -11 c 0,10,11
 109 -11 109 -11 96.5 -0.5 c 128,-1,12
 84 10 84 10 84 25 c 2,13,-1
 84 644 l 2,14,15
 84 660 84 660 97 670.5 c 128,-1,16
 110 681 110 681 127 681 c 0,17,18
 145 681 145 681 155.5 673.5 c 128,-1,19
 166 666 166 666 168.5 658 c 128,-1,20
 171 650 171 650 171 642 c 2,21,-1
 171 338 l 1,22,23
 200 368 200 368 292 484 c 0,24,25
 294 486 294 486 383 636 c 0,26,27
 404 674 404 674 441 674 c 0,28,29
 465 676 465 676 475 603 c 1,30,31
 467 579 467 579 308 352 c 1,32,33
 509 48 509 48 509 22 c 1,0,1
EndSplineSet
Validated: 33
EndChar

StartChar: L
Encoding: 76 76 47
Width: 600
GlyphClass: 2
Flags: W
HStem: 0 87<195 477.528>
VStem: 108 87<87.5115 668.716>
LayerCount: 2
Fore
SplineSet
195 634 m 2,0,1
 195 634 195 634 195 87 c 1,2,-1
 436 87 l 2,3,4
 464 87 464 87 479 71 c 0,5,6
 492 58 492 58 492 42 c 256,7,8
 492 26 492 26 478 12 c 0,9,10
 463 0 463 0 436 0 c 2,11,-1
 195 0 l 2,12,13
 176 0 176 0 164 0 c 0,14,15
 153 0 153 0 148 1 c 0,16,17
 115 4 115 4 111 41 c 0,18,19
 108 63 108 63 108 92 c 2,20,-1
 108 634 l 2,21,22
 108 653 108 653 122.5 664 c 128,-1,23
 137 675 137 675 153 675 c 0,24,25
 195 676 195 676 195 634 c 2,0,1
EndSplineSet
Validated: 33
EndChar

StartChar: M
Encoding: 77 77 48
Width: 600
GlyphClass: 2
Flags: W
LayerCount: 2
Fore
SplineSet
548 18 m 2,0,1
 548 -10 548 -10 507 -10 c 0,2,3
 491 -10 491 -10 481 -1 c 0,4,5
 467 8 467 8 468 25 c 2,6,-1
 468 472 l 1,7,-1
 301 225 l 1,8,-1
 138 470 l 1,9,-1
 138 31 l 2,10,11
 138 17 138 17 123.5 2.5 c 128,-1,12
 109 -12 109 -12 93 -12 c 0,13,14
 52 -12 52 -12 52 26 c 2,15,-1
 52 608 l 2,16,17
 52 643 52 643 62.5 661 c 128,-1,18
 73 679 73 679 90 679 c 256,19,20
 107 679 107 679 118 664 c 0,21,22
 120 662 120 662 298 375 c 1,23,-1
 464 640 l 1,24,25
 483 679 483 679 518 679 c 0,26,27
 548 679 548 679 548 644 c 2,28,-1
 548 18 l 2,0,1
EndSplineSet
Validated: 1
EndChar

StartChar: N
Encoding: 78 78 49
Width: 600
GlyphClass: 2
Flags: W
LayerCount: 2
Fore
SplineSet
516 37 m 1,0,-1
 516 41 l 1,1,2
 516 -14 516 -14 485 -14 c 0,3,4
 456 -14 456 -14 426 39 c 2,5,-1
 170 537 l 1,6,-1
 170 28 l 2,7,8
 170 -12 170 -12 127 -12 c 0,9,10
 111 -12 111 -12 97 -2 c 128,-1,11
 83 8 83 8 83 23 c 2,12,-1
 83 611 l 2,13,14
 83 628 83 628 89 644 c 0,15,16
 96 663 96 663 109 666 c 0,17,18
 135 672 135 672 165 672 c 0,19,20
 203 672 203 672 241 598 c 2,21,-1
 429 232 l 1,22,-1
 429 634 l 2,23,24
 429 652 429 652 443.5 665.5 c 128,-1,25
 458 679 458 679 476 679 c 0,26,27
 516 679 516 679 516 634 c 2,28,-1
 516 37 l 1,0,-1
EndSplineSet
Validated: 5
EndChar

StartChar: O
Encoding: 79 79 50
Width: 600
GlyphClass: 2
Flags: W
LayerCount: 2
Fore
SplineSet
560 335 m 0,0,1
 560 -3 560 -3 297 -3 c 0,2,3
 158 -3 158 -3 92 110 c 0,4,5
 39 202 39 202 39 352 c 0,6,7
 39 487 39 487 104 576 c 0,8,9
 178 677 178 677 307 677 c 256,10,11
 436 677 436 677 504 566 c 0,12,13
 560 472 560 472 560 335 c 0,0,1
473 338 m 0,14,15
 473 434 473 434 438 504 c 0,16,17
 394 593 394 593 307 593 c 0,18,19
 120 593 120 593 120 330 c 0,20,21
 120 79 120 79 302 79 c 0,22,23
 397 79 397 79 440 167 c 0,24,25
 473 231 473 231 473 338 c 0,14,15
EndSplineSet
Validated: 1
EndChar

StartChar: P
Encoding: 80 80 51
Width: 600
GlyphClass: 2
Flags: W
LayerCount: 2
Fore
SplineSet
506 441 m 1,0,1
 506 441 506 441 511 447 c 1,2,3
 511 382 511 382 487 330 c 0,4,5
 460 269 460 269 408 244 c 0,6,7
 392 236 392 236 368.5 236.5 c 128,-1,8
 345 237 345 237 303 236 c 0,9,10
 273 235 273 235 239 232 c 128,-1,11
 205 229 205 229 175 236 c 1,12,-1
 175 28 l 2,13,14
 175 -14 175 -14 132 -14 c 0,15,16
 114 -14 114 -14 101 -2 c 128,-1,17
 88 10 88 10 88 28 c 2,18,-1
 88 614 l 2,19,20
 88 651 88 651 104 662 c 0,21,22
 118 671 118 671 149 671 c 2,23,-1
 283 671 l 2,24,25
 331 671 331 671 373.5 654.5 c 128,-1,26
 416 638 416 638 448 606 c 128,-1,27
 480 574 480 574 493 531.5 c 128,-1,28
 506 489 506 489 506 441 c 1,0,1
419 441 m 1,29,-1
 419 440 l 1,30,31
 419 535 419 535 359 564 c 0,32,33
 317 584 317 584 212 584 c 0,34,35
 195 584 195 584 185 572.5 c 128,-1,36
 175 561 175 561 175 544 c 2,37,-1
 175 323 l 1,38,-1
 325 323 l 2,39,40
 347 323 347 323 367 333.5 c 128,-1,41
 387 344 387 344 399 363 c 0,42,43
 419 395 419 395 419 441 c 1,29,-1
EndSplineSet
Validated: 37
EndChar

StartChar: Q
Encoding: 81 81 52
Width: 600
GlyphClass: 2
Flags: W
LayerCount: 2
Fore
SplineSet
564 19 m 0,0,1
 564 -22 564 -22 529 -55 c 128,-1,2
 494 -88 494 -88 452 -88 c 0,3,4
 418 -88 418 -88 378 -56 c 0,5,6
 344 -28 344 -28 322 6 c 1,7,8
 307 0 307 0 292 0 c 0,9,10
 218 0 218 0 178 13 c 0,11,12
 107 38 107 38 67 139 c 0,13,14
 36 219 36 219 36 311 c 0,15,16
 36 450 36 450 86 548 c 0,17,18
 151 673 151 673 276 673 c 0,19,20
 406 673 406 673 475 574 c 0,21,22
 535 487 535 487 535 351 c 0,23,24
 535 210 535 210 458 95 c 0,25,26
 443 75 443 75 430 66 c 0,27,28
 409 52 409 52 401 44 c 1,29,30
 419 0 419 0 460 0 c 0,31,32
 480 0 480 0 494 29 c 0,33,34
 507 59 507 59 527 59 c 0,35,36
 541 59 541 59 552.5 46 c 128,-1,37
 564 33 564 33 564 19 c 0,0,1
450 364 m 0,38,39
 450 454 450 454 411 516 c 0,40,41
 364 587 364 587 278 587 c 0,42,43
 198 587 198 587 154 498 c 0,44,45
 120 429 120 429 120 338 c 0,46,47
 120 252 120 252 145 181 c 0,48,49
 180 83 180 83 249 83 c 0,50,51
 267 83 267 83 287 86 c 1,52,53
 287 86 287 86 264 126 c 0,54,55
 249 151 249 151 249 169 c 0,56,57
 249 174 249 174 253.5 180 c 128,-1,58
 258 186 258 186 264 191.5 c 128,-1,59
 270 197 270 197 277 201 c 128,-1,60
 284 205 284 205 289 205 c 0,61,62
 301 205 301 205 327 170 c 0,63,64
 337 156 337 156 345 144.5 c 128,-1,65
 353 133 353 133 358 122 c 1,66,67
 450 199 450 199 450 364 c 0,38,39
EndSplineSet
Validated: 1
EndChar

StartChar: R
Encoding: 82 82 53
Width: 600
GlyphClass: 2
Flags: W
LayerCount: 2
Fore
SplineSet
453 483 m 0,0,1
 453 431 453 431 427 379 c 0,2,3
 399 322 399 322 349 308 c 1,4,5
 370 278 370 278 377 263.5 c 128,-1,6
 384 249 384 249 401 220 c 1,7,8
 417 167 417 167 446.5 131.5 c 128,-1,9
 476 96 476 96 521 73 c 1,10,11
 545 55 545 55 545 31 c 0,12,13
 545 15 545 15 532 3 c 128,-1,14
 519 -9 519 -9 502 -9 c 0,15,16
 493 -9 493 -9 451.5 9.5 c 128,-1,17
 410 28 410 28 379 65 c 128,-1,18
 348 102 348 102 318 185 c 0,19,20
 295 247 295 247 261 280 c 0,21,22
 256 284 256 284 250 288 c 128,-1,23
 244 292 244 292 241 296 c 1,24,-1
 171 296 l 1,25,-1
 171 31 l 2,26,27
 171 -5 171 -5 128 -5 c 0,28,29
 84 -5 84 -5 84 31 c 2,30,-1
 84 620 l 2,31,32
 84 640 84 640 115 654.5 c 128,-1,33
 146 669 146 669 203 669 c 0,34,35
 274 669 274 669 317 663 c 128,-1,36
 360 657 360 657 383 645 c 0,37,38
 453 608 453 608 453 483 c 0,0,1
370 487 m 0,39,40
 370 525 370 525 353 553 c 0,41,42
 343 569 343 569 333 575.5 c 128,-1,43
 323 582 323 582 305 582 c 0,44,45
 304 582 304 582 269 583 c 128,-1,46
 234 584 234 584 171 582 c 1,47,-1
 171 386 l 1,48,-1
 185 386 l 2,49,50
 199 386 199 386 208 386 c 128,-1,51
 217 386 217 386 223 386 c 128,-1,52
 229 386 229 386 253 386 c 0,53,54
 295 386 295 386 336 402 c 1,55,56
 370 432 370 432 370 487 c 0,39,40
EndSplineSet
Validated: 33
EndChar

StartChar: S
Encoding: 83 83 54
Width: 600
GlyphClass: 2
Flags: W
LayerCount: 2
Fore
SplineSet
500 183 m 0,0,1
 500 94 500 94 443 42 c 0,2,3
 388 -8 388 -8 299 -8 c 0,4,5
 245 -8 245 -8 179 18 c 0,6,7
 99 50 99 50 99 96 c 0,8,9
 99 114 99 114 112.5 127.5 c 128,-1,10
 126 141 126 141 144 141 c 1,11,12
 141 141 141 141 191 110 c 128,-1,13
 241 79 241 79 291 79 c 0,14,15
 342 79 342 79 376 105 c 0,16,17
 414 134 414 134 414 184 c 0,18,19
 414 240 414 240 337 278 c 0,20,21
 302 295 302 295 266 311.5 c 128,-1,22
 230 328 230 328 194 345 c 1,23,24
 117 398 117 398 117 490 c 0,25,26
 117 564 117 564 162 618 c 0,27,28
 210 675 210 675 283 675 c 0,29,30
 340 675 340 675 387 657 c 0,31,32
 449 633 449 633 449 585 c 0,33,34
 449 563 449 563 432 548 c 0,35,36
 427 546 427 546 424 545.5 c 128,-1,37
 421 545 421 545 421 545 c 2,38,39
 416 545 416 545 376 567 c 128,-1,40
 336 589 336 589 297 589 c 0,41,42
 259 589 259 589 233 565 c 128,-1,43
 207 541 207 541 207 504 c 0,44,45
 207 429 207 429 283 392 c 0,46,47
 318 376 318 376 353.5 361 c 128,-1,48
 389 346 389 346 424 331 c 1,49,50
 500 283 500 283 500 183 c 0,0,1
EndSplineSet
Validated: 33
EndChar

StartChar: T
Encoding: 84 84 55
Width: 600
GlyphClass: 2
Flags: W
HStem: 583 87<71.2292 257 342 522.139>
VStem: 257 87<-0.872803 583>
LayerCount: 2
Fore
SplineSet
534 625 m 0,0,1
 534 583 534 583 493 583 c 2,2,-1
 342 583 l 1,3,-1
 344 16 l 2,4,5
 344 3 344 3 331.5 -1 c 128,-1,6
 319 -5 319 -5 297 -5 c 256,7,8
 275 -5 275 -5 266 -1 c 128,-1,9
 257 3 257 3 257 16 c 2,10,-1
 257 583 l 1,11,-1
 100 583 l 2,12,13
 65 583 65 583 65 625 c 0,14,15
 65 640 65 640 75 655 c 128,-1,16
 85 670 85 670 100 670 c 2,17,-1
 493 670 l 2,18,19
 511 670 511 670 522.5 656.5 c 128,-1,20
 534 643 534 643 534 625 c 0,0,1
EndSplineSet
Validated: 1
EndChar

StartChar: U
Encoding: 85 85 56
Width: 600
GlyphClass: 2
Flags: W
LayerCount: 2
Fore
SplineSet
298 -2 m 0,0,1
 173 -2 173 -2 129.5 60 c 128,-1,2
 86 122 86 122 86 185 c 2,3,-1
 86 637 l 2,4,5
 86 656 86 656 89.5 665 c 128,-1,6
 93 674 93 674 99 677 c 128,-1,7
 105 680 105 680 114 679 c 128,-1,8
 123 678 123 678 134 678 c 0,9,10
 173 678 173 678 173 637 c 2,11,-1
 173 213 l 2,12,13
 173 143 173 143 205.5 111 c 128,-1,14
 238 79 238 79 297 79 c 0,15,16
 362 79 362 79 394.5 105 c 128,-1,17
 427 131 427 131 427 213 c 2,18,-1
 427 631 l 2,19,20
 427 646 427 646 438 661.5 c 128,-1,21
 449 677 449 677 464 677 c 0,22,23
 484 677 484 677 499 665 c 128,-1,24
 514 653 514 653 514 634 c 2,25,-1
 514 185 l 2,26,27
 514 -2 514 -2 298 -2 c 0,0,1
EndSplineSet
Validated: 1
EndChar

StartChar: V
Encoding: 86 86 57
Width: 600
GlyphClass: 2
Flags: W
LayerCount: 2
Fore
SplineSet
538 648 m 1,0,1
 538 633 538 633 449 354 c 0,2,3
 406 220 406 220 379.5 140 c 128,-1,4
 353 60 353 60 342 32 c 0,5,6
 326 -11 326 -11 298 -11 c 0,7,8
 271 -11 271 -11 255 34 c 0,9,10
 220 131 220 131 147 352 c 0,11,12
 61 615 61 615 61 644 c 1,13,14
 76 677 76 677 112 677 c 0,15,16
 151 677 151 677 174 605 c 2,17,-1
 298 234 l 1,18,-1
 424 602 l 2,19,20
 453 680 453 680 493 680 c 0,21,22
 527 680 527 680 538 648 c 1,0,1
EndSplineSet
Validated: 1
EndChar

StartChar: W
Encoding: 87 87 58
Width: 600
GlyphClass: 2
Flags: W
LayerCount: 2
Fore
SplineSet
567 648 m 0,0,1
 567 600 567 600 505 293 c 0,2,3
 444 -11 444 -11 434 -11 c 0,4,5
 401 -12 401 -12 299 197 c 1,6,7
 181 -9 181 -9 162 -9 c 0,8,9
 140 -9 140 -9 136 21 c 2,10,-1
 32 645 l 2,11,12
 32 660 32 660 43.5 670 c 128,-1,13
 55 680 55 680 70 680 c 0,14,15
 87 680 87 680 110.5 672 c 128,-1,16
 134 664 134 664 145 629 c 1,17,-1
 216 244 l 1,18,19
 218 247 218 247 306 374 c 1,20,-1
 381 243 l 1,21,-1
 461 635 l 2,22,23
 468 663 468 663 488.5 671 c 128,-1,24
 509 679 509 679 538 678 c 0,25,26
 567 678 567 678 567 648 c 0,0,1
EndSplineSet
Validated: 33
EndChar

StartChar: X
Encoding: 88 88 59
Width: 600
GlyphClass: 2
Flags: W
LayerCount: 2
Fore
SplineSet
521 18 m 256,0,1
 521 -6 521 -6 481 -6 c 0,2,3
 447 -6 447 -6 437 14 c 2,4,-1
 304 274 l 1,5,-1
 162 6 l 2,6,7
 155 -6 155 -6 125 -6 c 0,8,9
 78 -6 78 -6 78 17 c 0,10,11
 78 34 78 34 260 354 c 1,12,13
 103 638 103 638 103 649 c 0,14,15
 103 666 103 666 122 674 c 0,16,17
 140 682 140 682 154 682 c 0,18,19
 184 682 184 682 195 660 c 2,20,-1
 305 433 l 1,21,-1
 416 653 l 2,22,23
 431 683 431 683 470 683 c 0,24,25
 484 683 484 683 496.5 675 c 128,-1,26
 509 667 509 667 509 654 c 0,27,28
 509 636 509 636 345 353 c 1,29,30
 521 42 521 42 521 18 c 256,0,1
EndSplineSet
Validated: 1
EndChar

StartChar: Y
Encoding: 89 89 60
Width: 600
GlyphClass: 2
Flags: W
LayerCount: 2
Fore
SplineSet
528 650 m 1,0,1
 528 650 528 650 345 272 c 1,2,-1
 344 22 l 2,3,4
 344 4 344 4 328 -3 c 0,5,6
 313 -12 313 -12 296 -12 c 0,7,8
 257 -12 257 -12 257 20 c 2,9,-1
 259 272 l 1,10,11
 72 645 72 645 72 657 c 0,12,13
 72 676 72 676 116 676 c 0,14,15
 159 676 159 676 170 653 c 2,16,-1
 305 368 l 1,17,-1
 438 651 l 2,18,19
 451 678 451 678 500 678 c 0,20,21
 518 678 518 678 528 650 c 1,0,1
EndSplineSet
Validated: 1
EndChar

StartChar: Z
Encoding: 90 90 61
Width: 600
GlyphClass: 2
Flags: W
LayerCount: 2
Fore
SplineSet
460 0 m 2,0,1
 460 0 460 0 156 0 c 0,2,3
 115 0 115 0 115 44 c 0,4,5
 115 65 115 65 125 85 c 2,6,-1
 365 584 l 1,7,-1
 148 584 l 2,8,9
 132 584 132 584 121 601 c 0,10,11
 112 616 112 616 112 634 c 0,12,13
 112 671 112 671 148 671 c 2,14,-1
 396 671 l 2,15,16
 457 671 457 671 457 612 c 0,17,18
 457 576 457 576 211 86 c 1,19,-1
 447 86 l 2,20,21
 488 86 488 86 488 42 c 0,22,23
 488 0 488 0 460 0 c 2,0,1
EndSplineSet
Validated: 1
EndChar

StartChar: bracketleft
Encoding: 91 91 62
Width: 600
GlyphClass: 2
Flags: W
LayerCount: 2
Fore
SplineSet
441 711 m 256,0,1
 441 668 441 668 404 668 c 2,2,-1
 250 668 l 1,3,-1
 250 -33 l 1,4,-1
 404 -33 l 2,5,6
 437 -33 437 -33 438 -75 c 0,7,8
 437 -123 437 -123 404 -123 c 0,9,10
 299 -124 299 -124 279 -124 c 128,-1,11
 259 -124 259 -124 249 -123 c 0,12,13
 191 -124 191 -124 177 -111 c 0,14,15
 159 -98 159 -98 163 -33 c 1,16,17
 159 -33 159 -33 161 -14.5 c 128,-1,18
 163 4 163 4 163 696 c 0,19,20
 163 719 163 719 174.5 736.5 c 128,-1,21
 186 754 186 754 212 754 c 2,22,-1
 404 754 l 2,23,24
 441 754 441 754 441 711 c 256,0,1
EndSplineSet
Validated: 33
EndChar

StartChar: backslash
Encoding: 92 92 63
Width: 600
GlyphClass: 2
Flags: W
LayerCount: 2
Fore
SplineSet
515 -38 m 0,0,1
 505 -56 505 -56 491.5 -67 c 128,-1,2
 478 -78 478 -78 460 -78 c 256,3,4
 442 -78 442 -78 429 -54 c 0,5,6
 415 -29 415 -29 248 323 c 0,7,8
 95 654 95 654 95 671 c 256,9,10
 95 688 95 688 112.5 700.5 c 128,-1,11
 130 713 130 713 148 713 c 0,12,13
 170 713 170 713 182 693 c 0,14,15
 193 676 193 676 360 313 c 0,16,17
 515 -30 515 -30 515 -38 c 0,0,1
EndSplineSet
Validated: 1
EndChar

StartChar: bracketright
Encoding: 93 93 64
Width: 600
GlyphClass: 2
Flags: W
LayerCount: 2
Fore
SplineSet
159 711 m 256,0,1
 159 754 159 754 196 754 c 2,2,-1
 388 754 l 2,3,4
 414 754 414 754 425.5 736.5 c 128,-1,5
 437 719 437 719 437 696 c 0,6,7
 437 4 437 4 439 -14.5 c 128,-1,8
 441 -33 441 -33 437 -33 c 1,9,10
 441 -98 441 -98 423 -111 c 0,11,12
 409 -124 409 -124 351 -123 c 0,13,14
 341 -124 341 -124 321 -124 c 128,-1,15
 301 -124 301 -124 196 -123 c 0,16,17
 163 -123 163 -123 162 -75 c 0,18,19
 163 -33 163 -33 196 -33 c 2,20,-1
 350 -33 l 1,21,-1
 350 668 l 1,22,-1
 196 668 l 2,23,24
 159 668 159 668 159 711 c 256,0,1
EndSplineSet
Validated: 33
EndChar

StartChar: FL005Eh
Encoding: 94 94 65
Width: 600
GlyphClass: 2
Flags: W
LayerCount: 2
Fore
SplineSet
504 344 m 0,0,1
 504 327 504 327 490 315.5 c 128,-1,2
 476 304 476 304 459 304 c 0,3,4
 431 304 431 304 416 333 c 2,5,-1
 296 555 l 1,6,-1
 172 337 l 2,7,8
 156 309 156 309 136 309 c 0,9,10
 119 309 119 309 107 322.5 c 128,-1,11
 95 336 95 336 95 354 c 0,12,13
 95 367 95 367 101 378 c 2,14,-1
 252 643 l 2,15,16
 278 687 278 687 301 687 c 0,17,18
 320 687 320 687 346 640 c 0,19,20
 368 602 368 602 389.5 564.5 c 128,-1,21
 411 527 411 527 433 489 c 0,22,23
 504 364 504 364 504 344 c 0,0,1
EndSplineSet
Validated: 1
EndChar

StartChar: underscore
Encoding: 95 95 66
Width: 600
GlyphClass: 2
Flags: W
LayerCount: 2
Fore
SplineSet
582 -148 m 0,0,1
 582 -191 582 -191 551 -191 c 2,2,-1
 44 -191 l 2,3,4
 18 -191 18 -191 18 -145 c 0,5,6
 18 -130 18 -130 24 -116 c 0,7,8
 31 -97 31 -97 44 -97 c 2,9,-1
 547 -96 l 2,10,11
 582 -96 582 -96 582 -148 c 0,0,1
EndSplineSet
Validated: 1
EndChar

StartChar: grave
Encoding: 96 96 67
Width: 600
GlyphClass: 2
Flags: W
LayerCount: 2
Fore
SplineSet
193 752 m 0,0,1
 222 782 222 782 253 753 c 2,2,-1
 421 592 l 2,3,4
 434 581 434 581 432 559 c 0,5,6
 431 544 431 544 421 533 c 0,7,8
 394 504 394 504 366 530 c 2,9,-1
 194 695 l 2,10,11
 180 708 180 708 183 727 c 0,12,13
 185 744 185 744 193 752 c 0,0,1
EndSplineSet
Validated: 33
EndChar

StartChar: a
Encoding: 97 97 68
Width: 600
GlyphClass: 2
Flags: W
LayerCount: 2
Fore
SplineSet
518 11 m 0,0,1
 518 -9 518 -9 473 -9 c 0,2,3
 445 -9 445 -9 410 23 c 1,4,5
 332 -6 332 -6 277 -6 c 0,6,7
 201 -6 201 -6 146 28 c 0,8,9
 82 70 82 70 82 142 c 0,10,11
 82 218 82 218 154 265 c 0,12,13
 215 305 215 305 296 305 c 0,14,15
 341 305 341 305 399 291 c 1,16,-1
 399 324 l 2,17,18
 399 359 399 359 361 379 c 0,19,20
 331 394 331 394 290 394 c 0,21,22
 260 394 260 394 208 376 c 0,23,24
 155 358 155 358 131 358 c 0,25,26
 103 358 103 358 103 405 c 0,27,28
 103 439 103 439 182 460 c 0,29,30
 240 475 240 475 291 475 c 0,31,32
 357 475 357 475 411 449 c 0,33,34
 474 418 474 418 483 357 c 1,35,36
 482 359 482 359 482 288 c 0,37,38
 485 277 485 277 485 235 c 0,39,40
 485 221 485 221 485 201 c 0,41,42
 485 182 485 182 484 156 c 128,-1,43
 483 130 483 130 483 114 c 0,44,45
 483 99 483 99 483 95 c 0,46,47
 483 62 483 62 500 42 c 0,48,49
 518 24 518 24 518 11 c 0,0,1
396 110 m 1,50,51
 396 110 396 110 396 211 c 1,52,53
 368 218 368 218 343.5 221 c 128,-1,54
 319 224 319 224 299 224 c 0,55,56
 244 224 244 224 209 205 c 0,57,58
 164 181 164 181 164 132 c 0,59,60
 164 104 164 104 202 87 c 0,61,62
 233 76 233 76 266 76 c 0,63,64
 327 76 327 76 396 110 c 1,50,51
EndSplineSet
Validated: 33
EndChar

StartChar: b
Encoding: 98 98 69
Width: 600
GlyphClass: 2
Flags: W
LayerCount: 2
Fore
SplineSet
141 689 m 0,0,1
 181 689 181 689 180 651 c 2,2,-1
 180 458 l 1,3,4
 237 489 237 489 281 489 c 0,5,6
 379 489 379 489 444 418 c 0,7,8
 505 351 505 351 505 250 c 0,9,10
 505 135 505 135 443 64 c 0,11,12
 378 -8 378 -8 264 -8 c 0,13,14
 226 -8 226 -8 180 28 c 1,15,16
 176 -8 176 -8 131 -8 c 0,17,18
 94 -8 94 -8 94 29 c 2,19,-1
 95 652 l 2,20,21
 95 669 95 669 110 680 c 0,22,23
 123 689 123 689 141 689 c 0,0,1
424 252 m 0,24,25
 424 308 424 308 380 355 c 0,26,27
 337 401 337 401 281 401 c 0,28,29
 255 401 255 401 227 385 c 0,30,31
 216 377 216 377 204 369.5 c 128,-1,32
 192 362 192 362 180 350 c 1,33,-1
 180 122 l 1,34,35
 233 73 233 73 277 73 c 0,36,37
 349 73 349 73 389 128 c 0,38,39
 424 178 424 178 424 252 c 0,24,25
EndSplineSet
Validated: 33
EndChar

StartChar: c
Encoding: 99 99 70
Width: 600
GlyphClass: 2
Flags: W
LayerCount: 2
Fore
SplineSet
496 81 m 0,0,1
 496 70 496 70 485 52 c 0,2,3
 476 38 476 38 459.5 25.5 c 128,-1,4
 443 13 443 13 412 3 c 0,5,6
 373 -7 373 -7 335 -7 c 0,7,8
 218 -7 218 -7 155 59 c 0,9,10
 95 125 95 125 95 242 c 0,11,12
 95 350 95 350 154 415 c 0,13,14
 216 480 216 480 323 480 c 0,15,16
 371 480 371 480 430 452 c 0,17,18
 498 419 498 419 498 377 c 0,19,20
 498 363 498 363 482 354 c 0,21,22
 467 345 467 345 452 345 c 0,23,24
 442 345 442 345 398 371 c 128,-1,25
 354 397 354 397 326 397 c 0,26,27
 265 397 265 397 223 353 c 0,28,29
 182 309 182 309 182 250 c 0,30,31
 182 175 182 175 218 130 c 0,32,33
 255 81 255 81 309 73 c 1,34,35
 380 73 380 73 400 81 c 128,-1,36
 420 89 420 89 439 112 c 0,37,38
 453 125 453 125 467 123.5 c 128,-1,39
 481 122 481 122 487 111 c 0,40,41
 496 96 496 96 496 81 c 0,0,1
EndSplineSet
Validated: 1
EndChar

StartChar: d
Encoding: 100 100 71
Width: 600
GlyphClass: 2
Flags: W
LayerCount: 2
Fore
SplineSet
509 143 m 1,0,-1
 509 90 l 2,1,2
 508 78 508 78 508 63 c 256,3,4
 508 48 508 48 508 29 c 0,5,6
 508 -6 508 -6 467 -8 c 0,7,8
 443 -9 443 -9 433 1 c 128,-1,9
 423 11 423 11 423 33 c 1,10,11
 380 -8 380 -8 319 -8 c 0,12,13
 218 -8 218 -8 153 63 c 0,14,15
 91 131 91 131 91 231 c 0,16,17
 91 326 91 326 153 399 c 0,18,19
 219 474 219 474 313 474 c 0,20,21
 365 474 365 474 422 452 c 1,22,-1
 422 656 l 2,23,24
 422 673 422 673 435.5 684 c 128,-1,25
 449 695 449 695 466 695 c 0,26,27
 508 695 508 695 509 656 c 2,28,-1
 509 143 l 1,0,-1
423 131 m 1,29,30
 423 131 423 131 423 356 c 1,31,32
 371 387 371 387 323 387 c 0,33,34
 264 387 264 387 219 341 c 0,35,36
 174 294 174 294 174 237 c 0,37,38
 174 165 174 165 219 122 c 0,39,40
 266 77 266 77 339 81 c 0,41,42
 373 82 373 82 423 131 c 1,29,30
EndSplineSet
Validated: 33
EndChar

StartChar: e
Encoding: 101 101 72
Width: 600
GlyphClass: 2
Flags: W
LayerCount: 2
Fore
SplineSet
503 253 m 0,0,1
 503 195 503 195 434 195 c 2,2,-1
 173 195 l 1,3,4
 177 79 177 79 308 79 c 0,5,6
 349 79 349 79 381.5 84 c 128,-1,7
 414 89 414 89 470 115 c 1,8,9
 492 118 492 118 502 93.5 c 128,-1,10
 512 69 512 69 479 38 c 1,11,12
 420 -6 420 -6 300 -6 c 0,13,14
 187 -6 187 -6 130 69 c 0,15,16
 79 136 79 136 79 241 c 0,17,18
 79 352 79 352 137 417 c 0,19,20
 197 485 197 485 293 485 c 0,21,22
 503 485 503 485 503 253 c 0,0,1
414 280 m 1,23,24
 408 402 408 402 281 402 c 0,25,26
 244 402 244 402 209.5 367 c 128,-1,27
 175 332 175 332 173 280 c 1,28,-1
 414 280 l 1,23,24
EndSplineSet
Validated: 33
EndChar

StartChar: f
Encoding: 102 102 73
Width: 600
GlyphClass: 2
Flags: W
HStem: 370 87<128.252 199 285 422.748> 555 105<391.872 455.501> 591 85<308.315 404.812>
VStem: 199 86<1.34766 39 41 370 457 575.957>
LayerCount: 2
Fore
SplineSet
479 601 m 0,0,1
 481 575 481 575 465 558 c 0,2,3
 457 552 457 552 445 555 c 0,4,5
 432 557 432 557 420 562 c 128,-1,6
 408 567 408 567 396 574 c 0,7,8
 367 591 367 591 340 591 c 0,9,10
 318 591 318 591 308 578 c 0,11,12
 288 559 288 559 286 506 c 0,13,14
 286 498 286 498 286 486 c 256,15,16
 286 474 286 474 285 457 c 1,17,-1
 395 457 l 2,18,19
 413 457 413 457 424 434 c 0,20,21
 426 429 426 429 427 423.5 c 128,-1,22
 428 418 428 418 429 412 c 0,23,24
 430 396 430 396 423 381 c 0,25,26
 415 370 415 370 398 370 c 2,27,-1
 285 370 l 1,28,-1
 285 41 l 1,29,30
 287 41 287 41 285 39 c 2,31,-1
 284 39 l 1,32,33
 285 12 285 12 272 1 c 128,-1,34
 259 -10 259 -10 242 -10 c 0,35,36
 199 -9 199 -9 199 41 c 2,37,-1
 199 370 l 1,38,-1
 152 370 l 2,39,40
 136 370 136 370 128 381 c 0,41,42
 119 396 119 396 119 412 c 256,43,44
 119 428 119 428 128 442 c 0,45,46
 135 457 135 457 152 457 c 2,47,-1
 199 457 l 1,48,49
 200 489 200 489 200.5 506 c 128,-1,50
 201 523 201 523 201 526 c 0,51,52
 201 568 201 568 210 598 c 128,-1,53
 219 628 219 628 244 652 c 0,54,55
 268 675 268 675 314 676 c 0,56,57
 375 678 375 678 417 660 c 0,58,59
 478 634 478 634 479 601 c 0,0,1
EndSplineSet
Validated: 33
EndChar

StartChar: g
Encoding: 103 103 74
Width: 600
GlyphClass: 2
Flags: W
LayerCount: 2
Fore
SplineSet
434 200 m 2,0,1
 434 200 434 200 434 338 c 1,2,3
 373 388 373 388 299 388 c 0,4,5
 172 388 172 388 172 235 c 0,6,7
 172 84 172 84 289 84 c 0,8,9
 342 84 342 84 386 114 c 0,10,11
 434 148 434 148 434 200 c 2,0,1
520 200 m 2,12,-1
 520 23 l 2,13,14
 520 -78 520 -78 454.5 -146.5 c 128,-1,15
 389 -215 389 -215 290 -216 c 0,16,17
 236 -213 236 -213 172 -208 c 1,18,19
 113 -197 113 -197 84 -179 c 128,-1,20
 55 -161 55 -161 68 -126 c 0,21,22
 80 -95 80 -95 112 -98.5 c 128,-1,23
 144 -102 144 -102 172 -115 c 1,24,25
 231 -126 231 -126 270 -126 c 0,26,27
 355 -126 355 -126 399 -75 c 0,28,29
 439 -26 439 -26 434 49 c 1,30,31
 365 0 365 0 282 0 c 0,32,33
 225 0 225 0 173 34 c 0,34,35
 123 68 123 68 100 123 c 0,36,37
 80 174 80 174 80 240 c 0,38,39
 80 341 80 341 136 409 c 0,40,41
 195 480 195 480 292 480 c 0,42,43
 369 480 369 480 434 434 c 1,44,45
 432 479 432 479 478 479 c 0,46,47
 518 479 518 479 519 436 c 0,48,49
 520 377 520 377 520 318 c 0,50,51
 520 260 520 260 520 200 c 2,12,-1
EndSplineSet
Validated: 33
EndChar

StartChar: h
Encoding: 104 104 75
Width: 600
GlyphClass: 2
Flags: W
LayerCount: 2
Fore
SplineSet
504 328 m 2,0,1
 504 328 504 328 504 31 c 0,2,3
 504 8 504 8 494 1.5 c 128,-1,4
 484 -5 484 -5 463 -5 c 0,5,6
 449 -5 449 -5 433 5.5 c 128,-1,7
 417 16 417 16 417 31 c 2,8,-1
 417 341 l 2,9,10
 417 400 417 400 356 400 c 0,11,12
 290 400 290 400 253 379 c 0,13,14
 235 369 235 369 219 354.5 c 128,-1,15
 203 340 203 340 183 312 c 1,16,-1
 183 23 l 2,17,18
 183 0 183 0 168 -5 c 128,-1,19
 153 -10 153 -10 136 -10 c 0,20,21
 122 -10 122 -10 109 -1 c 128,-1,22
 96 8 96 8 96 23 c 2,23,-1
 96 666 l 2,24,25
 96 684 96 684 109 694 c 128,-1,26
 122 704 122 704 140 704 c 0,27,28
 159 704 159 704 171 696 c 128,-1,29
 183 688 183 688 183 671 c 2,30,-1
 183 426 l 1,31,32
 222 453 222 453 260 469 c 128,-1,33
 298 485 298 485 346 485 c 0,34,35
 422 485 422 485 463 446 c 128,-1,36
 504 407 504 407 504 328 c 2,0,1
EndSplineSet
Validated: 1
EndChar

StartChar: i
Encoding: 105 105 76
Width: 600
GlyphClass: 2
Flags: W
LayerCount: 2
Fore
SplineSet
356 608 m 0,0,1
 356 547 356 547 296 547 c 0,2,3
 271 547 271 547 252.5 565.5 c 128,-1,4
 234 584 234 584 234 608 c 0,5,6
 234 633 234 633 252.5 651 c 128,-1,7
 271 669 271 669 296 669 c 0,8,9
 320 669 320 669 338 651 c 128,-1,10
 356 633 356 633 356 608 c 0,0,1
362 12 m 1,11,-1
 361 14 l 1,12,13
 361 -9 361 -9 319 -9 c 0,14,15
 275 -9 275 -9 275 16 c 2,16,-1
 275 384 l 1,17,-1
 181 384 l 2,18,19
 146 384 146 384 146 421 c 0,20,21
 146 443 146 443 155.5 457 c 128,-1,22
 165 471 165 471 181 471 c 2,23,-1
 304 471 l 2,24,25
 342 471 342 471 352 460 c 128,-1,26
 362 449 362 449 362 430 c 2,27,-1
 362 12 l 1,11,-1
EndSplineSet
Validated: 1
EndChar

StartChar: j
Encoding: 106 106 77
Width: 600
GlyphClass: 2
Flags: W
LayerCount: 2
Fore
SplineSet
424 615 m 256,0,1
 424 588 424 588 405.5 572 c 128,-1,2
 387 556 387 556 360 556 c 0,3,4
 336 556 336 556 319 573.5 c 128,-1,5
 302 591 302 591 302 615 c 0,6,7
 302 638 302 638 319.5 657 c 128,-1,8
 337 676 337 676 360 676 c 0,9,10
 387 676 387 676 405.5 659 c 128,-1,11
 424 642 424 642 424 615 c 256,0,1
431 3 m 2,12,13
 431 -190 431 -190 210 -190 c 0,14,15
 122 -190 122 -190 122 -141 c 0,16,17
 122 -111 122 -111 147 -104 c 0,18,19
 152 -103 152 -103 164 -102.5 c 128,-1,20
 176 -102 176 -102 196 -102 c 0,21,22
 343 -102 343 -102 343 -2 c 2,23,-1
 343 389 l 1,24,-1
 235 389 l 2,25,26
 193 389 193 389 192 431 c 0,27,28
 190 476 190 476 235 476 c 2,29,-1
 431 476 l 1,30,-1
 431 3 l 2,12,13
EndSplineSet
Validated: 33
EndChar

StartChar: k
Encoding: 107 107 78
Width: 600
GlyphClass: 2
Flags: W
LayerCount: 2
Fore
SplineSet
509 44 m 0,0,1
 499 -9 499 -9 455 -9 c 0,2,3
 438 -9 438 -9 427 5 c 2,4,-1
 250 234 l 1,5,-1
 219 190 l 1,6,-1
 219 37 l 2,7,8
 220 12 220 12 207 1 c 128,-1,9
 194 -10 194 -10 177 -10 c 0,10,11
 133 -10 133 -10 133 29 c 2,12,-1
 133 653 l 2,13,14
 133 670 133 670 147 679 c 128,-1,15
 161 688 161 688 177 688 c 0,16,17
 183 688 183 688 190.5 684 c 128,-1,18
 198 680 198 680 204.5 673.5 c 128,-1,19
 211 667 211 667 215.5 659.5 c 128,-1,20
 220 652 220 652 219 643 c 2,21,-1
 219 324 l 1,22,-1
 381 471 l 1,23,24
 419 497 419 497 446 497 c 0,25,26
 462 497 462 497 472.5 483 c 128,-1,27
 483 469 483 469 483 453 c 0,28,29
 483 436 483 436 329 295 c 1,30,-1
 490 89 l 2,31,32
 509 64 509 64 509 44 c 0,0,1
EndSplineSet
Validated: 33
EndChar

StartChar: l
Encoding: 108 108 79
Width: 600
GlyphClass: 2
Flags: W
HStem: -13 86<318.553 422.171> 666 20G<239 282>
VStem: 218 86<163.244 683.444>
LayerCount: 2
Fore
SplineSet
218 657 m 0,0,1
 218 686 218 686 260 686 c 0,2,3
 304 686 304 686 304 657 c 2,4,-1
 304 172 l 2,5,6
 304 73 304 73 350.5 73 c 128,-1,7
 397 73 397 73 398 73 c 0,8,9
 412 73 412 73 422.5 62 c 128,-1,10
 433 51 433 51 432 31 c 0,11,12
 430 -13 430 -13 391 -13 c 2,13,-1
 356 -13 l 2,14,15
 295 -13 295 -13 258 25 c 0,16,17
 218 61 218 61 218 165 c 1,18,19
 218 104 218 104 218 657 c 0,0,1
EndSplineSet
Validated: 33
EndChar

StartChar: m
Encoding: 109 109 80
Width: 600
GlyphClass: 2
Flags: W
HStem: 396 86<144.328 238.62>
VStem: 32 86<-5.52368 368.897> 254 87<-3.84668 366.889> 465 87<-5.2373 369.5>
LayerCount: 2
Fore
SplineSet
552 290 m 2,0,1
 552 290 552 290 552 13 c 0,2,3
 552 -7 552 -7 508 -7 c 0,4,5
 465 -7 465 -7 465 13 c 2,6,-1
 466 277 l 2,7,8
 466 329 466 329 459 347 c 0,9,10
 446 384 446 384 400 381 c 0,11,12
 341 377 341 377 341 301 c 2,13,-1
 341 13 l 2,14,15
 341 -6 341 -6 293 -6 c 0,16,17
 254 -6 254 -6 254 14 c 2,18,-1
 254 336 l 2,19,20
 254 364 254 364 232 380 c 0,21,22
 213 396 213 396 186 396 c 0,23,24
 155 396 155 396 136 363 c 0,25,26
 118 334 118 334 118 303 c 2,27,-1
 119 15 l 2,28,29
 119 -8 119 -8 77 -8 c 256,30,31
 35 -8 35 -8 33 15 c 0,32,33
 32 76 32 76 32 105 c 0,34,35
 32 135 32 135 31.5 147 c 128,-1,36
 31 159 31 159 31 160 c 0,37,38
 31 162 31 162 31.5 167.5 c 128,-1,39
 32 173 32 173 32 189 c 0,40,41
 32 206 32 206 32 247 c 2,42,-1
 32 421 l 2,43,44
 32 459 32 459 45.5 475 c 128,-1,45
 59 491 59 491 85 491 c 0,46,47
 105 491 105 491 113 473 c 0,48,49
 116 464 116 464 119 455 c 128,-1,50
 122 446 122 446 125 438 c 1,51,-1
 127 439 l 1,52,53
 154 482 154 482 197 482 c 0,54,55
 236 482 236 482 256 469 c 0,56,57
 262 465 262 465 298 431 c 1,58,59
 311 454 311 454 347 468 c 0,60,61
 380 479 380 479 410 479 c 0,62,63
 474 479 474 479 510 441 c 1,64,65
 532 400 532 400 542 382 c 128,-1,66
 552 364 552 364 552 290 c 2,0,1
EndSplineSet
Validated: 33
EndChar

StartChar: n
Encoding: 110 110 81
Width: 600
GlyphClass: 2
Flags: W
LayerCount: 2
Fore
SplineSet
461 -8 m 0,0,1
 416 -8 416 -8 416 24 c 2,2,-1
 416 309 l 2,3,4
 416 356 416 356 398 376 c 0,5,6
 379 398 379 398 333 398 c 0,7,8
 282 398 282 398 233 358 c 0,9,10
 182 317 182 317 182 267 c 2,11,-1
 182 28 l 2,12,13
 183 -10 183 -10 140 -10 c 0,14,15
 124 -10 124 -10 109.5 1.5 c 128,-1,16
 95 13 95 13 95 29 c 2,17,-1
 95 440 l 2,18,19
 95 457 95 457 113 471 c 0,20,21
 129 483 129 483 147 483 c 0,22,23
 169 483 169 483 179 461 c 0,24,25
 182 451 182 451 185 441 c 128,-1,26
 188 431 188 431 192 421 c 1,27,-1
 192 422 l 1,28,29
 205 440 205 440 255 461 c 0,30,31
 304 481 304 481 327 481 c 0,32,33
 422 481 422 481 466 433 c 0,34,35
 505 389 505 389 505 291 c 2,36,-1
 505 24 l 2,37,38
 505 -8 505 -8 461 -8 c 0,0,1
EndSplineSet
Validated: 33
EndChar

StartChar: o
Encoding: 111 111 82
Width: 600
GlyphClass: 2
Flags: W
LayerCount: 2
Fore
SplineSet
528 234 m 0,0,1
 528 121 528 121 475 56 c 0,2,3
 417 -11 417 -11 305 -11 c 256,4,5
 193 -11 193 -11 131 57 c 0,6,7
 72 124 72 124 72 237 c 0,8,9
 72 347 72 347 128 414 c 0,10,11
 188 484 188 484 297 484 c 0,12,13
 410 484 410 484 472 415 c 0,14,15
 528 350 528 350 528 234 c 0,0,1
436 233 m 0,16,17
 436 299 436 299 400 344 c 0,18,19
 361 393 361 393 296 393 c 0,20,21
 233 393 233 393 196 345 c 0,22,23
 162 302 162 302 162 237 c 0,24,25
 162 169 162 169 204 124 c 0,26,27
 248 80 248 80 314 80 c 0,28,29
 372 80 372 80 406 129 c 0,30,31
 436 172 436 172 436 233 c 0,16,17
EndSplineSet
Validated: 1
EndChar

StartChar: p
Encoding: 112 112 83
Width: 600
GlyphClass: 2
Flags: W
LayerCount: 2
Fore
SplineSet
188 427 m 1,0,1
 216 453 216 453 241 465 c 128,-1,2
 266 477 266 477 293 480 c 0,3,4
 375 489 375 489 425 469 c 0,5,6
 510 435 510 435 521 330 c 0,7,8
 526 292 526 292 527 238 c 0,9,10
 530 178 530 178 510 122.5 c 128,-1,11
 490 67 490 67 445 30 c 0,12,13
 392 -12 392 -12 324 -12 c 0,14,15
 265 -12 265 -12 186 28 c 1,16,-1
 187 -201 l 2,17,18
 187 -235 187 -235 145 -235 c 0,19,20
 129 -235 129 -235 116 -226 c 0,21,22
 101 -219 101 -219 101 -203 c 2,23,-1
 101 462 l 2,24,25
 101 496 101 496 144 493 c 0,26,27
 188 489 188 489 187 461 c 2,28,-1
 188 427 l 1,0,1
297 388 m 0,29,30
 269 382 269 382 241 362 c 0,31,32
 225 351 225 351 211.5 340 c 128,-1,33
 198 329 198 329 187 318 c 1,34,-1
 187 125 l 1,35,36
 259 85 259 85 305 81 c 0,37,38
 400 70 400 70 431 148 c 0,39,40
 445 183 445 183 446 233 c 0,41,42
 448 327 448 327 421 361 c 0,43,44
 405 383 405 383 375 391 c 0,45,46
 345 398 345 398 297 388 c 0,29,30
EndSplineSet
Validated: 33
EndChar

StartChar: q
Encoding: 113 113 84
Width: 600
GlyphClass: 2
Flags: W
LayerCount: 2
Fore
SplineSet
423 427 m 1,0,-1
 424 461 l 2,1,2
 423 489 423 489 467 493 c 0,3,4
 510 496 510 496 510 462 c 2,5,-1
 510 -203 l 2,6,7
 510 -219 510 -219 495 -226 c 0,8,9
 482 -235 482 -235 466 -235 c 0,10,11
 424 -235 424 -235 424 -201 c 2,12,-1
 425 28 l 1,13,14
 346 -12 346 -12 287 -12 c 0,15,16
 219 -12 219 -12 166 30 c 0,17,18
 121 67 121 67 99 122.5 c 128,-1,19
 77 178 77 178 80 238 c 0,20,21
 81 292 81 292 86 330 c 0,22,23
 101 435 101 435 186 469 c 0,24,25
 236 489 236 489 318 480 c 0,26,27
 345 477 345 477 370 465 c 128,-1,28
 395 453 395 453 423 427 c 1,0,-1
314 388 m 0,29,30
 266 398 266 398 236 391 c 0,31,32
 206 383 206 383 190 361 c 0,33,34
 163 327 163 327 165 233 c 0,35,36
 166 183 166 183 180 148 c 0,37,38
 211 70 211 70 306 81 c 0,39,40
 352 85 352 85 424 125 c 1,41,-1
 424 318 l 1,42,43
 413 329 413 329 399.5 340 c 128,-1,44
 386 351 386 351 370 362 c 0,45,46
 342 382 342 382 314 388 c 0,29,30
EndSplineSet
Validated: 33
EndChar

StartChar: r
Encoding: 114 114 85
Width: 600
GlyphClass: 2
Flags: W
LayerCount: 2
Fore
SplineSet
517 405 m 0,0,1
 517 368 517 368 496 364 c 1,2,3
 427 389 427 389 393 389 c 0,4,5
 291 389 291 389 214 300 c 1,6,-1
 214 22 l 2,7,8
 214 -9 214 -9 172 -9 c 0,9,10
 128 -9 128 -9 128 22 c 2,11,-1
 128 432 l 2,12,13
 128 479 128 479 169 479 c 0,14,15
 192 479 192 479 202 469 c 0,16,17
 211 460 211 460 212 450 c 0,18,19
 213 437 213 437 215 419 c 1,20,21
 294 479 294 479 388 479 c 0,22,23
 434 479 434 479 469 464 c 0,24,25
 517 444 517 444 517 405 c 0,0,1
EndSplineSet
Validated: 1
EndChar

StartChar: s
Encoding: 115 115 86
Width: 600
GlyphClass: 2
Flags: W
LayerCount: 2
Fore
SplineSet
481 132 m 0,0,1
 481 67 481 67 420 27 c 0,2,3
 368 -7 368 -7 299 -7 c 0,4,5
 248 -7 248 -7 191 10 c 0,6,7
 118 35 118 35 118 76 c 0,8,9
 118 92 118 92 130.5 104.5 c 128,-1,10
 143 117 143 117 159 117 c 0,11,12
 166 117 166 117 218 97 c 128,-1,13
 270 77 270 77 303 77 c 256,14,15
 336 77 336 77 362 90 c 0,16,17
 395 106 395 106 395 137 c 0,18,19
 395 176 395 176 346 191 c 0,20,21
 320 196 320 196 294 201 c 128,-1,22
 268 206 268 206 242 211 c 0,23,24
 176 228 176 228 149 263 c 0,25,26
 121 300 121 300 121 342 c 0,27,28
 121 404 121 404 175 442 c 0,29,30
 223 478 223 478 288 478 c 0,31,32
 337 478 337 478 390 463 c 0,33,34
 462 443 462 443 462 409 c 0,35,36
 462 395 462 395 454 382 c 0,37,38
 445 369 445 369 431 369 c 0,39,40
 409 369 409 369 364 384 c 0,41,42
 320 399 320 399 295 399 c 0,43,44
 260 399 260 399 233 388 c 0,45,46
 199 372 199 372 199 340 c 0,47,48
 199 303 199 303 257 290 c 0,49,50
 286 282 286 282 316 275 c 128,-1,51
 346 268 346 268 376 261 c 0,52,53
 447 236 447 236 473 172 c 0,54,55
 481 151 481 151 481 132 c 0,0,1
EndSplineSet
Validated: 1
EndChar

StartChar: t
Encoding: 116 116 87
Width: 600
GlyphClass: 2
Flags: W
HStem: -11 78<303.369 414.908> 384 86<119.236 200 288 426.718> 661 20G<234 265>
VStem: 201 87<82.4805 384 470 676.146>
LayerCount: 2
Fore
SplineSet
200 646 m 2,0,1
 200 663 200 663 213.5 672 c 128,-1,2
 227 681 227 681 241 681 c 2,3,-1
 243 681 l 2,4,5
 287 679 287 679 287 641 c 2,6,-1
 287 470 l 1,7,-1
 407 470 l 2,8,9
 438 468 438 468 438 435 c 0,10,11
 435 410 435 410 427 396 c 0,12,13
 418 384 418 384 404 384 c 2,14,-1
 288 384 l 1,15,-1
 288 170 l 2,16,17
 288 114 288 114 299 94 c 0,18,19
 314 67 314 67 360 67 c 0,20,21
 396 68 396 68 407 75 c 2,22,-1
 436 99 l 2,23,24
 443 103 443 103 451 103 c 0,25,26
 458 103 458 103 463 100 c 0,27,28
 471 95 471 95 477.5 83 c 128,-1,29
 484 71 484 71 484 56 c 2,30,-1
 483 48 l 2,31,32
 480 32 480 32 465 22 c 0,33,34
 435 2 435 2 412 -4.5 c 128,-1,35
 389 -11 389 -11 358 -11 c 0,36,37
 266 -10 266 -10 234 34 c 0,38,39
 201 80 201 80 201 169 c 2,40,-1
 201 384 l 1,41,-1
 138 384 l 2,42,43
 127 384 127 384 123 396 c 0,44,45
 116 410 116 410 116 431 c 0,46,47
 116 443 116 443 122 455 c 0,48,49
 126 470 126 470 141 470 c 2,50,-1
 200 470 l 1,51,-1
 200 646 l 2,0,1
EndSplineSet
Validated: 1
EndChar

StartChar: u
Encoding: 117 117 88
Width: 600
GlyphClass: 2
Flags: W
LayerCount: 2
Fore
SplineSet
506 31 m 2,0,1
 506 4 506 4 500 -3 c 0,2,3
 493 -13 493 -13 466 -13 c 0,4,5
 448 -13 448 -13 434 1 c 0,6,7
 421 15 421 15 418 34 c 1,8,9
 370 -8 370 -8 256 -8 c 0,10,11
 161 -8 161 -8 124 56 c 0,12,13
 94 105 94 105 94 207 c 2,14,-1
 94 443 l 2,15,16
 94 460 94 460 108 472.5 c 128,-1,17
 122 485 122 485 139 485 c 0,18,19
 181 485 181 485 181 451 c 2,20,-1
 182 204 l 2,21,22
 184 133 184 133 199 109 c 0,23,24
 221 78 221 78 287 78 c 0,25,26
 317 78 317 78 365 95 c 0,27,28
 420 116 420 116 420 140 c 2,29,-1
 420 450 l 2,30,31
 420 464 420 464 438 475 c 0,32,33
 454 483 454 483 469 483 c 0,34,35
 505 483 505 483 505 447 c 2,36,-1
 505 303 l 2,37,38
 506 254 506 254 506 218 c 0,39,40
 506 183 506 183 506 160 c 2,41,-1
 506 31 l 2,0,1
EndSplineSet
Validated: 1
EndChar

StartChar: v
Encoding: 118 118 89
Width: 600
GlyphClass: 2
Flags: W
LayerCount: 2
Fore
SplineSet
502 455 m 0,0,1
 502 438 502 438 422 233 c 0,2,3
 387 136 387 136 364 83 c 128,-1,4
 341 30 341 30 331 10 c 0,5,6
 321 -12 321 -12 299 -12 c 0,7,8
 273 -12 273 -12 260 12 c 0,9,10
 247 34 247 34 172 233 c 0,11,12
 97 441 97 441 97 452 c 0,13,14
 97 485 97 485 154 485 c 0,15,16
 187 485 187 485 199 456 c 2,17,-1
 297 180 l 1,18,-1
 399 453 l 2,19,20
 409 486 409 486 458 486 c 0,21,22
 502 486 502 486 502 455 c 0,0,1
EndSplineSet
Validated: 1
EndChar

StartChar: w
Encoding: 119 119 90
Width: 600
GlyphClass: 2
Flags: W
LayerCount: 2
Fore
SplineSet
534 451 m 0,0,1
 534 431 534 431 489 230 c 0,2,3
 445 29 445 29 435 5 c 0,4,5
 427 -13 427 -13 415 -13 c 0,6,7
 397 -13 397 -13 389 1 c 2,8,-1
 302 144 l 1,9,-1
 225 0 l 2,10,11
 221 -10 221 -10 204 -10 c 0,12,13
 189 -10 189 -10 180 9 c 0,14,15
 170 30 170 30 118 230 c 0,16,17
 65 434 65 434 65 445 c 0,18,19
 65 463 65 463 85 476 c 128,-1,20
 105 489 105 489 123 489 c 0,21,22
 140 489 140 489 146 470 c 128,-1,23
 152 451 152 451 154 443 c 2,24,-1
 220 179 l 1,25,-1
 303 294 l 1,26,-1
 385 171 l 1,27,-1
 449 454 l 2,28,29
 456 485 456 485 475 485 c 0,30,31
 490 485 490 485 512 475.5 c 128,-1,32
 534 466 534 466 534 451 c 0,0,1
EndSplineSet
Validated: 1
EndChar

StartChar: x
Encoding: 120 120 91
Width: 600
GlyphClass: 2
Flags: W
LayerCount: 2
Fore
SplineSet
477 71 m 2,0,1
 514 26 514 26 464 -6 c 1,2,3
 422 -6 422 -6 403 22 c 2,4,-1
 300 166 l 1,5,-1
 194 15 l 2,6,7
 175 -7 175 -7 143 -7 c 0,8,9
 89 -9 89 -9 101 33 c 1,10,-1
 248 238 l 1,11,-1
 89 443 l 1,12,13
 105 497 105 497 172 471 c 1,14,-1
 300 311 l 1,15,-1
 404 466 l 2,16,17
 415 483 415 483 439 483 c 0,18,19
 464 483 464 483 478 473 c 128,-1,20
 492 463 492 463 492 451 c 0,21,22
 492 436 492 436 351 240 c 1,23,-1
 477 71 l 2,0,1
EndSplineSet
Validated: 33
EndChar

StartChar: y
Encoding: 121 121 92
Width: 600
GlyphClass: 2
Flags: W
LayerCount: 2
Fore
SplineSet
498 454 m 0,0,1
 498 449 498 449 445 311 c 2,2,-1
 322 -11 l 2,3,4
 314 -34 314 -34 306.5 -53.5 c 128,-1,5
 299 -73 299 -73 278 -121 c 128,-1,6
 257 -169 257 -169 237 -172 c 0,7,8
 229 -173 229 -173 220 -170 c 128,-1,9
 211 -167 211 -167 197 -159.5 c 128,-1,10
 183 -152 183 -152 178 -144 c 128,-1,11
 173 -136 173 -136 173 -127 c 0,12,13
 173 -115 173 -115 249 73 c 1,14,15
 102 448 102 448 102 464 c 0,16,17
 102 481 102 481 144 481 c 0,18,19
 196 481 196 481 207 454 c 2,20,-1
 304 193 l 1,21,-1
 397 452 l 2,22,23
 407 479 407 479 444 479 c 0,24,25
 498 479 498 479 498 454 c 0,0,1
EndSplineSet
Validated: 1
EndChar

StartChar: z
Encoding: 122 122 93
Width: 600
GlyphClass: 2
Flags: W
LayerCount: 2
Fore
SplineSet
424 474 m 2,0,1
 448 474 448 474 456 457 c 0,2,3
 464 442 464 442 450 422 c 2,4,-1
 245 88 l 1,5,-1
 450 88 l 2,6,7
 489 88 489 88 488.5 44.5 c 128,-1,8
 488 1 488 1 453 0 c 2,9,-1
 133 0 l 2,10,11
 119 0 119 0 117 22.5 c 128,-1,12
 115 45 115 45 129 65 c 2,13,-1
 330 387 l 1,14,-1
 167 387 l 2,15,16
 152 387 152 387 144.5 400.5 c 128,-1,17
 137 414 137 414 138 430 c 0,18,19
 137 447 137 447 145 461 c 128,-1,20
 153 475 153 475 169 475 c 2,21,-1
 424 474 l 2,0,1
EndSplineSet
Validated: 33
EndChar

StartChar: braceleft
Encoding: 123 123 94
Width: 600
GlyphClass: 2
Flags: W
LayerCount: 2
Fore
SplineSet
470 -92 m 0,0,1
 470 -132 470 -132 431 -132 c 0,2,3
 384 -132 384 -132 345 -108 c 0,4,5
 293 -77 293 -77 276 -14 c 0,6,7
 266 21 266 21 269 104 c 1,8,9
 262 182 262 182 248 221 c 0,10,11
 233 263 233 263 201 277 c 0,12,13
 188 279 188 279 176 282 c 128,-1,14
 164 285 164 285 151 288 c 0,15,16
 129 294 129 294 129 320 c 0,17,18
 129 347 129 347 152 353 c 0,19,20
 165 355 165 355 177 358 c 128,-1,21
 189 361 189 361 202 364 c 0,22,23
 234 378 234 378 250 422 c 0,24,25
 257 441 257 441 262 477.5 c 128,-1,26
 267 514 267 514 269 568 c 0,27,28
 273 663 273 663 297 704 c 0,29,30
 332 763 332 763 429 763 c 0,31,32
 462 763 462 763 462 719 c 0,33,34
 462 692 462 692 431 682 c 0,35,36
 384 666 384 666 380 662 c 0,37,38
 350 639 350 639 344 578 c 0,39,40
 343 570 343 570 342.5 546.5 c 128,-1,41
 342 523 342 523 342 483 c 0,42,43
 342 423 342 423 332 393 c 0,44,45
 315 346 315 346 272 328 c 1,46,47
 322 311 322 311 337 247 c 0,48,49
 347 211 347 211 342 114 c 1,50,51
 350 36 350 36 362 8 c 0,52,53
 376 -25 376 -25 406 -39 c 0,54,55
 417 -43 417 -43 428 -46.5 c 128,-1,56
 439 -50 439 -50 450 -54 c 0,57,58
 470 -63 470 -63 470 -92 c 0,0,1
EndSplineSet
Validated: 33
EndChar

StartChar: bar
Encoding: 124 124 95
Width: 600
GlyphClass: 2
Flags: W
LayerCount: 2
Fore
SplineSet
343 -78 m 2,0,1
 343 -113 343 -113 296 -113 c 0,2,3
 256 -113 256 -113 256 -80 c 2,4,-1
 256 715 l 2,5,6
 256 754 256 754 302 754 c 0,7,8
 317 754 317 754 329.5 743.5 c 128,-1,9
 342 733 342 733 343 718 c 2,10,-1
 343 -78 l 2,0,1
EndSplineSet
Validated: 1
EndChar

StartChar: braceright
Encoding: 125 125 96
Width: 600
GlyphClass: 2
Flags: W
LayerCount: 2
Fore
SplineSet
470 320 m 0,0,1
 470 292 470 292 448 288 c 0,2,3
 436 286 436 286 424 283 c 128,-1,4
 412 280 412 280 400 277 c 0,5,6
 368 263 368 263 352 220 c 0,7,8
 338 179 338 179 331 68 c 0,9,10
 326 -28 326 -28 302 -69 c 0,11,12
 266 -132 266 -132 167 -132 c 0,13,14
 130 -132 130 -132 130 -92 c 0,15,16
 130 -65 130 -65 151 -54 c 0,17,18
 162 -50 162 -50 173 -46.5 c 128,-1,19
 184 -43 184 -43 195 -39 c 0,20,21
 224 -25 224 -25 239 8 c 0,22,23
 251 36 251 36 257 119 c 1,24,25
 253 209 253 209 261 246 c 0,26,27
 276 312 276 312 325 328 c 1,28,29
 256 359 256 359 256 491 c 2,30,-1
 256 530 l 2,31,32
 257 543 257 543 257 551 c 0,33,34
 257 560 257 560 257 565 c 0,35,36
 257 631 257 631 226 656 c 0,37,38
 217 663 217 663 169 683 c 0,39,40
 138 693 138 693 138 723 c 0,41,42
 138 763 138 763 176 763 c 0,43,44
 271 763 271 763 305 702 c 0,45,46
 326 666 326 666 331 565 c 0,47,48
 337 461 337 461 351 422 c 0,49,50
 367 378 367 378 400 364 c 0,51,52
 412 361 412 361 424 358 c 128,-1,53
 436 355 436 355 448 353 c 0,54,55
 470 347 470 347 470 320 c 0,0,1
EndSplineSet
Validated: 33
EndChar

StartChar: FL007Eh
Encoding: 126 126 97
Width: 600
GlyphClass: 2
Flags: W
LayerCount: 2
Fore
SplineSet
542 366 m 0,0,1
 542 355 542 355 534 334 c 0,2,3
 511 284 511 284 476 266 c 0,4,5
 447 250 447 250 388 250 c 0,6,7
 348 250 348 250 276 275 c 0,8,9
 201 301 201 301 164 301 c 0,10,11
 143 301 143 301 123 281 c 128,-1,12
 103 261 103 261 97 261 c 0,13,14
 80 261 80 261 68 280 c 0,15,16
 57 297 57 297 57 314 c 0,17,18
 57 348 57 348 98 375 c 0,19,20
 136 401 136 401 172 401 c 0,21,22
 210 401 210 401 275 373 c 0,23,24
 341 345 341 345 379 345 c 0,25,26
 422 345 422 345 448 362 c 0,27,28
 453 366 453 366 460 374.5 c 128,-1,29
 467 383 467 383 478 396 c 0,30,31
 491 414 491 414 509 414 c 0,32,33
 525 414 525 414 534 396 c 0,34,35
 542 382 542 382 542 366 c 0,0,1
EndSplineSet
Validated: 1
EndChar

StartChar: FL007Fh
Encoding: 127 127 98
Width: 600
GlyphClass: 2
Flags: W
LayerCount: 2
Fore
SplineSet
103 0 m 1,0,-1
 496 0 l 1,1,-1
 496 346 l 1,2,-1
 297 583 l 1,3,-1
 103 348 l 1,4,-1
 103 0 l 1,0,-1
64 -87 m 2,5,6
 40 -87 40 -87 28 -71.5 c 128,-1,7
 16 -56 16 -56 16 -31 c 2,8,-1
 17 387 l 1,9,-1
 258 670 l 2,10,11
 280 696 280 696 302 695 c 0,12,13
 322 695 322 695 343 670 c 2,14,-1
 583 387 l 1,15,-1
 584 -31 l 2,16,17
 584 -61 584 -61 572 -74 c 128,-1,18
 560 -87 560 -87 530 -87 c 2,19,-1
 64 -87 l 2,5,6
EndSplineSet
Validated: 33
EndChar

StartChar: FL00A1h
Encoding: 161 161 100
Width: 600
GlyphClass: 2
Flags: W
LayerCount: 2
Fore
SplineSet
337 458 m 2,0,-1
 337 2 l 2,1,2
 337 -15 337 -15 324.5 -26.5 c 128,-1,3
 312 -38 312 -38 294 -38 c 0,4,5
 275 -38 275 -38 263 -25.5 c 128,-1,6
 251 -13 251 -13 251 4 c 2,7,-1
 251 455 l 2,8,9
 251 473 251 473 264 485.5 c 128,-1,10
 277 498 277 498 294 498 c 0,11,12
 310 498 310 498 323.5 486.5 c 128,-1,13
 337 475 337 475 337 458 c 2,0,-1
369 679 m 0,14,15
 372 622 372 622 354.5 608 c 128,-1,16
 337 594 337 594 295 594 c 0,17,18
 251 594 251 594 240.5 611 c 128,-1,19
 230 628 230 628 227 688 c 0,20,21
 227 736 227 736 231.5 752 c 128,-1,22
 236 768 236 768 296 767 c 0,23,24
 355 768 355 768 362 750.5 c 128,-1,25
 369 733 369 733 369 679 c 0,14,15
EndSplineSet
Validated: 33
EndChar

StartChar: cent
Encoding: 162 162 101
Width: 600
GlyphClass: 2
Flags: W
LayerCount: 2
Fore
SplineSet
279 88 m 1,0,1
 279 88 279 88 279 389 c 1,2,3
 234 374 234 374 208 335 c 128,-1,4
 182 296 182 296 182 250 c 0,5,6
 182 118 182 118 279 88 c 1,0,1
364 475 m 0,7,8
 409 465 409 465 447 442 c 0,9,10
 498 413 498 413 498 377 c 0,11,12
 498 363 498 363 482 354 c 0,13,14
 467 345 467 345 452 345 c 0,15,16
 441 345 441 345 410 364 c 0,17,18
 390 375 390 375 378.5 381.5 c 128,-1,19
 367 388 367 388 364 389 c 1,20,-1
 364 83 l 1,21,22
 401 89 401 89 435 118 c 0,23,24
 467 144 467 144 472 144 c 0,25,26
 484 144 484 144 495 127 c 0,27,28
 504 112 504 112 504 97 c 0,29,30
 504 86 504 86 494 69 c 0,31,32
 473 28 473 28 441 13 c 0,33,34
 417 -1 417 -1 363 -5 c 1,35,36
 363 -13 363 -13 364.5 -30 c 128,-1,37
 366 -47 366 -47 366 -55 c 0,38,39
 366 -113 366 -113 318 -113 c 0,40,41
 276 -113 276 -113 276 -55 c 0,42,43
 276 -45 276 -45 277.5 -27 c 128,-1,44
 279 -9 279 -9 279 -2 c 1,45,46
 185 11 185 11 138 81 c 0,47,48
 95 143 95 143 95 242 c 0,49,50
 95 336 95 336 140 398 c 0,51,52
 188 464 188 464 279 477 c 1,53,54
 279 484 279 484 278 500.5 c 128,-1,55
 277 517 277 517 277 525 c 0,56,57
 277 583 277 583 325 583 c 0,58,59
 366 583 366 583 366 521 c 0,60,61
 366 512 366 512 365 495.5 c 128,-1,62
 364 479 364 479 364 475 c 0,7,8
EndSplineSet
Validated: 1
EndChar

StartChar: sterling
Encoding: 163 163 102
Width: 600
GlyphClass: 2
Flags: W
LayerCount: 2
Fore
SplineSet
545 67 m 0,0,1
 545 46 545 46 500 10 c 1,2,3
 462 -2 462 -2 438 -2 c 0,4,5
 399 -2 399 -2 355 23 c 0,6,7
 336 34 336 34 317 46 c 128,-1,8
 298 58 298 58 279 70 c 1,9,10
 270 42 270 42 234 18 c 0,11,12
 197 -5 197 -5 167 -5 c 0,13,14
 121 -5 121 -5 87 28 c 0,15,16
 54 61 54 61 54 107 c 0,17,18
 54 146 54 146 81 175 c 0,19,20
 109 205 109 205 147 205 c 0,21,22
 177 205 177 205 219 186 c 1,23,24
 219 233 219 233 205 291 c 1,25,-1
 169 290 l 2,26,27
 118 288 118 288 118 337 c 0,28,29
 118 368 118 368 144 376 c 0,30,31
 149 377 149 377 161.5 377.5 c 128,-1,32
 174 378 174 378 195 378 c 1,33,34
 183 475 183 475 183 498 c 0,35,36
 183 667 183 667 339 667 c 0,37,38
 384 667 384 667 429 640 c 0,39,40
 522 583 522 583 522 555 c 0,41,42
 522 539 522 539 510 522.5 c 128,-1,43
 498 506 498 506 482 506 c 0,44,45
 472 506 472 506 425 544 c 128,-1,46
 378 582 378 582 343 582 c 256,47,48
 308 582 308 582 288.5 558.5 c 128,-1,49
 269 535 269 535 269 499 c 0,50,51
 269 471 269 471 284 378 c 1,52,-1
 395 378 l 2,53,54
 410 378 410 378 420 362 c 0,55,56
 430 349 430 349 430 333 c 0,57,58
 430 291 430 291 394 291 c 2,59,-1
 295 291 l 1,60,61
 307 246 307 246 307 214 c 0,62,63
 307 183 307 183 300 151 c 1,64,65
 315 140 315 140 330 128 c 128,-1,66
 345 116 345 116 360 105 c 0,67,68
 396 78 396 78 427 78 c 0,69,70
 452 78 452 78 472.5 88 c 128,-1,71
 493 98 493 98 514 108 c 1,72,73
 545 99 545 99 545 67 c 0,0,1
207 109 m 1,74,75
 182 129 182 129 160 129 c 0,76,77
 151 129 151 129 142.5 119 c 128,-1,78
 134 109 134 109 134 100 c 0,79,80
 134 88 134 88 143.5 79 c 128,-1,81
 153 70 153 70 164 70 c 0,82,83
 201 70 201 70 207 109 c 1,74,75
EndSplineSet
Validated: 33
EndChar

StartChar: FL00A4h
Encoding: 164 164 103
Width: 600
GlyphClass: 2
Flags: W
LayerCount: 2
Fore
SplineSet
302 357 m 0,0,1
 285 357 285 357 270 350 c 128,-1,2
 255 343 255 343 243.5 331 c 128,-1,3
 232 319 232 319 225 303 c 128,-1,4
 218 287 218 287 218 269 c 0,5,6
 218 229 218 229 240.5 205 c 128,-1,7
 263 181 263 181 302 181 c 256,8,9
 341 181 341 181 360.5 205 c 128,-1,10
 380 229 380 229 381 266 c 0,11,12
 381 303 381 303 360 329 c 0,13,14
 338 357 338 357 302 357 c 0,0,1
221 125 m 1,15,16
 221 125 221 125 207 111 c 0,17,18
 203 106 203 106 195.5 98 c 128,-1,19
 188 90 188 90 177 79 c 0,20,21
 167 71 167 71 155.5 60.5 c 128,-1,22
 144 50 144 50 131 37 c 0,23,24
 125 29 125 29 116 25 c 0,25,26
 108 22 108 22 100 22 c 256,27,28
 92 22 92 22 85 25 c 0,29,30
 66 33 66 33 62 49 c 0,31,32
 57 57 57 57 57 65 c 0,33,34
 57 71 57 71 62 79 c 0,35,36
 64 89 64 89 66 94 c 0,37,38
 68 96 68 96 72.5 100.5 c 128,-1,39
 77 105 77 105 83 112 c 0,40,41
 87 116 87 116 92 121.5 c 128,-1,42
 97 127 97 127 105 134 c 2,43,-1
 164 185 l 1,44,45
 146 219 146 219 143 251 c 0,46,47
 140 276 140 276 147 303 c 0,48,49
 151 332 151 332 171 364 c 0,50,51
 171 365 171 365 135 406 c 0,52,53
 120 423 120 423 115 430 c 0,54,55
 102 447 102 447 102 458 c 0,56,57
 102 465 102 465 108 476 c 0,58,59
 115 498 115 498 130 504 c 0,60,61
 138 508 138 508 145 508 c 0,62,63
 155 508 155 508 187 469 c 0,64,65
 197 456 197 456 206 443 c 128,-1,66
 215 430 215 430 225 417 c 1,67,68
 238 430 238 430 261 435 c 0,69,70
 285 441 285 441 309 440 c 0,71,72
 332 440 332 440 356 433 c 0,73,74
 379 427 379 427 389 417 c 1,75,76
 407 436 407 436 434 459 c 1,77,78
 451 479 451 479 481 506 c 0,79,80
 488 513 488 513 497 513 c 0,81,82
 504 513 504 513 514 508 c 0,83,84
 531 503 531 503 540 485 c 0,85,86
 543 477 543 477 542 470 c 0,87,88
 543 458 543 458 534 438 c 0,89,90
 524 423 524 423 500 401 c 2,91,-1
 443 351 l 1,92,93
 466 313 466 313 469 269 c 0,94,95
 470 226 470 226 433 180 c 1,96,-1
 502 73 l 2,97,98
 514 55 514 55 514 43 c 0,99,100
 514 25 514 25 500 16 c 0,101,102
 492 8 492 8 485 4 c 0,103,104
 476 1 476 1 469 1 c 256,105,106
 462 1 462 1 455 4 c 0,107,108
 452 6 452 6 441.5 17 c 128,-1,109
 431 28 431 28 412 48 c 0,110,111
 405 56 405 56 394 71 c 128,-1,112
 383 86 383 86 368 109 c 1,113,114
 339 83 339 83 300 88 c 0,115,116
 262 92 262 92 221 125 c 1,15,16
EndSplineSet
Validated: 33
EndChar

StartChar: yen
Encoding: 165 165 104
Width: 600
GlyphClass: 2
Flags: W
LayerCount: 2
Fore
SplineSet
485 124 m 0,0,1
 485 81 485 81 451 81 c 2,2,-1
 341 81 l 1,3,4
 341 73 341 73 342 56 c 128,-1,5
 343 39 343 39 343 31 c 0,6,7
 343 -27 343 -27 293 -27 c 0,8,9
 251 -27 251 -27 251 25 c 0,10,11
 251 35 251 35 253 54.5 c 128,-1,12
 255 74 255 74 255 81 c 1,13,-1
 143 81 l 2,14,15
 128 81 128 81 119 96 c 0,16,17
 111 109 111 109 111 124 c 0,18,19
 111 140 111 140 120.5 154 c 128,-1,20
 130 168 130 168 145 168 c 2,21,-1
 255 168 l 1,22,-1
 256 225 l 1,23,-1
 137 225 l 2,24,25
 111 225 111 225 111 267 c 0,26,27
 111 282 111 282 119 296 c 0,28,29
 128 312 128 312 143 312 c 2,30,-1
 234 312 l 1,31,32
 69 649 69 649 69 657 c 0,33,34
 69 676 69 676 113 676 c 0,35,36
 156 676 156 676 167 653 c 2,37,-1
 297 382 l 1,38,-1
 435 651 l 2,39,40
 448 678 448 678 497 678 c 0,41,42
 522 678 522 678 530 655 c 1,43,44
 510 607 510 607 468.5 522 c 128,-1,45
 427 437 427 437 364 312 c 1,46,47
 369 312 369 312 377 312 c 0,48,49
 386 312 386 312 397 313 c 128,-1,50
 408 314 408 314 416.5 314.5 c 128,-1,51
 425 315 425 315 430 315 c 0,52,53
 485 315 485 315 485 267 c 0,54,55
 485 252 485 252 477 239 c 0,56,57
 468 225 468 225 453 225 c 2,58,-1
 342 225 l 1,59,-1
 342 168 l 1,60,-1
 453 168 l 2,61,62
 468 168 468 168 477 153 c 0,63,64
 485 139 485 139 485 124 c 0,0,1
EndSplineSet
Validated: 1
EndChar

StartChar: SplitStile
Encoding: 166 166 105
Width: 600
GlyphClass: 2
Flags: W
LayerCount: 2
Fore
SplineSet
343 381 m 2,0,1
 343 344 343 344 303 344 c 0,2,3
 285 344 285 344 271 354 c 128,-1,4
 257 364 257 364 257 382 c 2,5,-1
 257 668 l 2,6,7
 257 682 257 682 273 691 c 0,8,9
 287 699 287 699 301 699 c 0,10,11
 343 699 343 699 343 670 c 2,12,-1
 343 381 l 2,0,1
343 -34 m 2,13,14
 343 -62 343 -62 298 -65 c 1,15,16
 257 -58 257 -58 257 -33 c 2,17,-1
 257 259 l 2,18,19
 257 294 257 294 305 294 c 0,20,21
 343 294 343 294 343 263 c 2,22,-1
 343 -34 l 2,13,14
EndSplineSet
Validated: 1
EndChar

StartChar: section
Encoding: 167 167 106
Width: 600
GlyphClass: 2
Flags: W
LayerCount: 2
Fore
SplineSet
518 126 m 0,0,1
 518 44 518 44 455 4 c 0,2,3
 401 -29 401 -29 316 -29 c 0,4,5
 214 -29 214 -29 152 9 c 0,6,7
 81 56 81 56 81 154 c 0,8,9
 81 195 81 195 119 195 c 0,10,11
 147 195 147 195 160 155 c 0,12,13
 178 100 178 100 195 81 c 0,14,15
 232 41 232 41 316 41 c 0,16,17
 440 41 440 41 440 126 c 0,18,19
 440 186 440 186 356 216 c 2,20,-1
 200 270 l 1,21,22
 116 313 116 313 116 407 c 0,23,24
 116 467 116 467 166 511 c 1,25,26
 144 545 144 545 144 592 c 0,27,28
 144 660 144 660 205 700 c 0,29,30
 258 735 258 735 328 735 c 0,31,32
 377 735 377 735 441 706 c 0,33,34
 514 672 514 672 514 628 c 0,35,36
 514 590 514 590 476 590 c 0,37,38
 470 590 470 590 415 626 c 0,39,40
 361 662 361 662 328 662 c 256,41,42
 295 662 295 662 264 645 c 0,43,44
 228 624 228 624 228 592 c 0,45,46
 228 540 228 540 303 503 c 0,47,48
 338 486 338 486 373 468.5 c 128,-1,49
 408 451 408 451 443 434 c 1,50,51
 518 384 518 384 518 302 c 0,52,53
 518 279 518 279 508 260 c 0,54,55
 494 236 494 236 476 233 c 1,56,57
 518 186 518 186 518 126 c 0,0,1
442 290 m 1,58,-1
 442 300 l 2,59,60
 442 346 442 346 354 395 c 0,61,62
 350 397 350 397 317.5 412 c 128,-1,63
 285 427 285 427 224 455 c 1,64,65
 194 429 194 429 194 407 c 0,66,67
 194 361 194 361 242 333 c 0,68,69
 258 323 258 323 283.5 314 c 128,-1,70
 309 305 309 305 344 295 c 0,71,72
 380 285 380 285 402.5 278 c 128,-1,73
 425 271 425 271 435 266 c 1,74,-1
 437 270 l 1,75,-1
 437 280 l 1,76,-1
 442 290 l 1,58,-1
EndSplineSet
Validated: 1
EndChar

StartChar: dieresis
Encoding: 168 168 107
Width: 600
GlyphClass: 2
Flags: W
LayerCount: 2
Fore
SplineSet
111 640 m 128,-1,1
 89 662 89 662 89 693 c 128,-1,2
 89 724 89 724 111 746 c 128,-1,3
 133 768 133 768 164 768 c 128,-1,4
 195 768 195 768 217 746 c 128,-1,5
 239 724 239 724 239 693 c 128,-1,6
 239 662 239 662 217 640 c 128,-1,7
 195 618 195 618 164 618 c 128,-1,0
 133 618 133 618 111 640 c 128,-1,1
383 640 m 128,-1,9
 361 662 361 662 361 693 c 128,-1,10
 361 724 361 724 383 746 c 128,-1,11
 405 768 405 768 436 768 c 128,-1,12
 467 768 467 768 489 746 c 128,-1,13
 511 724 511 724 511 693 c 128,-1,14
 511 662 511 662 489 640 c 128,-1,15
 467 618 467 618 436 618 c 128,-1,8
 405 618 405 618 383 640 c 128,-1,9
EndSplineSet
Validated: 1
EndChar

StartChar: copyright
Encoding: 169 169 108
Width: 600
GlyphClass: 2
Flags: W
LayerCount: 2
Fore
SplineSet
298 655 m 0,0,1
 208 655 208 655 141 574 c 0,2,3
 110 539 110 539 94 493 c 0,4,5
 76 443 76 443 76 402 c 0,6,7
 76 360 76 360 93 312 c 0,8,9
 118 243 118 243 170.5 205.5 c 128,-1,10
 223 168 223 168 295 167 c 0,11,12
 350 167 350 167 390.5 184.5 c 128,-1,13
 431 202 431 202 465 236 c 128,-1,14
 499 270 499 270 516 312 c 0,15,16
 534 354 534 354 534 404 c 0,17,18
 534 499 534 499 462 576 c 0,19,20
 389 655 389 655 298 655 c 0,0,1
302 733 m 0,21,22
 437 733 437 733 523 641 c 0,23,24
 563 598 563 598 586 538 c 0,25,26
 607 481 607 481 607 407 c 0,27,28
 607 330 607 330 586 275 c 0,29,30
 564 217 564 217 522 174 c 0,31,32
 479 129 479 129 425 107.5 c 128,-1,33
 371 86 371 86 299 86 c 0,34,35
 164 86 164 86 80 175 c 0,36,37
 -6 267 -6 267 -6 410 c 0,38,39
 -6 477 -6 477 17 540 c 0,40,41
 63 659 63 659 179 709 c 0,42,43
 236 733 236 733 302 733 c 0,21,22
430 513 m 0,44,45
 431 512 431 512 431 507 c 0,46,47
 431 505 431 505 429 499 c 0,48,49
 416 481 416 481 397 477 c 0,50,51
 386 475 386 475 378 482 c 0,52,53
 365 492 365 492 352.5 500 c 128,-1,54
 340 508 340 508 326 514 c 0,55,56
 299 525 299 525 265 510 c 0,57,58
 245 501 245 501 228 478 c 0,59,60
 212 458 212 458 209 433 c 0,61,62
 205 413 205 413 210 379 c 0,63,64
 216 349 216 349 231 324 c 0,65,66
 242 305 242 305 264 298 c 0,67,68
 282 291 282 291 310 291 c 0,69,70
 335 292 335 292 356.5 301 c 128,-1,71
 378 310 378 310 391 329 c 0,72,73
 400 342 400 342 411 339 c 0,74,75
 429 336 429 336 435 304 c 0,76,77
 436 292 436 292 428 280 c 0,78,79
 426 276 426 276 423 270.5 c 128,-1,80
 420 265 420 265 416 258 c 0,81,82
 412 252 412 252 400 245 c 0,83,84
 370 229 370 229 338 224 c 0,85,86
 308 220 308 220 270.5 227.5 c 128,-1,87
 233 235 233 235 209 250 c 0,88,89
 181 266 181 266 166 293 c 0,90,91
 148 326 148 326 142 367 c 128,-1,92
 136 408 136 408 142 444 c 128,-1,93
 148 480 148 480 167 511 c 0,94,95
 190 553 190 553 230 569 c 0,96,97
 241 574 241 574 253 577.5 c 128,-1,98
 265 581 265 581 279 583 c 0,99,100
 348 594 348 594 398 556 c 0,101,102
 419 539 419 539 430 513 c 0,44,45
EndSplineSet
Validated: 33
EndChar

StartChar: FL00AAh
Encoding: 170 170 109
Width: 600
GlyphClass: 2
Flags: W
LayerCount: 2
Fore
SplineSet
458 630 m 2,0,1
 458 630 458 630 458 380 c 0,2,3
 458 361 458 361 465 354 c 0,4,5
 469 349 469 349 471.5 345.5 c 128,-1,6
 474 342 474 342 476 340 c 0,7,8
 486 330 486 330 478 324 c 0,9,10
 467 319 467 319 453 318 c 0,11,12
 435 316 435 316 423 319 c 0,13,14
 405 322 405 322 401 329 c 0,15,16
 399 332 399 332 398 331 c 0,17,18
 396 332 396 332 395 332 c 256,19,20
 394 332 394 332 392 333 c 0,21,22
 384 334 384 334 383 354 c 1,23,24
 344 326 344 326 314 319 c 0,25,26
 281 312 281 312 253 316 c 0,27,28
 203 323 203 323 165 361 c 0,29,30
 119 408 119 408 116 490 c 0,31,32
 114 533 114 533 133 576 c 0,33,34
 174 669 174 669 275 675 c 0,35,36
 327 678 327 678 391 644 c 1,37,38
 406 660 406 660 420 665 c 0,39,40
 427 668 427 668 433 668 c 0,41,42
 438 668 438 668 441 667 c 0,43,44
 450 662 450 662 455 653 c 0,45,46
 458 644 458 644 458 630 c 2,0,1
385 566 m 1,47,48
 340 596 340 596 305 597 c 0,49,50
 227 602 227 602 196 541 c 0,51,52
 181 513 181 513 183 483 c 0,53,54
 185 475 185 475 187 466.5 c 128,-1,55
 189 458 189 458 193 447 c 0,56,57
 203 413 203 413 242 396 c 0,58,59
 251 392 251 392 264 390.5 c 128,-1,60
 277 389 277 389 294 388 c 0,61,62
 318 387 318 387 350 416 c 0,63,64
 363 426 363 426 377 446 c 0,65,66
 385 464 385 464 385 483 c 2,67,-1
 385 566 l 1,47,48
EndSplineSet
Validated: 33
EndChar

StartChar: FL00ABh
Encoding: 171 171 110
Width: 600
GlyphClass: 2
Flags: W
LayerCount: 2
Fore
SplineSet
256 458 m 2,0,1
 266 467 266 467 277 467 c 0,2,3
 279 467 279 467 287 465 c 0,4,5
 315 456 315 456 315 422 c 2,6,-1
 314 412 l 2,7,8
 312 395 312 395 294 378 c 2,9,-1
 159 259 l 1,10,-1
 289 134 l 2,11,12
 306 118 306 118 308 101 c 2,13,-1
 308 97 l 2,14,15
 308 63 308 63 279 54 c 0,16,17
 277 53 277 53 272 53 c 0,18,19
 260 53 260 53 249 63 c 2,20,-1
 72 214 l 2,21,22
 54 229 54 229 50 234 c 0,23,24
 38 246 38 246 36 259 c 0,25,26
 36 268 36 268 47 279 c 0,27,28
 57 293 57 293 75 309 c 2,29,-1
 256 458 l 2,0,1
506 458 m 2,30,31
 516 467 516 467 527 467 c 0,32,33
 533 467 533 467 537 465 c 0,34,35
 548 461 548 461 556 448 c 128,-1,36
 564 435 564 435 564 419 c 2,37,-1
 564 412 l 2,38,39
 561 395 561 395 544 378 c 2,40,-1
 410 259 l 1,41,-1
 540 134 l 2,42,43
 556 117 556 117 558 101 c 2,44,-1
 558 96 l 2,45,46
 558 80 558 80 552 70 c 0,47,48
 543 58 543 58 530 54 c 0,49,50
 527 53 527 53 522 53 c 0,51,52
 509 53 509 53 499 63 c 2,53,-1
 322 214 l 2,54,55
 305 229 305 229 298 238 c 0,56,57
 287 251 287 251 287 259 c 0,58,59
 287 268 287 268 296 279 c 0,60,61
 303 288 303 288 325 309 c 2,62,-1
 506 458 l 2,30,31
EndSplineSet
Validated: 1
EndChar

StartChar: not
Encoding: 172 172 111
Width: 600
GlyphClass: 2
Flags: W
LayerCount: 2
Fore
SplineSet
135 275 m 2,0,1
 100 275 100 275 100 315 c 0,2,3
 100 327 100 327 110 341 c 0,4,5
 119 354 119 354 135 354 c 2,6,-1
 419 354 l 2,7,8
 426 354 426 354 444 351 c 0,9,10
 457 351 457 351 472 342 c 128,-1,11
 487 333 487 333 497 316 c 0,12,13
 506 301 506 301 506 267 c 2,14,-1
 506 138 l 2,15,16
 506 122 506 122 495 111 c 0,17,18
 482 101 482 101 469 101 c 0,19,20
 427 100 427 100 427 138 c 2,21,-1
 427 275 l 1,22,-1
 135 275 l 2,0,1
EndSplineSet
Validated: 33
EndChar

StartChar: soft_hyphen
Encoding: 173 173 112
Width: 600
GlyphClass: 2
Flags: W
LayerCount: 2
Fore
SplineSet
502 313 m 0,0,1
 502 275 502 275 461 275 c 2,2,-1
 143 275 l 2,3,4
 100 275 100 275 100 314 c 0,5,6
 100 327 100 327 107 340 c 0,7,8
 115 354 115 354 131 354 c 2,9,-1
 463 354 l 2,10,11
 477 354 477 354 490 341 c 0,12,13
 502 329 502 329 502 313 c 0,0,1
EndSplineSet
Validated: 1
EndChar

StartChar: glyph116
Encoding: 174 174 113
Width: 600
GlyphClass: 2
Flags: W
LayerCount: 2
Fore
SplineSet
301 737 m 0,0,1
 368 737 368 737 425 712 c 0,2,3
 540 663 540 663 586 542 c 0,4,5
 607 485 607 485 607 411 c 0,6,7
 607 339 607 339 584.5 279.5 c 128,-1,8
 562 220 562 220 521 178 c 128,-1,9
 480 136 480 136 423.5 113 c 128,-1,10
 367 90 367 90 299 90 c 0,11,12
 163 90 163 90 79 179 c 0,13,14
 39 221 39 221 16 282.5 c 128,-1,15
 -7 344 -7 344 -7 414 c 0,16,17
 -7 480 -7 480 16 543 c 0,18,19
 62 662 62 662 178 712 c 0,20,21
 237 737 237 737 301 737 c 0,0,1
301 520 m 2,22,23
 301 520 301 520 243 518 c 1,24,-1
 243 443 l 1,25,26
 265 442 265 442 274 440 c 0,27,28
 294 437 294 437 333 455 c 0,29,30
 339 459 339 459 341 480 c 0,31,32
 343 500 343 500 332 510.5 c 128,-1,33
 321 521 321 521 301 520 c 2,22,23
298 575 m 0,34,35
 356 573 356 573 378 554 c 0,36,37
 394 539 394 539 400 523 c 128,-1,38
 406 507 406 507 406 489 c 0,39,40
 406 473 406 473 400 458 c 0,41,42
 394 444 394 444 383 436 c 0,43,44
 377 429 377 429 370 422.5 c 128,-1,45
 363 416 363 416 350 413 c 1,46,-1
 374 368 l 2,47,48
 388 341 388 341 403 328 c 0,49,50
 410 320 410 320 428 310 c 0,51,52
 442 302 442 302 443 293 c 0,53,54
 443 284 443 284 437 276.5 c 128,-1,55
 431 269 431 269 422 265 c 0,56,57
 416 263 416 263 412 263 c 0,58,59
 410 263 410 263 404 265 c 0,60,61
 362 281 362 281 346 305 c 0,62,63
 342 310 342 310 338.5 316.5 c 128,-1,64
 335 323 335 323 333 331 c 0,65,66
 324 349 324 349 315 364 c 0,67,68
 311 371 311 371 300 377 c 2,69,-1
 288 386 l 1,70,-1
 244 387 l 1,71,-1
 243 280 l 2,72,73
 243 276 243 276 235 271 c 2,74,-1
 214 268 l 2,75,76
 184 265 184 265 184 280 c 2,77,-1
 184 535 l 2,78,79
 184 547 184 547 188 556.5 c 128,-1,80
 192 566 192 566 203 569 c 0,81,82
 210 571 210 571 237 573 c 0,83,84
 257 574 257 574 272 574.5 c 128,-1,85
 287 575 287 575 298 575 c 0,34,35
297 659 m 0,86,87
 254 659 254 659 211 635 c 0,88,89
 128 590 128 590 92 496 c 0,90,91
 75 448 75 448 75 406 c 0,92,93
 75 336 75 336 108 278 c 0,94,95
 142 218 142 218 203 189 c 0,96,97
 241 172 241 172 294 171 c 0,98,99
 346 171 346 171 389.5 189.5 c 128,-1,100
 433 208 433 208 465 240.5 c 128,-1,101
 497 273 497 273 515 316 c 128,-1,102
 533 359 533 359 533 408 c 0,103,104
 533 456 533 456 515 500 c 0,105,106
 478 589 478 589 387 636 c 0,107,108
 341 659 341 659 297 659 c 0,86,87
EndSplineSet
Validated: 33
EndChar

StartChar: macron
Encoding: 175 175 114
Width: 600
GlyphClass: 2
Flags: W
LayerCount: 2
Fore
SplineSet
531 625 m 256,0,1
 531 605 531 605 518.5 594 c 128,-1,2
 506 583 506 583 472 583 c 2,3,-1
 111 583 l 2,4,5
 95 583 95 583 82 596.5 c 128,-1,6
 69 610 69 610 69 630 c 0,7,8
 69 670 69 670 116 670 c 2,9,-1
 472 670 l 2,10,11
 501 670 501 670 516 657.5 c 128,-1,12
 531 645 531 645 531 625 c 256,0,1
EndSplineSet
Validated: 1
EndChar

StartChar: glyph117
Encoding: 176 176 115
Width: 600
GlyphClass: 2
Flags: W
LayerCount: 2
Fore
SplineSet
298 677 m 0,0,1
 332 677 332 677 370 662 c 0,2,3
 436 637 436 637 461 569 c 0,4,5
 466 554 466 554 469 536 c 128,-1,6
 472 518 472 518 471 496 c 0,7,8
 466 410 466 410 430 363 c 0,9,10
 391 314 391 314 303 314 c 0,11,12
 256 314 256 314 229 327 c 0,13,14
 165 355 165 355 142 427 c 0,15,16
 128 466 128 466 130 499 c 0,17,18
 131 571 131 571 177 624 c 0,19,20
 224 677 224 677 298 677 c 0,0,1
296 597 m 0,21,22
 253 597 253 597 231 566 c 0,23,24
 210 539 210 539 210 496 c 0,25,26
 210 451 210 451 234 423 c 0,27,28
 259 393 259 393 302 395 c 0,29,30
 348 397 348 397 370 426.5 c 128,-1,31
 392 456 392 456 391 495 c 0,32,33
 391 516 391 516 383.5 534.5 c 128,-1,34
 376 553 376 553 363 567 c 128,-1,35
 350 581 350 581 333 589 c 128,-1,36
 316 597 316 597 296 597 c 0,21,22
EndSplineSet
Validated: 33
EndChar

StartChar: glyph118
Encoding: 177 177 116
Width: 600
GlyphClass: 2
Flags: W
LayerCount: 2
Fore
SplineSet
147 53 m 2,0,1
 147 53 147 53 442 53 c 0,2,3
 462 53 462 53 475 41 c 128,-1,4
 488 29 488 29 487 10 c 0,5,6
 487 -3 487 -3 476 -19 c 0,7,8
 465 -30 465 -30 446 -30 c 2,9,-1
 144 -32 l 2,10,11
 110 -33 110 -33 108 9 c 0,12,13
 106 25 106 25 117 39 c 0,14,15
 126 53 126 53 147 53 c 2,0,1
342 486 m 2,16,-1
 343 350 l 1,17,-1
 479 350 l 2,18,19
 505 350 505 350 505 305 c 0,20,21
 505 289 505 289 498 275 c 0,22,23
 490 263 490 263 479 263 c 2,24,-1
 343 263 l 1,25,-1
 342 137 l 2,26,27
 342 118 342 118 331 109 c 0,28,29
 316 100 316 100 301 100 c 0,30,31
 258 100 258 100 255 137 c 2,32,-1
 257 263 l 1,33,-1
 118 263 l 2,34,35
 94 263 94 263 94 305 c 0,36,37
 94 323 94 323 100 335 c 0,38,39
 104 350 104 350 118 350 c 2,40,-1
 257 350 l 1,41,-1
 257 492 l 2,42,43
 257 510 257 510 271 518 c 0,44,45
 284 528 284 528 301 527 c 0,46,47
 342 525 342 525 342 486 c 2,16,-1
EndSplineSet
Validated: 33
EndChar

StartChar: glyph119
Encoding: 178 178 117
Width: 600
GlyphClass: 2
Flags: W
LayerCount: 2
Fore
SplineSet
465 274 m 2,0,1
 465 274 465 274 465 272 c 0,2,3
 460 230 460 230 410 230 c 2,4,-1
 197 230 l 2,5,6
 159 230 159 230 148.5 242.5 c 128,-1,7
 138 255 138 255 138 277 c 0,8,9
 138 302 138 302 160 329 c 2,10,-1
 324 507 l 2,11,12
 345 532 345 532 345 554 c 256,13,14
 345 576 345 576 329 589 c 128,-1,15
 313 602 313 602 289 602 c 0,16,17
 260 602 260 602 242 587 c 0,18,19
 240 584 240 584 235 576.5 c 128,-1,20
 230 569 230 569 223 552 c 0,21,22
 206 520 206 520 180 520 c 0,23,24
 134 520 134 520 134 567 c 0,25,26
 134 625 134 625 180 663 c 1,27,-1
 180 662 l 1,28,29
 223 699 223 699 284 699 c 0,30,31
 357 699 357 699 395 665 c 1,32,33
 443 629 443 629 443 561 c 0,34,35
 443 496 443 496 407 463 c 2,36,-1
 276 322 l 1,37,-1
 405 322 l 2,38,39
 432 322 432 322 448.5 309.5 c 128,-1,40
 465 297 465 297 465 274 c 2,0,1
EndSplineSet
Validated: 1
EndChar

StartChar: glyph120
Encoding: 179 179 118
Width: 600
GlyphClass: 2
Flags: W
LayerCount: 2
Fore
SplineSet
461 379 m 0,0,1
 461 307 461 307 415.5 266.5 c 128,-1,2
 370 226 370 226 291 226 c 0,3,4
 224 226 224 226 185 258 c 0,5,6
 138 293 138 293 138 354 c 0,7,8
 138 370 138 370 146 385 c 1,9,10
 163 398 163 398 185 398 c 0,11,12
 217 398 217 398 231 366 c 0,13,14
 244 333 244 333 246 331 c 0,15,16
 258 317 258 317 298 317 c 0,17,18
 326 317 326 317 344 336 c 128,-1,19
 362 355 362 355 362 381 c 0,20,21
 362 410 362 410 336 425 c 0,22,23
 326 432 326 432 277 439 c 1,24,25
 229 450 229 450 229 481 c 0,26,27
 229 513 229 513 278 520 c 0,28,29
 300 522 300 522 314.5 525 c 128,-1,30
 329 528 329 528 335 532 c 0,31,32
 355 540 355 540 355 570 c 0,33,34
 355 589 355 589 338 600 c 128,-1,35
 321 611 321 611 298 611 c 0,36,37
 283 611 283 611 273 608.5 c 128,-1,38
 263 606 263 606 257 602 c 1,39,-1
 258 602 l 1,40,41
 254 600 254 600 248.5 594.5 c 128,-1,42
 243 589 243 589 234 580 c 0,43,44
 217 566 217 566 196 566 c 2,45,-1
 186 566 l 2,46,47
 169 566 169 566 161 577 c 128,-1,48
 153 588 153 588 153 605 c 0,49,50
 153 623 153 623 168.5 643 c 128,-1,51
 184 663 184 663 222 683 c 0,52,53
 252 696 252 696 305 699 c 0,54,55
 369 699 369 699 409.5 663 c 128,-1,56
 450 627 450 627 450 567 c 0,57,58
 450 512 450 512 413 477 c 1,59,60
 424 469 424 469 431 461 c 128,-1,61
 438 453 438 453 444 445 c 0,62,63
 461 416 461 416 461 379 c 0,0,1
EndSplineSet
Validated: 1
EndChar

StartChar: fold
Encoding: 180 180 119
Width: 600
GlyphClass: 2
Flags: W
LayerCount: 2
Fore
SplineSet
422 752 m 0,0,1
 431 742 431 742 432 727 c 0,2,3
 433 707 433 707 421 695 c 2,4,-1
 249 530 l 2,5,6
 222 504 222 504 194 533 c 0,7,8
 184 543 184 543 183 559 c 0,9,10
 181 580 181 580 194 592 c 2,11,-1
 362 753 l 2,12,13
 393 784 393 784 422 752 c 0,0,1
EndSplineSet
Validated: 33
EndChar

StartChar: glyph127
Encoding: 181 181 120
Width: 600
GlyphClass: 2
Flags: W
LayerCount: 2
Fore
SplineSet
85 50 m 1,0,1
 73 61 73 61 72 78 c 0,2,3
 70 96 70 96 72 119 c 0,4,5
 74 129 74 129 76 140.5 c 128,-1,6
 78 152 78 152 82 165 c 0,7,8
 84 173 84 173 86.5 185.5 c 128,-1,9
 89 198 89 198 93 214 c 2,10,-1
 152 450 l 2,11,12
 157 471 157 471 175 482 c 0,13,14
 192 493 192 493 208 495 c 0,15,16
 227 497 227 497 236.5 487 c 128,-1,17
 246 477 246 477 241 458 c 2,18,-1
 175 210 l 2,19,20
 172 196 172 196 166 165 c 0,21,22
 161 142 161 142 166 123 c 0,23,24
 170 103 170 103 190 90 c 0,25,26
 207 79 207 79 250 79 c 0,27,28
 271 79 271 79 291 84 c 0,29,30
 318 91 318 91 348 108 c 0,31,32
 388 131 388 131 392 147 c 2,33,-1
 478 458 l 2,34,35
 483 471 483 471 500 481 c 0,36,37
 517 492 517 492 532 493 c 0,38,39
 575 498 575 498 564 454 c 2,40,-1
 480 141 l 2,41,42
 479 136 479 136 478 129 c 128,-1,43
 477 122 477 122 475 114 c 0,44,45
 472 103 472 103 467.5 87 c 128,-1,46
 463 71 463 71 457 49 c 0,47,48
 455 45 455 45 453.5 40 c 128,-1,49
 452 35 452 35 450 28 c 0,50,51
 439 -10 439 -10 401 -7 c 0,52,53
 385 -5 385 -5 374 3 c 0,54,55
 364 16 364 16 365 37 c 1,56,57
 342 16 342 16 318.5 8 c 128,-1,58
 295 0 295 0 262 -3 c 0,59,60
 247 -5 247 -5 233.5 -5.5 c 128,-1,61
 220 -6 220 -6 207 -5 c 0,62,63
 187 -4 187 -4 156 1 c 1,64,-1
 92 -162 l 2,65,66
 85 -181 85 -181 72 -185 c 0,67,68
 40 -197 40 -197 29 -156 c 0,69,70
 24 -134 24 -134 34 -104 c 2,71,-1
 85 50 l 1,0,1
EndSplineSet
Validated: 33
EndChar

StartChar: paragraph
Encoding: 182 182 121
Width: 600
GlyphClass: 2
Flags: W
LayerCount: 2
Fore
SplineSet
565 628 m 0,0,1
 565 597 565 597 538 585 c 0,2,3
 536 585 536 585 498 585 c 1,4,-1
 498 -40 l 2,5,6
 498 -90 498 -90 458 -90 c 0,7,8
 439 -90 439 -90 426 -75 c 128,-1,9
 413 -60 413 -60 413 -40 c 2,10,-1
 413 584 l 1,11,-1
 347 583 l 1,12,-1
 347 -40 l 2,13,14
 349 -89 349 -89 304 -89 c 0,15,16
 285 -89 285 -89 273 -74 c 0,17,18
 261 -61 261 -61 261 -41 c 2,19,-1
 261 259 l 1,20,21
 171 259 171 259 103 327 c 128,-1,22
 35 395 35 395 35 484 c 0,23,24
 35 670 35 670 262 670 c 2,25,-1
 528 672 l 2,26,27
 545 672 545 672 555 659 c 128,-1,28
 565 646 565 646 565 628 c 0,0,1
261 584 m 1,29,30
 191 585 191 585 159 561 c 0,31,32
 123 532 123 532 123 464 c 0,33,34
 123 417 123 417 171 389 c 0,35,36
 211 364 211 364 261 364 c 1,37,-1
 261 584 l 1,29,30
EndSplineSet
Validated: 33
EndChar

StartChar: periodcentered
Encoding: 183 183 122
Width: 600
GlyphClass: 2
Flags: W
LayerCount: 2
Fore
SplineSet
250 315 m 0,0,1
 250 335 250 335 265 349.5 c 128,-1,2
 280 364 280 364 300 364 c 0,3,4
 321 364 321 364 335.5 349.5 c 128,-1,5
 350 335 350 335 350 315 c 0,6,7
 350 294 350 294 335.5 280 c 128,-1,8
 321 266 321 266 300 266 c 0,9,10
 280 266 280 266 265 280 c 128,-1,11
 250 294 250 294 250 315 c 0,0,1
EndSplineSet
Validated: 1
EndChar

StartChar: glyph128
Encoding: 184 184 123
Width: 600
GlyphClass: 2
Flags: W
LayerCount: 2
Fore
SplineSet
351 -15 m 1,0,-1
 351 -64 l 1,1,2
 383 -72 383 -72 392 -104 c 0,3,4
 402 -142 402 -142 384 -172.5 c 128,-1,5
 366 -203 366 -203 329 -216 c 0,6,7
 317 -220 317 -220 301 -220 c 0,8,9
 267 -220 267 -220 219 -197 c 0,10,11
 206 -191 206 -191 205 -176 c 0,12,13
 198 -146 198 -146 224 -129 c 0,14,15
 234 -124 234 -124 246 -131 c 0,16,17
 284 -152 284 -152 299 -145 c 0,18,19
 313 -137 313 -137 312 -121 c 0,20,21
 311 -103 311 -103 298 -84 c 0,22,23
 283 -65 283 -65 265 -64 c 1,24,-1
 265 -13 l 1,25,-1
 351 -15 l 1,0,-1
EndSplineSet
Validated: 33
EndChar

StartChar: glyph122
Encoding: 185 185 124
Width: 600
GlyphClass: 2
Flags: W
LayerCount: 2
Fore
SplineSet
426 273 m 2,0,1
 426 273 426 273 426 271 c 0,2,3
 426 229 426 229 375 229 c 2,4,-1
 213 229 l 2,5,6
 174 229 174 229 174 273 c 0,7,8
 174 321 174 321 236 321 c 2,9,-1
 254 321 l 1,10,-1
 254 512 l 1,11,12
 236 497 236 497 221 497 c 0,13,14
 177 497 177 497 177 541 c 0,15,16
 177 563 177 563 194 583 c 0,17,18
 200 589 200 589 207 595.5 c 128,-1,19
 214 602 214 602 220 607 c 0,20,21
 222 609 222 609 222 610 c 0,22,23
 229 621 229 621 236 633 c 128,-1,24
 243 645 243 645 251 659 c 0,25,26
 279 701 279 701 308 701 c 0,27,28
 323 701 323 701 336 688.5 c 128,-1,29
 349 676 349 676 349 661 c 2,30,-1
 349 321 l 1,31,-1
 368 321 l 2,32,33
 426 321 426 321 426 273 c 2,0,1
EndSplineSet
Validated: 1
EndChar

StartChar: ordmasculine
Encoding: 186 186 125
Width: 600
GlyphClass: 2
Flags: W
LayerCount: 2
Fore
SplineSet
210 757 m 0,0,1
 287 759 287 759 337 707 c 0,2,3
 361 683 361 683 372.5 651 c 128,-1,4
 384 619 384 619 382 576 c 0,5,6
 378 491 378 491 340.5 443 c 128,-1,7
 303 395 303 395 215 394 c 0,8,9
 134 392 134 392 86 448 c 0,10,11
 40 499 40 499 42 579 c 0,12,13
 45 653 45 653 89 705 c 0,14,15
 134 757 134 757 210 757 c 0,0,1
208 677 m 0,16,17
 168 677 168 677 144 646 c 0,18,19
 121 617 121 617 121 576 c 0,20,21
 121 536 121 536 147 502 c 0,22,23
 171 473 171 473 215 475 c 0,24,25
 262 477 262 477 283 506 c 128,-1,26
 304 535 304 535 303 575 c 0,27,28
 303 596 303 596 295.5 614.5 c 128,-1,29
 288 633 288 633 275.5 647 c 128,-1,30
 263 661 263 661 246 669 c 128,-1,31
 229 677 229 677 208 677 c 0,16,17
EndSplineSet
Validated: 33
EndChar

StartChar: FL00BBh
Encoding: 187 187 126
Width: 600
GlyphClass: 2
Flags: W
LayerCount: 2
Fore
SplineSet
344 458 m 2,0,1
 334 467 334 467 323 467 c 0,2,3
 321 467 321 467 313 465 c 0,4,5
 285 456 285 456 285 422 c 2,6,-1
 286 412 l 2,7,8
 288 395 288 395 306 378 c 2,9,-1
 441 259 l 1,10,-1
 311 134 l 2,11,12
 294 118 294 118 292 101 c 2,13,-1
 292 97 l 2,14,15
 292 63 292 63 321 54 c 0,16,17
 323 53 323 53 328 53 c 0,18,19
 340 53 340 53 351 63 c 2,20,-1
 528 214 l 2,21,22
 546 229 546 229 550 234 c 0,23,24
 562 246 562 246 564 259 c 0,25,26
 564 268 564 268 553 279 c 0,27,28
 543 293 543 293 525 309 c 2,29,-1
 344 458 l 2,0,1
94 458 m 2,30,31
 84 467 84 467 73 467 c 0,32,33
 67 467 67 467 63 465 c 0,34,35
 52 461 52 461 44 448 c 128,-1,36
 36 435 36 435 36 419 c 2,37,-1
 36 412 l 2,38,39
 39 395 39 395 56 378 c 2,40,-1
 190 259 l 1,41,-1
 60 134 l 2,42,43
 44 117 44 117 42 101 c 2,44,-1
 42 96 l 2,45,46
 42 80 42 80 48 70 c 0,47,48
 57 58 57 58 70 54 c 0,49,50
 73 53 73 53 78 53 c 0,51,52
 91 53 91 53 101 63 c 2,53,-1
 278 214 l 2,54,55
 295 229 295 229 302 238 c 0,56,57
 313 251 313 251 313 259 c 0,58,59
 313 268 313 268 304 279 c 0,60,61
 297 288 297 288 275 309 c 2,62,-1
 94 458 l 2,30,31
EndSplineSet
Validated: 9
EndChar

StartChar: glyph124
Encoding: 188 188 127
Width: 600
GlyphClass: 2
Flags: W
LayerCount: 2
Fore
SplineSet
390 292 m 0,0,1
 390 284 390 284 390 274 c 256,2,3
 390 264 390 264 391 250 c 2,4,-1
 391 218 l 2,5,6
 391 207 391 207 390.5 195.5 c 128,-1,7
 390 184 390 184 389 170 c 0,8,9
 387 140 387 140 386 125 c 0,10,11
 384 106 384 106 382 91.5 c 128,-1,12
 380 77 380 77 378 66 c 1,13,-1
 460 66 l 1,14,-1
 458 161 l 2,15,16
 458 173 458 173 470 184 c 0,17,18
 480 195 480 195 494.5 200 c 128,-1,19
 509 205 509 205 519 202 c 0,20,21
 529 201 529 201 529 186 c 2,22,-1
 529 69 l 1,23,-1
 575 66 l 2,24,25
 607 64 607 64 607 29 c 0,26,27
 607 15 607 15 599 4 c 0,28,29
 590 -3 590 -3 574 -2 c 2,30,-1
 529 0 l 1,31,-1
 532 -64 l 2,32,33
 533 -84 533 -84 523 -92 c 128,-1,34
 513 -100 513 -100 499 -100 c 0,35,36
 463 -100 463 -100 462 -66 c 2,37,-1
 460 -2 l 1,38,-1
 336 -2 l 2,39,40
 324 -2 324 -2 314 14 c 0,41,42
 305 30 305 30 305 43 c 0,43,44
 310 72 310 72 312 88.5 c 128,-1,45
 314 105 314 105 315 110 c 0,46,47
 319 142 319 142 320.5 170 c 128,-1,48
 322 198 322 198 323 224 c 2,49,-1
 323 256 l 1,50,-1
 323 294 l 2,51,52
 323 312 323 312 357 312 c 0,53,54
 390 313 390 313 390 292 c 0,0,1
391 598 m 2,55,56
 399 609 399 609 414 610 c 0,57,58
 445 616 445 616 460 594 c 0,59,60
 467 585 467 585 458 573 c 2,61,-1
 155 104 l 2,62,63
 144 90 144 90 134 87 c 0,64,65
 104 82 104 82 90 105 c 0,66,67
 82 117 82 117 90 128 c 2,68,-1
 391 598 l 2,55,56
64 767 m 0,69,70
 74 782 74 782 88 786.5 c 128,-1,71
 102 791 102 791 113 790 c 0,72,73
 122 789 122 789 134 782 c 0,74,75
 141 776 141 776 141 771 c 2,76,-1
 141 457 l 1,77,-1
 185 457 l 2,78,79
 200 457 200 457 204 444 c 0,80,81
 209 432 209 432 208 417 c 0,82,83
 207 401 207 401 201.5 389.5 c 128,-1,84
 196 378 196 378 185 378 c 2,85,-1
 12 378 l 2,86,87
 -6 378 -6 378 -6 417 c 0,88,89
 -6 457 -6 457 14 457 c 2,90,-1
 64 457 l 1,91,-1
 64 651 l 1,92,93
 50 632 50 632 40 628 c 0,94,95
 32 626 32 626 28 626 c 256,96,97
 24 626 24 626 18 628 c 0,98,99
 -4 631 -4 631 -2 661 c 0,100,101
 0 675 0 675 2 682 c 0,102,103
 5 694 5 694 8 695 c 0,104,105
 30 711 30 711 41 728 c 0,106,107
 47 738 47 738 53 747.5 c 128,-1,108
 59 757 59 757 64 767 c 0,69,70
EndSplineSet
Validated: 33
EndChar

StartChar: glyph126
Encoding: 189 189 128
Width: 600
GlyphClass: 2
Flags: W
LayerCount: 2
Fore
SplineSet
455 370 m 0,0,1
 456 370 456 370 503 367 c 0,2,3
 513 366 513 366 521 364.5 c 128,-1,4
 529 363 529 363 536 359 c 0,5,6
 559 348 559 348 575 324 c 0,7,8
 602 284 602 284 600 242 c 0,9,10
 599 224 599 224 586 211 c 2,11,-1
 450 67 l 1,12,-1
 565 66 l 2,13,14
 582 66 582 66 591 55 c 0,15,16
 599 43 599 43 597 29 c 0,17,18
 597 17 597 17 589 4 c 0,19,20
 581 -4 581 -4 569 -4 c 2,21,-1
 368 -5 l 2,22,23
 350 -5 350 -5 343 22 c 0,24,25
 340 34 340 34 343 49 c 0,26,27
 344 65 344 65 357 78 c 2,28,-1
 500 222 l 2,29,30
 522 244 522 244 522 260 c 0,31,32
 522 268 522 268 517 276 c 0,33,34
 501 301 501 301 455 301 c 0,35,36
 451 301 451 301 447 301 c 0,37,38
 444 301 444 301 439 300 c 0,39,40
 430 301 430 301 423.5 296.5 c 128,-1,41
 417 292 417 292 412 288 c 0,42,43
 403 281 403 281 401 268 c 0,44,45
 398 258 398 258 385 252 c 0,46,47
 380 250 380 250 373 251.5 c 128,-1,48
 366 253 366 253 359 257 c 128,-1,49
 352 261 352 261 347.5 266 c 128,-1,50
 343 271 343 271 343 277 c 0,51,52
 342 301 342 301 353 319 c 0,53,54
 378 362 378 362 418 365 c 0,55,56
 432 367 432 367 441 368.5 c 128,-1,57
 450 370 450 370 455 370 c 0,0,1
396 598 m 2,58,59
 404 609 404 609 419 610 c 0,60,61
 450 616 450 616 465 594 c 0,62,63
 472 585 472 585 463 573 c 2,64,-1
 160 104 l 2,65,66
 149 90 149 90 139 87 c 0,67,68
 109 82 109 82 95 105 c 0,69,70
 87 117 87 117 95 128 c 2,71,-1
 396 598 l 2,58,59
69 767 m 0,72,73
 79 782 79 782 93 786.5 c 128,-1,74
 107 791 107 791 118 790 c 0,75,76
 127 789 127 789 139 782 c 0,77,78
 146 776 146 776 146 771 c 2,79,-1
 146 457 l 1,80,-1
 190 457 l 2,81,82
 205 457 205 457 209 444 c 0,83,84
 214 432 214 432 213 417 c 0,85,86
 212 401 212 401 206.5 389.5 c 128,-1,87
 201 378 201 378 190 378 c 2,88,-1
 17 378 l 2,89,90
 -1 378 -1 378 -1 417 c 0,91,92
 -1 457 -1 457 19 457 c 2,93,-1
 69 457 l 1,94,-1
 69 651 l 1,95,96
 55 632 55 632 45 628 c 0,97,98
 37 626 37 626 33 626 c 256,99,100
 29 626 29 626 23 628 c 0,101,102
 1 631 1 631 3 661 c 0,103,104
 5 675 5 675 7 682 c 0,105,106
 10 694 10 694 13 695 c 0,107,108
 35 711 35 711 46 728 c 0,109,110
 52 738 52 738 58 747.5 c 128,-1,111
 64 757 64 757 69 767 c 0,72,73
EndSplineSet
Validated: 33
EndChar

StartChar: glyph125
Encoding: 190 190 129
Width: 600
GlyphClass: 2
Flags: W
LayerCount: 2
Fore
SplineSet
119 775 m 0,0,1
 160 775 160 775 191 750 c 0,2,3
 224 722 224 722 226 683 c 0,4,5
 227 651 227 651 214 629 c 128,-1,6
 201 607 201 607 183 593 c 1,7,8
 231 556 231 556 235 514 c 0,9,10
 236 506 236 506 234 495 c 128,-1,11
 232 484 232 484 228 468 c 0,12,13
 224 451 224 451 214 435 c 0,14,15
 184 399 184 399 150 387 c 0,16,17
 135 382 135 382 111 380 c 0,18,19
 70 378 70 378 39 402 c 0,20,21
 7 426 7 426 0 466 c 0,22,23
 -2 472 -2 472 0 481 c 0,24,25
 -1 483 -1 483 -1 488 c 0,26,27
 -1 490 -1 490 1 500 c 0,28,29
 4 503 4 503 12 503 c 0,30,31
 18 506 18 506 28 504 c 0,32,33
 36 503 36 503 42.5 498.5 c 128,-1,34
 49 494 49 494 49 485 c 0,35,36
 53 458 53 458 67 453 c 0,37,38
 79 450 79 450 109 450 c 0,39,40
 137 450 137 450 155 465 c 0,41,42
 169 481 169 481 169 506 c 0,43,44
 169 514 169 514 168 518 c 0,45,46
 168 542 168 542 141 560 c 0,47,48
 129 568 129 568 110 572 c 0,49,50
 105 574 105 574 96.5 576.5 c 128,-1,51
 88 579 88 579 77 582 c 0,52,53
 72 583 72 583 70 597 c 0,54,55
 68 610 68 610 79 612 c 0,56,57
 89 613 89 613 97 613.5 c 128,-1,58
 105 614 105 614 111 616 c 0,59,60
 115 619 115 619 136 630 c 0,61,62
 143 634 143 634 148.5 637 c 128,-1,63
 154 640 154 640 157 644 c 128,-1,64
 160 648 160 648 162 654.5 c 128,-1,65
 164 661 164 661 164 672 c 0,66,67
 166 696 166 696 153 707 c 0,68,69
 138 720 138 720 113 716 c 0,70,71
 100 714 100 714 91 711 c 128,-1,72
 82 708 82 708 76 706 c 0,73,74
 63 703 63 703 50 681 c 0,75,76
 47 676 47 676 40 676 c 0,77,78
 27 679 27 679 17.5 689.5 c 128,-1,79
 8 700 8 700 11 712 c 0,80,81
 29 749 29 749 54.5 762 c 128,-1,82
 80 775 80 775 119 775 c 0,0,1
377 598 m 2,83,84
 385 609 385 609 399 610 c 0,85,86
 430 616 430 616 446 594 c 0,87,88
 452 585 452 585 444 573 c 2,89,-1
 140 104 l 2,90,91
 131 90 131 90 119 87 c 0,92,93
 89 82 89 82 75 105 c 0,94,95
 67 117 67 117 75 128 c 2,96,-1
 377 598 l 2,83,84
385 292 m 0,97,98
 385 284 385 284 385 274 c 256,99,100
 385 264 385 264 386 250 c 2,101,-1
 386 218 l 2,102,103
 384 185 384 185 383 170 c 128,-1,104
 382 155 382 155 381.5 144 c 128,-1,105
 381 133 381 133 381 125 c 2,106,-1
 372 66 l 1,107,-1
 454 66 l 1,108,-1
 452 161 l 2,109,110
 452 174 452 174 465 184 c 0,111,112
 475 195 475 195 489 200 c 0,113,114
 496 203 496 203 504 203 c 0,115,116
 511 203 511 203 514 202 c 0,117,118
 524 201 524 201 524 186 c 2,119,-1
 524 69 l 1,120,-1
 570 66 l 2,121,122
 602 64 602 64 602 29 c 0,123,124
 602 15 602 15 594 4 c 0,125,126
 585 -3 585 -3 569 -2 c 2,127,-1
 524 0 l 1,128,-1
 526 -64 l 2,129,130
 527 -84 527 -84 517.5 -92 c 128,-1,131
 508 -100 508 -100 493 -100 c 0,132,133
 457 -100 457 -100 456 -66 c 2,134,-1
 454 -2 l 1,135,-1
 330 -2 l 2,136,137
 324 -2 324 -2 318.5 3 c 128,-1,138
 313 8 313 8 308.5 14.5 c 128,-1,139
 304 21 304 21 302 29 c 128,-1,140
 300 37 300 37 300 43 c 0,141,142
 303 66 303 66 305 82.5 c 128,-1,143
 307 99 307 99 309 110 c 0,144,145
 316 168 316 168 318 224 c 0,146,147
 318 232 318 232 318 249 c 256,148,149
 318 266 318 266 317 294 c 0,150,151
 318 312 318 312 351 312 c 0,152,153
 385 313 385 313 385 292 c 0,97,98
EndSplineSet
Validated: 33
EndChar

StartChar: questiondown
Encoding: 191 191 130
Width: 600
GlyphClass: 2
Flags: W
LayerCount: 2
Fore
SplineSet
146 -20 m 0,0,1
 146 26 146 26 171 72 c 0,2,3
 184 100 184 100 225 150 c 0,4,5
 265 200 265 200 280 229 c 0,6,7
 285 239 285 239 292 266 c 0,8,9
 298 290 298 290 306 302 c 0,10,11
 320 316 320 316 342 316 c 0,12,13
 360 316 360 316 373.5 304.5 c 128,-1,14
 387 293 387 293 387 275 c 0,15,16
 387 210 387 210 289 86 c 0,17,18
 282 79 282 79 273 67.5 c 128,-1,19
 264 56 264 56 253 40 c 0,20,21
 244 22 244 22 244 -6 c 0,22,23
 244 -41 244 -41 264 -61.5 c 128,-1,24
 284 -82 284 -82 319 -82 c 0,25,26
 345 -82 345 -82 370 -66 c 0,27,28
 407 -41 407 -41 415 -39 c 1,29,30
 453 -51 453 -51 453 -91 c 0,31,32
 453 -125 453 -125 405 -150 c 0,33,34
 364 -173 364 -173 327 -173 c 0,35,36
 255 -173 255 -173 215 -148 c 0,37,38
 173 -122 173 -122 153 -54 c 0,39,40
 146 -32 146 -32 146 -20 c 0,0,1
286 447 m 0,41,42
 286 472 286 472 302.5 490 c 128,-1,43
 319 508 319 508 345 508 c 0,44,45
 366 508 366 508 383 491.5 c 128,-1,46
 400 475 400 475 400 454 c 0,47,48
 400 429 400 429 385 410 c 0,49,50
 368 390 368 390 345 390 c 0,51,52
 335 390 335 390 324.5 395 c 128,-1,53
 314 400 314 400 305.5 408.5 c 128,-1,54
 297 417 297 417 291.5 427 c 128,-1,55
 286 437 286 437 286 447 c 0,41,42
EndSplineSet
Validated: 1
EndChar

StartChar: Agrave
Encoding: 192 192 131
Width: 600
GlyphClass: 2
Flags: W
LayerCount: 2
Fore
SplineSet
533 27 m 0,0,1
 533 -4 533 -4 491 -4 c 0,2,3
 453 -4 453 -4 443 26 c 2,4,-1
 390 193 l 1,5,-1
 213 193 l 1,6,-1
 154 29 l 2,7,8
 142 -6 142 -6 108 -6 c 0,9,10
 67 -6 67 -6 67 27 c 0,11,12
 67 50 67 50 157 312 c 1,13,14
 229 538 229 538 262 636 c 0,15,16
 277 681 277 681 304 681 c 0,17,18
 328 681 328 681 343 640 c 0,19,20
 354 611 354 611 380 530 c 128,-1,21
 406 449 406 449 449 313 c 0,22,23
 533 39 533 39 533 27 c 0,0,1
371 280 m 1,24,-1
 303 501 l 1,25,-1
 238 280 l 1,26,-1
 371 280 l 1,24,-1
404 759 m 0,27,28
 404 742 404 742 389.5 727.5 c 128,-1,29
 375 713 375 713 358 713 c 0,30,31
 340 713 340 713 199 862 c 0,32,33
 188 873 188 873 188 886 c 0,34,35
 188 901 188 901 200.5 914 c 128,-1,36
 213 927 213 927 228 927 c 0,37,38
 253 927 253 927 397 778 c 0,39,40
 404 771 404 771 404 759 c 0,27,28
EndSplineSet
Validated: 1
EndChar

StartChar: Aacute
Encoding: 193 193 132
Width: 600
GlyphClass: 2
Flags: W
LayerCount: 2
Fore
SplineSet
533 27 m 0,0,1
 533 -4 533 -4 491 -4 c 0,2,3
 453 -4 453 -4 443 26 c 2,4,-1
 390 193 l 1,5,-1
 213 193 l 1,6,-1
 154 29 l 2,7,8
 142 -6 142 -6 108 -6 c 0,9,10
 67 -6 67 -6 67 27 c 0,11,12
 67 50 67 50 157 312 c 1,13,14
 229 538 229 538 262 636 c 0,15,16
 277 681 277 681 304 681 c 0,17,18
 328 681 328 681 343 640 c 0,19,20
 354 611 354 611 380 530 c 128,-1,21
 406 449 406 449 449 313 c 0,22,23
 533 39 533 39 533 27 c 0,0,1
371 280 m 1,24,-1
 303 501 l 1,25,-1
 238 280 l 1,26,-1
 371 280 l 1,24,-1
188 766 m 0,27,28
 188 777 188 777 196 785 c 0,29,30
 338 933 338 933 364 933 c 0,31,32
 381 933 381 933 395 918.5 c 128,-1,33
 409 904 409 904 409 887 c 0,34,35
 409 874 409 874 399 864 c 0,36,37
 256 720 256 720 234 720 c 0,38,39
 217 720 217 720 202.5 734.5 c 128,-1,40
 188 749 188 749 188 766 c 0,27,28
EndSplineSet
Validated: 1
EndChar

StartChar: Acircumflex
Encoding: 194 194 133
Width: 600
GlyphClass: 2
Flags: W
LayerCount: 2
Fore
SplineSet
533 27 m 0,0,1
 533 -4 533 -4 491 -4 c 0,2,3
 453 -4 453 -4 443 26 c 2,4,-1
 390 193 l 1,5,-1
 213 193 l 1,6,-1
 154 29 l 2,7,8
 142 -6 142 -6 108 -6 c 0,9,10
 67 -6 67 -6 67 27 c 0,11,12
 67 50 67 50 157 312 c 1,13,14
 229 538 229 538 262 636 c 0,15,16
 277 681 277 681 304 681 c 0,17,18
 328 681 328 681 343 640 c 0,19,20
 354 611 354 611 380 530 c 128,-1,21
 406 449 406 449 449 313 c 0,22,23
 533 39 533 39 533 27 c 0,0,1
371 280 m 1,24,-1
 303 501 l 1,25,-1
 238 280 l 1,26,-1
 371 280 l 1,24,-1
448 755 m 0,27,28
 448 737 448 737 433.5 721 c 128,-1,29
 419 705 419 705 402 705 c 256,30,31
 385 705 385 705 348 745 c 0,32,33
 336 759 336 759 324 772 c 128,-1,34
 312 785 312 785 301 799 c 1,35,-1
 253 745 l 2,36,37
 216 705 216 705 195 705 c 0,38,39
 177 705 177 705 163 719 c 128,-1,40
 149 733 149 733 149 751 c 0,41,42
 149 765 149 765 218 843 c 128,-1,43
 287 921 287 921 302 921 c 256,44,45
 317 921 317 921 443 768 c 0,46,47
 448 763 448 763 448 755 c 0,27,28
EndSplineSet
Validated: 1
EndChar

StartChar: Atilde
Encoding: 195 195 134
Width: 600
GlyphClass: 2
Flags: W
LayerCount: 2
Fore
SplineSet
533 27 m 0,0,1
 533 -4 533 -4 491 -4 c 0,2,3
 453 -4 453 -4 443 26 c 2,4,-1
 390 193 l 1,5,-1
 213 193 l 1,6,-1
 154 29 l 2,7,8
 142 -6 142 -6 108 -6 c 0,9,10
 67 -6 67 -6 67 27 c 0,11,12
 67 50 67 50 157 312 c 1,13,14
 229 538 229 538 262 636 c 0,15,16
 277 681 277 681 304 681 c 0,17,18
 328 681 328 681 343 640 c 0,19,20
 354 611 354 611 380 530 c 128,-1,21
 406 449 406 449 449 313 c 0,22,23
 533 39 533 39 533 27 c 0,0,1
371 280 m 1,24,-1
 303 501 l 1,25,-1
 238 280 l 1,26,-1
 371 280 l 1,24,-1
480 847 m 0,27,28
 480 834 480 834 473 820 c 0,29,30
 457 778 457 778 433 762.5 c 128,-1,31
 409 747 409 747 364 747 c 0,32,33
 338 747 338 747 280 773 c 128,-1,34
 222 799 222 799 196 799 c 0,35,36
 183 799 183 799 169 782 c 0,37,38
 158 770 158 770 152.5 764 c 128,-1,39
 147 758 147 758 146 757 c 0,40,41
 132 757 132 757 123 773 c 0,42,43
 115 791 115 791 115 803 c 0,44,45
 115 831 115 831 144 854 c 0,46,47
 172 878 172 878 202 878 c 0,48,49
 230 878 230 878 279 850 c 128,-1,50
 328 822 328 822 357 822 c 0,51,52
 388 822 388 822 408 839 c 0,53,54
 414 845 414 845 431 871 c 0,55,56
 441 889 441 889 455 889 c 0,57,58
 480 889 480 889 480 847 c 0,27,28
EndSplineSet
Validated: 1
EndChar

StartChar: Adieresis
Encoding: 196 196 135
Width: 600
GlyphClass: 2
Flags: W
LayerCount: 2
Fore
SplineSet
533 27 m 0,0,1
 533 -4 533 -4 491 -4 c 0,2,3
 453 -4 453 -4 443 26 c 2,4,-1
 390 193 l 1,5,-1
 213 193 l 1,6,-1
 154 29 l 2,7,8
 142 -6 142 -6 108 -6 c 0,9,10
 67 -6 67 -6 67 27 c 0,11,12
 67 50 67 50 157 312 c 1,13,14
 229 538 229 538 262 636 c 0,15,16
 277 681 277 681 304 681 c 0,17,18
 328 681 328 681 343 640 c 0,19,20
 354 611 354 611 380 530 c 128,-1,21
 406 449 406 449 449 313 c 0,22,23
 533 39 533 39 533 27 c 0,0,1
371 280 m 1,24,-1
 303 501 l 1,25,-1
 238 280 l 1,26,-1
 371 280 l 1,24,-1
230 793 m 0,27,28
 230 778 230 778 224 765 c 128,-1,29
 218 752 218 752 207.5 741.5 c 128,-1,30
 197 731 197 731 184 725 c 128,-1,31
 171 719 171 719 156 719 c 0,32,33
 130 719 130 719 106 743 c 128,-1,34
 82 767 82 767 82 793 c 0,35,36
 82 817 82 817 106.5 842.5 c 128,-1,37
 131 868 131 868 156 868 c 0,38,39
 170 868 170 868 183 861.5 c 128,-1,40
 196 855 196 855 206.5 844.5 c 128,-1,41
 217 834 217 834 223.5 820.5 c 128,-1,42
 230 807 230 807 230 793 c 0,27,28
512 793 m 0,43,44
 512 778 512 778 506 765 c 128,-1,45
 500 752 500 752 489.5 741.5 c 128,-1,46
 479 731 479 731 466 725 c 128,-1,47
 453 719 453 719 438 719 c 0,48,49
 412 719 412 719 388 743 c 128,-1,50
 364 767 364 767 364 793 c 0,51,52
 364 817 364 817 388.5 842.5 c 128,-1,53
 413 868 413 868 438 868 c 0,54,55
 452 868 452 868 465 861.5 c 128,-1,56
 478 855 478 855 488.5 844.5 c 128,-1,57
 499 834 499 834 505.5 820.5 c 128,-1,58
 512 807 512 807 512 793 c 0,43,44
EndSplineSet
Validated: 1
EndChar

StartChar: Aring
Encoding: 197 197 136
Width: 600
GlyphClass: 2
Flags: W
LayerCount: 2
Fore
SplineSet
533 27 m 0,0,1
 533 -4 533 -4 491 -4 c 0,2,3
 453 -4 453 -4 443 26 c 2,4,-1
 390 193 l 1,5,-1
 213 193 l 1,6,-1
 154 29 l 2,7,8
 142 -6 142 -6 108 -6 c 0,9,10
 67 -6 67 -6 67 27 c 0,11,12
 67 50 67 50 157 312 c 1,13,14
 229 538 229 538 262 636 c 0,15,16
 277 681 277 681 304 681 c 0,17,18
 328 681 328 681 343 640 c 0,19,20
 354 611 354 611 380 530 c 128,-1,21
 406 449 406 449 449 313 c 0,22,23
 533 39 533 39 533 27 c 0,0,1
371 280 m 1,24,-1
 303 501 l 1,25,-1
 238 280 l 1,26,-1
 371 280 l 1,24,-1
422 800 m 0,27,28
 422 746 422 746 390 715.5 c 128,-1,29
 358 685 358 685 304 685 c 0,30,31
 280 685 280 685 259.5 694 c 128,-1,32
 239 703 239 703 224 719 c 128,-1,33
 209 735 209 735 200.5 756 c 128,-1,34
 192 777 192 777 192 801 c 0,35,36
 192 852 192 852 225 885 c 128,-1,37
 258 918 258 918 309 918 c 0,38,39
 361 918 361 918 392 884 c 0,40,41
 422 852 422 852 422 800 c 0,27,28
367 798 m 0,42,43
 367 856 367 856 309 856 c 0,44,45
 283 856 283 856 265.5 841 c 128,-1,46
 248 826 248 826 248 800 c 0,47,48
 248 773 248 773 265 755.5 c 128,-1,49
 282 738 282 738 310 738 c 0,50,51
 335 738 335 738 351 755.5 c 128,-1,52
 367 773 367 773 367 798 c 0,42,43
EndSplineSet
Validated: 1
EndChar

StartChar: AE
Encoding: 198 198 137
Width: 600
GlyphClass: 2
Flags: W
LayerCount: 2
Fore
SplineSet
540 44 m 0,0,1
 540 0 540 0 479 0 c 2,2,-1
 324 0 l 2,3,4
 276 0 276 0 280 139 c 0,5,6
 280 157 280 157 280 168 c 128,-1,7
 280 179 280 179 280 203 c 128,-1,8
 280 227 280 227 279.5 244.5 c 128,-1,9
 279 262 279 262 279 272 c 1,10,-1
 220 272 l 1,11,-1
 153 21 l 2,12,13
 145 -3 145 -3 99 -3 c 0,14,15
 60 -3 60 -3 60 17 c 0,16,17
 60 42 60 42 124 285 c 0,18,19
 144 360 144 360 164.5 434.5 c 128,-1,20
 185 509 185 509 205 584 c 0,21,22
 227 671 227 671 286 671 c 2,23,-1
 491 670 l 2,24,25
 537 670 537 670 537 626 c 0,26,27
 537 607 537 607 523.5 595.5 c 128,-1,28
 510 584 510 584 491 584 c 2,29,-1
 366 584 l 1,30,-1
 367 359 l 1,31,32
 374 359 374 359 389 360 c 128,-1,33
 404 361 404 361 417 359 c 0,34,35
 473 361 473 361 473 317 c 0,36,37
 473 271 473 271 411 272 c 0,38,39
 401 271 401 271 386.5 271.5 c 128,-1,40
 372 272 372 272 366 272 c 1,41,-1
 366 80 l 1,42,43
 391 80 391 80 398 80 c 128,-1,44
 405 80 405 80 488 80 c 0,45,46
 539 80 539 80 540 44 c 0,0,1
280 359 m 1,47,-1
 279 536 l 1,48,-1
 236 359 l 1,49,-1
 280 359 l 1,47,-1
EndSplineSet
Validated: 33
EndChar

StartChar: Ccedilla
Encoding: 199 199 138
Width: 600
GlyphClass: 2
Flags: W
LayerCount: 2
Fore
SplineSet
522 507 m 0,0,1
 522 443 522 443 482 443 c 0,2,3
 470 443 470 443 457 479 c 0,4,5
 437 527 437 527 421 548 c 0,6,7
 390 585 390 585 339 585 c 0,8,9
 263 585 263 585 209 505 c 0,10,11
 162 434 162 434 162 354 c 0,12,13
 162 253 162 253 210 165 c 1,14,15
 264 83 264 83 359 83 c 0,16,17
 398 83 398 83 424 115 c 0,18,19
 429 123 429 123 437 138 c 128,-1,20
 445 153 445 153 456 176 c 0,21,22
 471 208 471 208 483 208 c 0,23,24
 521 208 521 208 521 165 c 0,25,26
 521 105 521 105 480 55 c 0,27,28
 440 7 440 7 379 -2 c 1,29,-1
 379 -50 l 1,30,31
 424 -61 424 -61 424 -115 c 0,32,33
 424 -134 424 -134 416.5 -151 c 128,-1,34
 409 -168 409 -168 396.5 -180.5 c 128,-1,35
 384 -193 384 -193 367 -200 c 128,-1,36
 350 -207 350 -207 332 -207 c 0,37,38
 302 -207 302 -207 271 -195 c 0,39,40
 232 -179 232 -179 232 -154 c 0,41,42
 232 -140 232 -140 241 -126.5 c 128,-1,43
 250 -113 250 -113 264 -113 c 0,44,45
 270 -113 270 -113 289 -123 c 0,46,47
 309 -134 309 -134 321 -134 c 0,48,49
 341 -134 341 -134 341 -110 c 0,50,51
 341 -90 341 -90 327 -71 c 128,-1,52
 313 -52 313 -52 294 -50 c 1,53,-1
 294 1 l 1,54,55
 177 23 177 23 121 139 c 0,56,57
 77 232 77 232 77 366 c 0,58,59
 77 480 77 480 147 572 c 0,60,61
 222 673 222 673 332 673 c 0,62,63
 415 673 415 673 455 642 c 0,64,65
 492 610 492 610 518 531 c 0,66,67
 522 519 522 519 522 507 c 0,0,1
EndSplineSet
Validated: 1
EndChar

StartChar: Egrave
Encoding: 200 200 139
Width: 600
GlyphClass: 2
Flags: W
LayerCount: 2
Fore
SplineSet
444 0 m 2,0,1
 444 0 444 0 201 0 c 0,2,3
 162 0 162 0 138.5 24 c 128,-1,4
 115 48 115 48 115 87 c 2,5,-1
 115 584 l 2,6,7
 115 625 115 625 136 647 c 128,-1,8
 157 669 157 669 200 670 c 2,9,-1
 441 671 l 2,10,11
 480 671 480 671 480 627 c 0,12,13
 480 584 480 584 442 584 c 2,14,-1
 202 584 l 1,15,-1
 202 395 l 1,16,-1
 358 395 l 2,17,18
 394 395 394 395 394 349 c 0,19,20
 394 325 394 325 384 316.5 c 128,-1,21
 374 308 374 308 354 308 c 2,22,-1
 202 308 l 1,23,-1
 202 87 l 1,24,-1
 444 87 l 1,25,26
 484 65 484 65 484 44 c 0,27,28
 484 0 484 0 444 0 c 2,0,1
404 759 m 0,29,30
 404 742 404 742 389.5 727.5 c 128,-1,31
 375 713 375 713 358 713 c 0,32,33
 340 713 340 713 199 862 c 0,34,35
 188 873 188 873 188 886 c 0,36,37
 188 901 188 901 200.5 914 c 128,-1,38
 213 927 213 927 228 927 c 0,39,40
 253 927 253 927 397 778 c 0,41,42
 404 771 404 771 404 759 c 0,29,30
EndSplineSet
Validated: 1
EndChar

StartChar: Eacute
Encoding: 201 201 140
Width: 600
GlyphClass: 2
Flags: W
LayerCount: 2
Fore
SplineSet
444 0 m 2,0,1
 444 0 444 0 201 0 c 0,2,3
 162 0 162 0 138.5 24 c 128,-1,4
 115 48 115 48 115 87 c 2,5,-1
 115 584 l 2,6,7
 115 625 115 625 136 647 c 128,-1,8
 157 669 157 669 200 670 c 2,9,-1
 441 671 l 2,10,11
 480 671 480 671 480 627 c 0,12,13
 480 584 480 584 442 584 c 2,14,-1
 202 584 l 1,15,-1
 202 395 l 1,16,-1
 358 395 l 2,17,18
 394 395 394 395 394 349 c 0,19,20
 394 325 394 325 384 316.5 c 128,-1,21
 374 308 374 308 354 308 c 2,22,-1
 202 308 l 1,23,-1
 202 87 l 1,24,-1
 444 87 l 1,25,26
 484 65 484 65 484 44 c 0,27,28
 484 0 484 0 444 0 c 2,0,1
188 766 m 0,29,30
 188 777 188 777 196 785 c 0,31,32
 338 933 338 933 364 933 c 0,33,34
 381 933 381 933 395 918.5 c 128,-1,35
 409 904 409 904 409 887 c 0,36,37
 409 874 409 874 399 864 c 0,38,39
 256 720 256 720 234 720 c 0,40,41
 217 720 217 720 202.5 734.5 c 128,-1,42
 188 749 188 749 188 766 c 0,29,30
EndSplineSet
Validated: 1
EndChar

StartChar: Ecircumflex
Encoding: 202 202 141
Width: 600
GlyphClass: 2
Flags: W
LayerCount: 2
Fore
SplineSet
444 0 m 2,0,1
 444 0 444 0 201 0 c 0,2,3
 162 0 162 0 138.5 24 c 128,-1,4
 115 48 115 48 115 87 c 2,5,-1
 115 584 l 2,6,7
 115 625 115 625 136 647 c 128,-1,8
 157 669 157 669 200 670 c 2,9,-1
 441 671 l 2,10,11
 480 671 480 671 480 627 c 0,12,13
 480 584 480 584 442 584 c 2,14,-1
 202 584 l 1,15,-1
 202 395 l 1,16,-1
 358 395 l 2,17,18
 394 395 394 395 394 349 c 0,19,20
 394 325 394 325 384 316.5 c 128,-1,21
 374 308 374 308 354 308 c 2,22,-1
 202 308 l 1,23,-1
 202 87 l 1,24,-1
 444 87 l 1,25,26
 484 65 484 65 484 44 c 0,27,28
 484 0 484 0 444 0 c 2,0,1
448 755 m 0,29,30
 448 737 448 737 433.5 721 c 128,-1,31
 419 705 419 705 402 705 c 256,32,33
 385 705 385 705 348 745 c 0,34,35
 336 759 336 759 324 772 c 128,-1,36
 312 785 312 785 301 799 c 1,37,-1
 253 745 l 2,38,39
 216 705 216 705 195 705 c 0,40,41
 177 705 177 705 163 719 c 128,-1,42
 149 733 149 733 149 751 c 0,43,44
 149 765 149 765 218 843 c 128,-1,45
 287 921 287 921 302 921 c 256,46,47
 317 921 317 921 443 768 c 0,48,49
 448 763 448 763 448 755 c 0,29,30
EndSplineSet
Validated: 1
EndChar

StartChar: Edieresis
Encoding: 203 203 142
Width: 600
GlyphClass: 2
Flags: W
LayerCount: 2
Fore
SplineSet
444 0 m 2,0,1
 444 0 444 0 201 0 c 0,2,3
 162 0 162 0 138.5 24 c 128,-1,4
 115 48 115 48 115 87 c 2,5,-1
 115 584 l 2,6,7
 115 625 115 625 136 647 c 128,-1,8
 157 669 157 669 200 670 c 2,9,-1
 441 671 l 2,10,11
 480 671 480 671 480 627 c 0,12,13
 480 584 480 584 442 584 c 2,14,-1
 202 584 l 1,15,-1
 202 395 l 1,16,-1
 358 395 l 2,17,18
 394 395 394 395 394 349 c 0,19,20
 394 325 394 325 384 316.5 c 128,-1,21
 374 308 374 308 354 308 c 2,22,-1
 202 308 l 1,23,-1
 202 87 l 1,24,-1
 444 87 l 1,25,26
 484 65 484 65 484 44 c 0,27,28
 484 0 484 0 444 0 c 2,0,1
230 793 m 0,29,30
 230 778 230 778 224 765 c 128,-1,31
 218 752 218 752 207.5 741.5 c 128,-1,32
 197 731 197 731 184 725 c 128,-1,33
 171 719 171 719 156 719 c 0,34,35
 130 719 130 719 106 743 c 128,-1,36
 82 767 82 767 82 793 c 0,37,38
 82 817 82 817 106.5 842.5 c 128,-1,39
 131 868 131 868 156 868 c 0,40,41
 170 868 170 868 183 861.5 c 128,-1,42
 196 855 196 855 206.5 844.5 c 128,-1,43
 217 834 217 834 223.5 820.5 c 128,-1,44
 230 807 230 807 230 793 c 0,29,30
512 793 m 0,45,46
 512 778 512 778 506 765 c 128,-1,47
 500 752 500 752 489.5 741.5 c 128,-1,48
 479 731 479 731 466 725 c 128,-1,49
 453 719 453 719 438 719 c 0,50,51
 412 719 412 719 388 743 c 128,-1,52
 364 767 364 767 364 793 c 0,53,54
 364 817 364 817 388.5 842.5 c 128,-1,55
 413 868 413 868 438 868 c 0,56,57
 452 868 452 868 465 861.5 c 128,-1,58
 478 855 478 855 488.5 844.5 c 128,-1,59
 499 834 499 834 505.5 820.5 c 128,-1,60
 512 807 512 807 512 793 c 0,45,46
EndSplineSet
Validated: 1
EndChar

StartChar: Igrave
Encoding: 204 204 143
Width: 600
GlyphClass: 2
Flags: W
LayerCount: 2
Fore
SplineSet
486 42 m 0,0,1
 486 0 486 0 452 0 c 2,2,-1
 142 0 l 2,3,4
 113 0 113 0 113 42 c 0,5,6
 113 58 113 58 122 72 c 0,7,8
 132 87 132 87 148 87 c 2,9,-1
 255 87 l 1,10,-1
 255 583 l 1,11,-1
 152 583 l 2,12,13
 135 583 135 583 124 597.5 c 128,-1,14
 113 612 113 612 113 630 c 0,15,16
 113 670 113 670 139 670 c 2,17,-1
 455 670 l 2,18,19
 485 670 485 670 485 626 c 0,20,21
 485 583 485 583 455 583 c 2,22,-1
 340 583 l 1,23,-1
 340 87 l 1,24,-1
 453 87 l 2,25,26
 469 87 469 87 478 72 c 0,27,28
 486 58 486 58 486 42 c 0,0,1
404 759 m 0,29,30
 404 742 404 742 389.5 727.5 c 128,-1,31
 375 713 375 713 358 713 c 0,32,33
 340 713 340 713 199 862 c 0,34,35
 188 873 188 873 188 886 c 0,36,37
 188 901 188 901 200.5 914 c 128,-1,38
 213 927 213 927 228 927 c 0,39,40
 253 927 253 927 397 778 c 0,41,42
 404 771 404 771 404 759 c 0,29,30
EndSplineSet
Validated: 1
EndChar

StartChar: Iacute
Encoding: 205 205 144
Width: 600
GlyphClass: 2
Flags: W
LayerCount: 2
Fore
SplineSet
486 42 m 0,0,1
 486 0 486 0 452 0 c 2,2,-1
 142 0 l 2,3,4
 113 0 113 0 113 42 c 0,5,6
 113 58 113 58 122 72 c 0,7,8
 132 87 132 87 148 87 c 2,9,-1
 255 87 l 1,10,-1
 255 583 l 1,11,-1
 152 583 l 2,12,13
 135 583 135 583 124 597.5 c 128,-1,14
 113 612 113 612 113 630 c 0,15,16
 113 670 113 670 139 670 c 2,17,-1
 455 670 l 2,18,19
 485 670 485 670 485 626 c 0,20,21
 485 583 485 583 455 583 c 2,22,-1
 340 583 l 1,23,-1
 340 87 l 1,24,-1
 453 87 l 2,25,26
 469 87 469 87 478 72 c 0,27,28
 486 58 486 58 486 42 c 0,0,1
188 759 m 0,29,30
 188 770 188 770 196 778 c 0,31,32
 338 926 338 926 364 926 c 0,33,34
 381 926 381 926 395 911.5 c 128,-1,35
 409 897 409 897 409 880 c 0,36,37
 409 867 409 867 399 857 c 0,38,39
 256 713 256 713 234 713 c 0,40,41
 217 713 217 713 202.5 727.5 c 128,-1,42
 188 742 188 742 188 759 c 0,29,30
EndSplineSet
Validated: 1
EndChar

StartChar: Icircumflex
Encoding: 206 206 145
Width: 600
GlyphClass: 2
Flags: W
LayerCount: 2
Fore
SplineSet
486 42 m 0,0,1
 486 0 486 0 452 0 c 2,2,-1
 142 0 l 2,3,4
 113 0 113 0 113 42 c 0,5,6
 113 58 113 58 122 72 c 0,7,8
 132 87 132 87 148 87 c 2,9,-1
 255 87 l 1,10,-1
 255 583 l 1,11,-1
 152 583 l 2,12,13
 135 583 135 583 124 597.5 c 128,-1,14
 113 612 113 612 113 630 c 0,15,16
 113 670 113 670 139 670 c 2,17,-1
 455 670 l 2,18,19
 485 670 485 670 485 626 c 0,20,21
 485 583 485 583 455 583 c 2,22,-1
 340 583 l 1,23,-1
 340 87 l 1,24,-1
 453 87 l 2,25,26
 469 87 469 87 478 72 c 0,27,28
 486 58 486 58 486 42 c 0,0,1
448 755 m 0,29,30
 448 737 448 737 433.5 721 c 128,-1,31
 419 705 419 705 402 705 c 256,32,33
 385 705 385 705 348 745 c 0,34,35
 336 759 336 759 324 772 c 128,-1,36
 312 785 312 785 301 799 c 1,37,-1
 253 745 l 2,38,39
 216 705 216 705 195 705 c 0,40,41
 177 705 177 705 163 719 c 128,-1,42
 149 733 149 733 149 751 c 0,43,44
 149 765 149 765 218 843 c 128,-1,45
 287 921 287 921 302 921 c 256,46,47
 317 921 317 921 443 768 c 0,48,49
 448 763 448 763 448 755 c 0,29,30
EndSplineSet
Validated: 1
EndChar

StartChar: Idieresis
Encoding: 207 207 146
Width: 600
GlyphClass: 2
Flags: W
LayerCount: 2
Fore
SplineSet
486 42 m 0,0,1
 486 0 486 0 452 0 c 2,2,-1
 142 0 l 2,3,4
 113 0 113 0 113 42 c 0,5,6
 113 58 113 58 122 72 c 0,7,8
 132 87 132 87 148 87 c 2,9,-1
 255 87 l 1,10,-1
 255 583 l 1,11,-1
 152 583 l 2,12,13
 135 583 135 583 124 597.5 c 128,-1,14
 113 612 113 612 113 630 c 0,15,16
 113 670 113 670 139 670 c 2,17,-1
 455 670 l 2,18,19
 485 670 485 670 485 626 c 0,20,21
 485 583 485 583 455 583 c 2,22,-1
 340 583 l 1,23,-1
 340 87 l 1,24,-1
 453 87 l 2,25,26
 469 87 469 87 478 72 c 0,27,28
 486 58 486 58 486 42 c 0,0,1
243 824 m 0,29,30
 243 809 243 809 237 796 c 128,-1,31
 231 783 231 783 220.5 772.5 c 128,-1,32
 210 762 210 762 197 756 c 128,-1,33
 184 750 184 750 169 750 c 0,34,35
 143 750 143 750 119 774 c 128,-1,36
 95 798 95 798 95 824 c 0,37,38
 95 848 95 848 119.5 873.5 c 128,-1,39
 144 899 144 899 169 899 c 0,40,41
 183 899 183 899 196 892.5 c 128,-1,42
 209 886 209 886 219.5 875.5 c 128,-1,43
 230 865 230 865 236.5 851.5 c 128,-1,44
 243 838 243 838 243 824 c 0,29,30
525 824 m 0,45,46
 525 809 525 809 519 796 c 128,-1,47
 513 783 513 783 502.5 772.5 c 128,-1,48
 492 762 492 762 479 756 c 128,-1,49
 466 750 466 750 451 750 c 0,50,51
 425 750 425 750 401 774 c 128,-1,52
 377 798 377 798 377 824 c 0,53,54
 377 848 377 848 401.5 873.5 c 128,-1,55
 426 899 426 899 451 899 c 0,56,57
 465 899 465 899 478 892.5 c 128,-1,58
 491 886 491 886 501.5 875.5 c 128,-1,59
 512 865 512 865 518.5 851.5 c 128,-1,60
 525 838 525 838 525 824 c 0,45,46
EndSplineSet
Validated: 1
EndChar

StartChar: Eth
Encoding: 208 208 147
Width: 600
GlyphClass: 2
Flags: W
LayerCount: 2
Fore
SplineSet
194 286 m 1,0,-1
 194 84 l 1,1,2
 211 84 211 84 236 84 c 256,3,4
 261 84 261 84 296 83 c 0,5,6
 345 83 345 83 389 107 c 0,7,8
 407 117 407 117 422 130 c 0,9,10
 471 179 471 179 483 229 c 0,11,12
 487 246 487 246 487 274 c 0,13,14
 487 299 487 299 486.5 317.5 c 128,-1,15
 486 336 486 336 485 349 c 0,16,17
 483 386 483 386 470 424 c 0,18,19
 443 507 443 507 374 548 c 0,20,21
 347 562 347 562 286 573 c 0,22,23
 280 574 280 574 268 575 c 128,-1,24
 256 576 256 576 238 578 c 0,25,26
 202 581 202 581 195 581 c 1,27,-1
 195 373 l 1,28,-1
 305 373 l 2,29,30
 329 373 329 373 342 357 c 0,31,32
 354 343 354 343 354 328 c 0,33,34
 355 314 355 314 343 298 c 0,35,36
 332 286 332 286 310 286 c 2,37,-1
 194 286 l 1,0,-1
108 286 m 1,38,-1
 56 286 l 2,39,40
 29 286 29 286 26 329 c 0,41,42
 25 343 25 343 33 358 c 0,43,44
 40 374 40 374 57 374 c 2,45,-1
 108 374 l 1,46,-1
 108 583 l 2,47,48
 108 612 108 612 119 632 c 0,49,50
 126 645 126 645 145 656.5 c 128,-1,51
 164 668 164 668 193 668 c 0,52,53
 219 668 219 668 246 666.5 c 128,-1,54
 273 665 273 665 301 661 c 0,55,56
 346 657 346 657 384 640 c 0,57,58
 497 593 497 593 543 482 c 0,59,60
 574 408 574 408 574 314 c 0,61,62
 574 273 574 273 568 228 c 0,63,64
 558 155 558 155 520.5 109 c 128,-1,65
 483 63 483 63 414 27 c 0,66,67
 395 17 395 17 381 11.5 c 128,-1,68
 367 6 367 6 356 4 c 0,69,70
 346 2 346 2 332 0.5 c 128,-1,71
 318 -1 318 -1 299 -3 c 0,72,73
 282 -4 282 -4 269 -4.5 c 128,-1,74
 256 -5 256 -5 246 -4 c 0,75,76
 220 -3 220 -3 207 -2.5 c 128,-1,77
 194 -2 194 -2 194 -2 c 2,78,79
 159 -2 159 -2 146 4 c 0,80,81
 113 21 113 21 109 57 c 0,82,83
 108 65 108 65 108 72 c 256,84,85
 108 79 108 79 108 87 c 2,86,-1
 108 286 l 1,38,-1
EndSplineSet
Validated: 33
EndChar

StartChar: Ntilde
Encoding: 209 209 148
Width: 600
GlyphClass: 2
Flags: W
LayerCount: 2
Fore
SplineSet
509 37 m 1,0,-1
 509 41 l 1,1,2
 509 -14 509 -14 485 -14 c 0,3,4
 463 -14 463 -14 430 48 c 2,5,-1
 177 543 l 1,6,-1
 177 28 l 2,7,8
 177 -12 177 -12 134 -12 c 0,9,10
 118 -12 118 -12 104 -2 c 128,-1,11
 90 8 90 8 90 23 c 2,12,-1
 90 611 l 2,13,14
 90 628 90 628 96 643.5 c 128,-1,15
 102 659 102 659 115 665 c 0,16,17
 133 673 133 673 172 673 c 0,18,19
 194 673 194 673 238 586 c 2,20,-1
 422 216 l 1,21,-1
 422 634 l 2,22,23
 422 652 422 652 436.5 665.5 c 128,-1,24
 451 679 451 679 469 679 c 0,25,26
 509 679 509 679 509 634 c 2,27,-1
 509 37 l 1,0,-1
480 847 m 0,28,29
 480 834 480 834 473 820 c 0,30,31
 457 778 457 778 433 762.5 c 128,-1,32
 409 747 409 747 364 747 c 0,33,34
 338 747 338 747 280 773 c 128,-1,35
 222 799 222 799 196 799 c 0,36,37
 183 799 183 799 169 782 c 0,38,39
 158 770 158 770 152.5 764 c 128,-1,40
 147 758 147 758 146 757 c 0,41,42
 132 757 132 757 123 773 c 0,43,44
 115 791 115 791 115 803 c 0,45,46
 115 831 115 831 144 854 c 0,47,48
 172 878 172 878 202 878 c 0,49,50
 230 878 230 878 279 850 c 128,-1,51
 328 822 328 822 357 822 c 0,52,53
 388 822 388 822 408 839 c 0,54,55
 414 845 414 845 431 871 c 0,56,57
 441 889 441 889 455 889 c 0,58,59
 480 889 480 889 480 847 c 0,28,29
EndSplineSet
Validated: 5
EndChar

StartChar: Ograve
Encoding: 210 210 149
Width: 600
GlyphClass: 2
Flags: W
LayerCount: 2
Fore
SplineSet
560 335 m 0,0,1
 560 -3 560 -3 297 -3 c 0,2,3
 158 -3 158 -3 92 110 c 0,4,5
 39 202 39 202 39 352 c 0,6,7
 39 487 39 487 104 576 c 0,8,9
 178 677 178 677 307 677 c 256,10,11
 436 677 436 677 504 566 c 0,12,13
 560 472 560 472 560 335 c 0,0,1
473 338 m 0,14,15
 473 434 473 434 438 504 c 0,16,17
 394 593 394 593 307 593 c 0,18,19
 120 593 120 593 120 330 c 0,20,21
 120 79 120 79 302 79 c 0,22,23
 397 79 397 79 440 167 c 0,24,25
 473 231 473 231 473 338 c 0,14,15
404 759 m 0,26,27
 404 742 404 742 389.5 727.5 c 128,-1,28
 375 713 375 713 358 713 c 0,29,30
 340 713 340 713 199 862 c 0,31,32
 188 873 188 873 188 886 c 0,33,34
 188 901 188 901 200.5 914 c 128,-1,35
 213 927 213 927 228 927 c 0,36,37
 253 927 253 927 397 778 c 0,38,39
 404 771 404 771 404 759 c 0,26,27
EndSplineSet
Validated: 1
EndChar

StartChar: OAcute
Encoding: 211 211 150
Width: 600
GlyphClass: 2
Flags: W
LayerCount: 2
Fore
SplineSet
560 335 m 0,0,1
 560 -3 560 -3 297 -3 c 0,2,3
 158 -3 158 -3 92 110 c 0,4,5
 39 202 39 202 39 352 c 0,6,7
 39 487 39 487 104 576 c 0,8,9
 178 677 178 677 307 677 c 256,10,11
 436 677 436 677 504 566 c 0,12,13
 560 472 560 472 560 335 c 0,0,1
473 338 m 0,14,15
 473 434 473 434 438 504 c 0,16,17
 394 593 394 593 307 593 c 0,18,19
 120 593 120 593 120 330 c 0,20,21
 120 79 120 79 302 79 c 0,22,23
 397 79 397 79 440 167 c 0,24,25
 473 231 473 231 473 338 c 0,14,15
188 759 m 0,26,27
 188 770 188 770 196 778 c 0,28,29
 338 926 338 926 364 926 c 0,30,31
 381 926 381 926 395 911.5 c 128,-1,32
 409 897 409 897 409 880 c 0,33,34
 409 867 409 867 399 857 c 0,35,36
 256 713 256 713 234 713 c 0,37,38
 217 713 217 713 202.5 727.5 c 128,-1,39
 188 742 188 742 188 759 c 0,26,27
EndSplineSet
Validated: 1
EndChar

StartChar: OCircumflex
Encoding: 212 212 151
Width: 600
GlyphClass: 2
Flags: W
LayerCount: 2
Fore
SplineSet
560 335 m 0,0,1
 560 -3 560 -3 297 -3 c 0,2,3
 158 -3 158 -3 92 110 c 0,4,5
 39 202 39 202 39 352 c 0,6,7
 39 487 39 487 104 576 c 0,8,9
 178 677 178 677 307 677 c 256,10,11
 436 677 436 677 504 566 c 0,12,13
 560 472 560 472 560 335 c 0,0,1
473 338 m 0,14,15
 473 434 473 434 438 504 c 0,16,17
 394 593 394 593 307 593 c 0,18,19
 120 593 120 593 120 330 c 0,20,21
 120 79 120 79 302 79 c 0,22,23
 397 79 397 79 440 167 c 0,24,25
 473 231 473 231 473 338 c 0,14,15
448 755 m 0,26,27
 448 737 448 737 433.5 721 c 128,-1,28
 419 705 419 705 402 705 c 256,29,30
 385 705 385 705 348 745 c 0,31,32
 336 759 336 759 324 772 c 128,-1,33
 312 785 312 785 301 799 c 1,34,-1
 253 745 l 2,35,36
 216 705 216 705 195 705 c 0,37,38
 177 705 177 705 163 719 c 128,-1,39
 149 733 149 733 149 751 c 0,40,41
 149 765 149 765 218 843 c 128,-1,42
 287 921 287 921 302 921 c 256,43,44
 317 921 317 921 443 768 c 0,45,46
 448 763 448 763 448 755 c 0,26,27
EndSplineSet
Validated: 1
EndChar

StartChar: OTilde
Encoding: 213 213 152
Width: 600
GlyphClass: 2
Flags: W
LayerCount: 2
Fore
SplineSet
560 335 m 0,0,1
 560 -3 560 -3 297 -3 c 0,2,3
 158 -3 158 -3 92 110 c 0,4,5
 39 202 39 202 39 352 c 0,6,7
 39 487 39 487 104 576 c 0,8,9
 178 677 178 677 307 677 c 256,10,11
 436 677 436 677 504 566 c 0,12,13
 560 472 560 472 560 335 c 0,0,1
473 338 m 0,14,15
 473 434 473 434 438 504 c 0,16,17
 394 593 394 593 307 593 c 0,18,19
 120 593 120 593 120 330 c 0,20,21
 120 79 120 79 302 79 c 0,22,23
 397 79 397 79 440 167 c 0,24,25
 473 231 473 231 473 338 c 0,14,15
480 847 m 0,26,27
 480 834 480 834 473 820 c 0,28,29
 457 778 457 778 433 762.5 c 128,-1,30
 409 747 409 747 364 747 c 0,31,32
 338 747 338 747 280 773 c 128,-1,33
 222 799 222 799 196 799 c 0,34,35
 183 799 183 799 169 782 c 0,36,37
 158 770 158 770 152.5 764 c 128,-1,38
 147 758 147 758 146 757 c 0,39,40
 132 757 132 757 123 773 c 0,41,42
 115 791 115 791 115 803 c 0,43,44
 115 831 115 831 144 854 c 0,45,46
 172 878 172 878 202 878 c 0,47,48
 230 878 230 878 279 850 c 128,-1,49
 328 822 328 822 357 822 c 0,50,51
 388 822 388 822 408 839 c 0,52,53
 414 845 414 845 431 871 c 0,54,55
 441 889 441 889 455 889 c 0,56,57
 480 889 480 889 480 847 c 0,26,27
EndSplineSet
Validated: 1
EndChar

StartChar: Odieresis
Encoding: 214 214 153
Width: 600
GlyphClass: 2
Flags: W
LayerCount: 2
Fore
SplineSet
560 335 m 0,0,1
 560 -3 560 -3 297 -3 c 0,2,3
 158 -3 158 -3 92 110 c 0,4,5
 39 202 39 202 39 352 c 0,6,7
 39 487 39 487 104 576 c 0,8,9
 178 677 178 677 307 677 c 256,10,11
 436 677 436 677 504 566 c 0,12,13
 560 472 560 472 560 335 c 0,0,1
473 338 m 0,14,15
 473 434 473 434 438 504 c 0,16,17
 394 593 394 593 307 593 c 0,18,19
 120 593 120 593 120 330 c 0,20,21
 120 79 120 79 302 79 c 0,22,23
 397 79 397 79 440 167 c 0,24,25
 473 231 473 231 473 338 c 0,14,15
243 824 m 0,26,27
 243 809 243 809 237 796 c 128,-1,28
 231 783 231 783 220.5 772.5 c 128,-1,29
 210 762 210 762 197 756 c 128,-1,30
 184 750 184 750 169 750 c 0,31,32
 143 750 143 750 119 774 c 128,-1,33
 95 798 95 798 95 824 c 0,34,35
 95 848 95 848 119.5 873.5 c 128,-1,36
 144 899 144 899 169 899 c 0,37,38
 183 899 183 899 196 892.5 c 128,-1,39
 209 886 209 886 219.5 875.5 c 128,-1,40
 230 865 230 865 236.5 851.5 c 128,-1,41
 243 838 243 838 243 824 c 0,26,27
525 824 m 0,42,43
 525 809 525 809 519 796 c 128,-1,44
 513 783 513 783 502.5 772.5 c 128,-1,45
 492 762 492 762 479 756 c 128,-1,46
 466 750 466 750 451 750 c 0,47,48
 425 750 425 750 401 774 c 128,-1,49
 377 798 377 798 377 824 c 0,50,51
 377 848 377 848 401.5 873.5 c 128,-1,52
 426 899 426 899 451 899 c 0,53,54
 465 899 465 899 478 892.5 c 128,-1,55
 491 886 491 886 501.5 875.5 c 128,-1,56
 512 865 512 865 518.5 851.5 c 128,-1,57
 525 838 525 838 525 824 c 0,42,43
EndSplineSet
Validated: 1
EndChar

StartChar: multiply
Encoding: 215 215 154
Width: 600
GlyphClass: 2
Flags: W
LayerCount: 2
Fore
SplineSet
486 179 m 0,0,1
 487 177 487 177 487 172 c 0,2,3
 487 159 487 159 477 147.5 c 128,-1,4
 467 136 467 136 455 136 c 0,5,6
 452 136 452 136 446 138 c 0,7,8
 402 158 402 158 300 258 c 1,9,10
 285 242 285 242 271.5 228.5 c 128,-1,11
 258 215 258 215 246 203 c 0,12,13
 187 145 187 145 165 138 c 0,14,15
 164 137 164 137 159 137 c 0,16,17
 146 137 146 137 133.5 152 c 128,-1,18
 121 167 121 167 121 180 c 0,19,20
 121 184 121 184 122 186 c 0,21,22
 135 219 135 219 239 320 c 1,23,24
 222 337 222 337 207.5 351.5 c 128,-1,25
 193 366 193 366 180 379 c 0,26,27
 119 440 119 440 114 458 c 0,28,29
 113 461 113 461 113 466 c 0,30,31
 113 481 113 481 125 493 c 128,-1,32
 137 505 137 505 150 505 c 0,33,34
 155 505 155 505 161 503 c 0,35,36
 189 489 189 489 300 381 c 1,37,38
 315 396 315 396 328.5 409 c 128,-1,39
 342 422 342 422 353 433 c 0,40,41
 410 487 410 487 428 496 c 0,42,43
 434 498 434 498 438 498 c 0,44,45
 454 498 454 498 469 486 c 128,-1,46
 484 474 484 474 484 459 c 0,47,48
 484 457 484 457 482 451 c 0,49,50
 464 410 464 410 362 320 c 1,51,52
 379 304 379 304 393.5 289.5 c 128,-1,53
 408 275 408 275 421 262 c 0,54,55
 480 200 480 200 486 179 c 0,0,1
EndSplineSet
Validated: 1
EndChar

StartChar: Oslash
Encoding: 216 216 155
Width: 600
GlyphClass: 2
Flags: W
LayerCount: 2
Fore
SplineSet
162 145 m 1,0,1
 194 217 194 217 245 325.5 c 128,-1,2
 296 434 296 434 365 581 c 1,3,4
 339 593 339 593 307 593 c 0,5,6
 120 593 120 593 120 333 c 0,7,8
 120 206 120 206 162 145 c 1,0,1
430 520 m 1,9,10
 365 377 365 377 229 91 c 1,11,12
 260 79 260 79 302 79 c 0,13,14
 397 79 397 79 440 167 c 0,15,16
 473 231 473 231 473 338 c 0,17,18
 473 447 473 447 430 520 c 1,9,10
499 686 m 0,19,20
 499 679 499 679 470 610 c 1,21,22
 560 515 560 515 560 335 c 0,23,24
 560 -3 560 -3 297 -3 c 0,25,26
 238 -3 238 -3 193 16 c 1,27,28
 188 4 188 4 182 -8 c 128,-1,29
 176 -20 176 -20 170 -33 c 0,30,31
 153 -63 153 -63 131 -63 c 0,32,33
 89 -63 89 -63 89 -31 c 0,34,35
 89 -20 89 -20 126 63 c 1,36,37
 39 154 39 154 39 352 c 0,38,39
 39 487 39 487 104 576 c 0,40,41
 178 677 178 677 307 677 c 0,42,43
 360 677 360 677 401 658 c 1,44,45
 421 700 421 700 421 700 c 1,46,47
 436 721 436 721 460 721 c 0,48,49
 474 721 474 721 486.5 710.5 c 128,-1,50
 499 700 499 700 499 686 c 0,19,20
EndSplineSet
Validated: 1
EndChar

StartChar: Ugrave
Encoding: 217 217 156
Width: 600
GlyphClass: 2
Flags: W
LayerCount: 2
Fore
SplineSet
298 -2 m 0,0,1
 173 -2 173 -2 129.5 60 c 128,-1,2
 86 122 86 122 86 185 c 2,3,-1
 86 637 l 2,4,5
 86 656 86 656 89.5 665 c 128,-1,6
 93 674 93 674 99 677 c 128,-1,7
 105 680 105 680 114 679 c 128,-1,8
 123 678 123 678 134 678 c 0,9,10
 173 678 173 678 173 637 c 2,11,-1
 173 213 l 2,12,13
 173 143 173 143 205.5 111 c 128,-1,14
 238 79 238 79 297 79 c 0,15,16
 362 79 362 79 394.5 105 c 128,-1,17
 427 131 427 131 427 213 c 2,18,-1
 427 631 l 2,19,20
 427 646 427 646 438 661.5 c 128,-1,21
 449 677 449 677 464 677 c 0,22,23
 484 677 484 677 499 665 c 128,-1,24
 514 653 514 653 514 634 c 2,25,-1
 514 185 l 2,26,27
 514 -2 514 -2 298 -2 c 0,0,1
404 759 m 0,28,29
 404 742 404 742 389.5 727.5 c 128,-1,30
 375 713 375 713 358 713 c 0,31,32
 340 713 340 713 199 862 c 0,33,34
 188 873 188 873 188 886 c 0,35,36
 188 901 188 901 200.5 914 c 128,-1,37
 213 927 213 927 228 927 c 0,38,39
 253 927 253 927 397 778 c 0,40,41
 404 771 404 771 404 759 c 0,28,29
EndSplineSet
Validated: 1
EndChar

StartChar: Uacute
Encoding: 218 218 157
Width: 600
GlyphClass: 2
Flags: W
LayerCount: 2
Fore
SplineSet
298 -2 m 0,0,1
 173 -2 173 -2 129.5 60 c 128,-1,2
 86 122 86 122 86 185 c 2,3,-1
 86 637 l 2,4,5
 86 656 86 656 89.5 665 c 128,-1,6
 93 674 93 674 99 677 c 128,-1,7
 105 680 105 680 114 679 c 128,-1,8
 123 678 123 678 134 678 c 0,9,10
 173 678 173 678 173 637 c 2,11,-1
 173 213 l 2,12,13
 173 143 173 143 205.5 111 c 128,-1,14
 238 79 238 79 297 79 c 0,15,16
 362 79 362 79 394.5 105 c 128,-1,17
 427 131 427 131 427 213 c 2,18,-1
 427 631 l 2,19,20
 427 646 427 646 438 661.5 c 128,-1,21
 449 677 449 677 464 677 c 0,22,23
 484 677 484 677 499 665 c 128,-1,24
 514 653 514 653 514 634 c 2,25,-1
 514 185 l 2,26,27
 514 -2 514 -2 298 -2 c 0,0,1
188 759 m 0,28,29
 188 770 188 770 196 778 c 0,30,31
 338 926 338 926 364 926 c 0,32,33
 381 926 381 926 395 911.5 c 128,-1,34
 409 897 409 897 409 880 c 0,35,36
 409 867 409 867 399 857 c 0,37,38
 256 713 256 713 234 713 c 0,39,40
 217 713 217 713 202.5 727.5 c 128,-1,41
 188 742 188 742 188 759 c 0,28,29
EndSplineSet
Validated: 1
EndChar

StartChar: Ucircumflex
Encoding: 219 219 158
Width: 600
GlyphClass: 2
Flags: W
LayerCount: 2
Fore
SplineSet
298 -2 m 0,0,1
 173 -2 173 -2 129.5 60 c 128,-1,2
 86 122 86 122 86 185 c 2,3,-1
 86 637 l 2,4,5
 86 656 86 656 89.5 665 c 128,-1,6
 93 674 93 674 99 677 c 128,-1,7
 105 680 105 680 114 679 c 128,-1,8
 123 678 123 678 134 678 c 0,9,10
 173 678 173 678 173 637 c 2,11,-1
 173 213 l 2,12,13
 173 143 173 143 205.5 111 c 128,-1,14
 238 79 238 79 297 79 c 0,15,16
 362 79 362 79 394.5 105 c 128,-1,17
 427 131 427 131 427 213 c 2,18,-1
 427 631 l 2,19,20
 427 646 427 646 438 661.5 c 128,-1,21
 449 677 449 677 464 677 c 0,22,23
 484 677 484 677 499 665 c 128,-1,24
 514 653 514 653 514 634 c 2,25,-1
 514 185 l 2,26,27
 514 -2 514 -2 298 -2 c 0,0,1
448 755 m 0,28,29
 448 737 448 737 433.5 721 c 128,-1,30
 419 705 419 705 402 705 c 256,31,32
 385 705 385 705 348 745 c 0,33,34
 336 759 336 759 324 772 c 128,-1,35
 312 785 312 785 301 799 c 1,36,-1
 253 745 l 2,37,38
 216 705 216 705 195 705 c 0,39,40
 177 705 177 705 163 719 c 128,-1,41
 149 733 149 733 149 751 c 0,42,43
 149 765 149 765 218 843 c 128,-1,44
 287 921 287 921 302 921 c 256,45,46
 317 921 317 921 443 768 c 0,47,48
 448 763 448 763 448 755 c 0,28,29
EndSplineSet
Validated: 1
EndChar

StartChar: Udieresis
Encoding: 220 220 159
Width: 600
GlyphClass: 2
Flags: W
LayerCount: 2
Fore
SplineSet
298 -2 m 0,0,1
 173 -2 173 -2 129.5 60 c 128,-1,2
 86 122 86 122 86 185 c 2,3,-1
 86 637 l 2,4,5
 86 656 86 656 89.5 665 c 128,-1,6
 93 674 93 674 99 677 c 128,-1,7
 105 680 105 680 114 679 c 128,-1,8
 123 678 123 678 134 678 c 0,9,10
 173 678 173 678 173 637 c 2,11,-1
 173 213 l 2,12,13
 173 143 173 143 205.5 111 c 128,-1,14
 238 79 238 79 297 79 c 0,15,16
 362 79 362 79 394.5 105 c 128,-1,17
 427 131 427 131 427 213 c 2,18,-1
 427 631 l 2,19,20
 427 646 427 646 438 661.5 c 128,-1,21
 449 677 449 677 464 677 c 0,22,23
 484 677 484 677 499 665 c 128,-1,24
 514 653 514 653 514 634 c 2,25,-1
 514 185 l 2,26,27
 514 -2 514 -2 298 -2 c 0,0,1
243 824 m 0,28,29
 243 809 243 809 237 796 c 128,-1,30
 231 783 231 783 220.5 772.5 c 128,-1,31
 210 762 210 762 197 756 c 128,-1,32
 184 750 184 750 169 750 c 0,33,34
 143 750 143 750 119 774 c 128,-1,35
 95 798 95 798 95 824 c 0,36,37
 95 848 95 848 119.5 873.5 c 128,-1,38
 144 899 144 899 169 899 c 0,39,40
 183 899 183 899 196 892.5 c 128,-1,41
 209 886 209 886 219.5 875.5 c 128,-1,42
 230 865 230 865 236.5 851.5 c 128,-1,43
 243 838 243 838 243 824 c 0,28,29
525 824 m 0,44,45
 525 809 525 809 519 796 c 128,-1,46
 513 783 513 783 502.5 772.5 c 128,-1,47
 492 762 492 762 479 756 c 128,-1,48
 466 750 466 750 451 750 c 0,49,50
 425 750 425 750 401 774 c 128,-1,51
 377 798 377 798 377 824 c 0,52,53
 377 848 377 848 401.5 873.5 c 128,-1,54
 426 899 426 899 451 899 c 0,55,56
 465 899 465 899 478 892.5 c 128,-1,57
 491 886 491 886 501.5 875.5 c 128,-1,58
 512 865 512 865 518.5 851.5 c 128,-1,59
 525 838 525 838 525 824 c 0,44,45
EndSplineSet
Validated: 1
EndChar

StartChar: Yacute
Encoding: 221 221 160
Width: 600
GlyphClass: 2
Flags: W
LayerCount: 2
Fore
SplineSet
528 650 m 1,0,1
 528 650 528 650 345 272 c 1,2,-1
 344 22 l 2,3,4
 344 4 344 4 328 -3 c 0,5,6
 313 -12 313 -12 296 -12 c 0,7,8
 257 -12 257 -12 257 20 c 2,9,-1
 259 272 l 1,10,11
 72 645 72 645 72 657 c 0,12,13
 72 676 72 676 116 676 c 0,14,15
 159 676 159 676 170 653 c 2,16,-1
 305 368 l 1,17,-1
 438 651 l 2,18,19
 451 678 451 678 500 678 c 0,20,21
 518 678 518 678 528 650 c 1,0,1
188 759 m 0,22,23
 188 770 188 770 196 778 c 0,24,25
 338 926 338 926 364 926 c 0,26,27
 381 926 381 926 395 911.5 c 128,-1,28
 409 897 409 897 409 880 c 0,29,30
 409 867 409 867 399 857 c 0,31,32
 256 713 256 713 234 713 c 0,33,34
 217 713 217 713 202.5 727.5 c 128,-1,35
 188 742 188 742 188 759 c 0,22,23
EndSplineSet
Validated: 1
EndChar

StartChar: Thorn
Encoding: 222 222 161
Width: 600
GlyphClass: 2
Flags: W
LayerCount: 2
Fore
SplineSet
144 549 m 1,0,1
 155 554 155 554 163.5 558.5 c 128,-1,2
 172 563 172 563 179 566 c 0,3,4
 198 578 198 578 224 584 c 0,5,6
 232 586 232 586 238.5 587 c 128,-1,7
 245 588 245 588 250 589 c 0,8,9
 406 605 406 605 482 526 c 0,10,11
 516 492 516 492 530 444 c 0,12,13
 543 402 543 402 543 354 c 0,14,15
 543 290 543 290 515 235 c 0,16,17
 450 111 450 111 305 104 c 0,18,19
 232 101 232 101 145 146 c 1,20,-1
 143 0 l 2,21,22
 143 -12 143 -12 131 -19 c 0,23,24
 119 -24 119 -24 102 -26 c 0,25,26
 57 -28 57 -28 57 -1 c 2,27,-1
 57 646 l 2,28,29
 57 671 57 671 72 682 c 0,30,31
 85 693 85 693 102 692 c 0,32,33
 115 690 115 690 129 683 c 0,34,35
 144 672 144 672 144 660 c 2,36,-1
 144 549 l 1,0,1
253 504 m 0,37,38
 226 498 226 498 197 480 c 0,39,40
 167 461 167 461 144 440 c 1,41,-1
 144 240 l 1,42,43
 213 199 213 199 273 191 c 0,44,45
 390 179 390 179 438 261 c 0,46,47
 458 296 458 296 460 346 c 0,48,49
 460 430 460 430 405 475 c 0,50,51
 380 496 380 496 340 505 c 0,52,53
 298 514 298 514 253 504 c 0,37,38
EndSplineSet
Validated: 33
EndChar

StartChar: germandbls
Encoding: 223 223 162
Width: 600
GlyphClass: 2
Flags: W
LayerCount: 2
Fore
SplineSet
485 189 m 0,0,1
 500 14 500 14 352 -2 c 0,2,3
 307 -8 307 -8 272 2 c 0,4,5
 221 13 221 13 218 51 c 0,6,7
 216 66 216 66 223 82 c 0,8,9
 231 101 231 101 245 102 c 0,10,11
 249 103 249 103 286 91 c 0,12,13
 327 80 327 80 348 82 c 0,14,15
 413 90 413 90 405 187 c 0,16,17
 397 280 397 280 280 310 c 0,18,19
 264 311 264 311 238 318 c 0,20,21
 225 321 225 321 223 341 c 0,22,23
 219 381 219 381 239 392 c 2,24,-1
 320 428 l 1,25,26
 364 466 364 466 359 524 c 0,27,28
 356 564 356 564 328 580 c 0,29,30
 304 593 304 593 273 589 c 0,31,32
 182 579 182 579 185 474 c 2,33,-1
 186 29 l 2,34,35
 186 -7 186 -7 152 -11 c 0,36,37
 136 -12 136 -12 122 -2 c 128,-1,38
 108 8 108 8 107 24 c 2,39,-1
 107 28 l 1,40,-1
 107 484 l 2,41,42
 108 554 108 554 152 610.5 c 128,-1,43
 196 667 196 667 259 673 c 0,44,45
 324 681 324 681 376 646 c 0,46,47
 432 605 432 605 439 536 c 0,48,49
 444 482 444 482 419.5 430 c 128,-1,50
 395 378 395 378 349 360 c 1,51,52
 402 359 402 359 443 303 c 0,53,54
 479 252 479 252 485 189 c 0,0,1
EndSplineSet
Validated: 33
EndChar

StartChar: agrave
Encoding: 224 224 163
Width: 600
GlyphClass: 2
Flags: W
LayerCount: 2
Fore
SplineSet
518 11 m 0,0,1
 518 -9 518 -9 473 -9 c 0,2,3
 445 -9 445 -9 410 23 c 1,4,5
 332 -6 332 -6 277 -6 c 0,6,7
 201 -6 201 -6 146 28 c 0,8,9
 82 70 82 70 82 142 c 0,10,11
 82 218 82 218 154 265 c 0,12,13
 215 305 215 305 296 305 c 0,14,15
 341 305 341 305 399 291 c 1,16,-1
 399 324 l 2,17,18
 399 359 399 359 361 379 c 0,19,20
 331 394 331 394 290 394 c 0,21,22
 260 394 260 394 208 376 c 0,23,24
 155 358 155 358 131 358 c 0,25,26
 103 358 103 358 103 405 c 0,27,28
 103 439 103 439 182 460 c 0,29,30
 240 475 240 475 291 475 c 0,31,32
 357 475 357 475 411 449 c 0,33,34
 474 418 474 418 483 357 c 1,35,36
 482 359 482 359 482 288 c 0,37,38
 485 277 485 277 485 235 c 0,39,40
 485 221 485 221 485 201 c 0,41,42
 485 182 485 182 484 156 c 128,-1,43
 483 130 483 130 483 114 c 0,44,45
 483 99 483 99 483 95 c 0,46,47
 483 62 483 62 500 42 c 0,48,49
 518 24 518 24 518 11 c 0,0,1
396 110 m 1,50,51
 396 110 396 110 396 211 c 1,52,53
 368 218 368 218 343.5 221 c 128,-1,54
 319 224 319 224 299 224 c 0,55,56
 244 224 244 224 209 205 c 0,57,58
 164 181 164 181 164 132 c 0,59,60
 164 104 164 104 202 87 c 0,61,62
 233 76 233 76 266 76 c 0,63,64
 327 76 327 76 396 110 c 1,50,51
399 572 m 0,65,66
 399 556 399 556 384.5 541 c 128,-1,67
 370 526 370 526 353 526 c 0,68,69
 332 526 332 526 194 675 c 0,70,71
 183 688 183 688 183 699 c 0,72,73
 183 715 183 715 195.5 727.5 c 128,-1,74
 208 740 208 740 223 740 c 0,75,76
 239 740 239 740 319 663 c 128,-1,77
 399 586 399 586 399 572 c 0,65,66
EndSplineSet
Validated: 33
EndChar

StartChar: aacute
Encoding: 225 225 164
Width: 600
GlyphClass: 2
Flags: W
LayerCount: 2
Fore
SplineSet
518 11 m 0,0,1
 518 -9 518 -9 473 -9 c 0,2,3
 445 -9 445 -9 410 23 c 1,4,5
 332 -6 332 -6 277 -6 c 0,6,7
 201 -6 201 -6 146 28 c 0,8,9
 82 70 82 70 82 142 c 0,10,11
 82 218 82 218 154 265 c 0,12,13
 215 305 215 305 296 305 c 0,14,15
 341 305 341 305 399 291 c 1,16,-1
 399 324 l 2,17,18
 399 359 399 359 361 379 c 0,19,20
 331 394 331 394 290 394 c 0,21,22
 260 394 260 394 208 376 c 0,23,24
 155 358 155 358 131 358 c 0,25,26
 103 358 103 358 103 405 c 0,27,28
 103 439 103 439 182 460 c 0,29,30
 240 475 240 475 291 475 c 0,31,32
 357 475 357 475 411 449 c 0,33,34
 474 418 474 418 483 357 c 1,35,36
 482 359 482 359 482 288 c 0,37,38
 485 277 485 277 485 235 c 0,39,40
 485 221 485 221 485 201 c 0,41,42
 485 182 485 182 484 156 c 128,-1,43
 483 130 483 130 483 114 c 0,44,45
 483 99 483 99 483 95 c 0,46,47
 483 62 483 62 500 42 c 0,48,49
 518 24 518 24 518 11 c 0,0,1
396 110 m 1,50,51
 396 110 396 110 396 211 c 1,52,53
 368 218 368 218 343.5 221 c 128,-1,54
 319 224 319 224 299 224 c 0,55,56
 244 224 244 224 209 205 c 0,57,58
 164 181 164 181 164 132 c 0,59,60
 164 104 164 104 202 87 c 0,61,62
 233 76 233 76 266 76 c 0,63,64
 327 76 327 76 396 110 c 1,50,51
183 572 m 0,65,66
 183 586 183 586 263 663 c 128,-1,67
 343 740 343 740 359 740 c 0,68,69
 376 740 376 740 390 725 c 128,-1,70
 404 710 404 710 404 693 c 0,71,72
 404 680 404 680 394 670 c 0,73,74
 380 655 380 655 359 635.5 c 128,-1,75
 338 616 338 616 312 591 c 0,76,77
 242 526 242 526 229 526 c 0,78,79
 212 526 212 526 197.5 541 c 128,-1,80
 183 556 183 556 183 572 c 0,65,66
EndSplineSet
Validated: 33
EndChar

StartChar: acircumflex
Encoding: 226 226 165
Width: 600
GlyphClass: 2
Flags: W
LayerCount: 2
Fore
SplineSet
518 11 m 0,0,1
 518 -9 518 -9 473 -9 c 0,2,3
 445 -9 445 -9 410 23 c 1,4,5
 332 -6 332 -6 277 -6 c 0,6,7
 201 -6 201 -6 146 28 c 0,8,9
 82 70 82 70 82 142 c 0,10,11
 82 218 82 218 154 265 c 0,12,13
 215 305 215 305 296 305 c 0,14,15
 341 305 341 305 399 291 c 1,16,-1
 399 324 l 2,17,18
 399 359 399 359 361 379 c 0,19,20
 331 394 331 394 290 394 c 0,21,22
 260 394 260 394 208 376 c 0,23,24
 155 358 155 358 131 358 c 0,25,26
 103 358 103 358 103 405 c 0,27,28
 103 439 103 439 182 460 c 0,29,30
 240 475 240 475 291 475 c 0,31,32
 357 475 357 475 411 449 c 0,33,34
 474 418 474 418 483 357 c 1,35,36
 482 359 482 359 482 288 c 0,37,38
 485 277 485 277 485 235 c 0,39,40
 485 221 485 221 485 201 c 0,41,42
 485 182 485 182 484 156 c 128,-1,43
 483 130 483 130 483 114 c 0,44,45
 483 99 483 99 483 95 c 0,46,47
 483 62 483 62 500 42 c 0,48,49
 518 24 518 24 518 11 c 0,0,1
396 110 m 1,50,51
 396 110 396 110 396 211 c 1,52,53
 368 218 368 218 343.5 221 c 128,-1,54
 319 224 319 224 299 224 c 0,55,56
 244 224 244 224 209 205 c 0,57,58
 164 181 164 181 164 132 c 0,59,60
 164 104 164 104 202 87 c 0,61,62
 233 76 233 76 266 76 c 0,63,64
 327 76 327 76 396 110 c 1,50,51
441 587 m 0,65,66
 441 570 441 570 426.5 554 c 128,-1,67
 412 538 412 538 395 538 c 0,68,69
 379 538 379 538 342 578 c 0,70,71
 330 591 330 591 318 604 c 128,-1,72
 306 617 306 617 294 631 c 1,73,-1
 246 577 l 2,74,75
 208 538 208 538 188 538 c 0,76,77
 170 538 170 538 156 552 c 128,-1,78
 142 566 142 566 142 584 c 0,79,80
 142 599 142 599 210 676 c 0,81,82
 279 754 279 754 295 754 c 0,83,84
 303 754 303 754 372 677 c 128,-1,85
 441 600 441 600 441 587 c 0,65,66
EndSplineSet
Validated: 33
EndChar

StartChar: atilde
Encoding: 227 227 166
Width: 600
GlyphClass: 2
Flags: W
LayerCount: 2
Fore
SplineSet
518 11 m 0,0,1
 518 -9 518 -9 473 -9 c 0,2,3
 445 -9 445 -9 410 23 c 1,4,5
 332 -6 332 -6 277 -6 c 0,6,7
 201 -6 201 -6 146 28 c 0,8,9
 82 70 82 70 82 142 c 0,10,11
 82 218 82 218 154 265 c 0,12,13
 215 305 215 305 296 305 c 0,14,15
 341 305 341 305 399 291 c 1,16,-1
 399 324 l 2,17,18
 399 359 399 359 361 379 c 0,19,20
 331 394 331 394 290 394 c 0,21,22
 260 394 260 394 208 376 c 0,23,24
 155 358 155 358 131 358 c 0,25,26
 103 358 103 358 103 405 c 0,27,28
 103 439 103 439 182 460 c 0,29,30
 240 475 240 475 291 475 c 0,31,32
 357 475 357 475 411 449 c 0,33,34
 474 418 474 418 483 357 c 1,35,36
 482 359 482 359 482 288 c 0,37,38
 485 277 485 277 485 235 c 0,39,40
 485 221 485 221 485 201 c 0,41,42
 485 182 485 182 484 156 c 128,-1,43
 483 130 483 130 483 114 c 0,44,45
 483 99 483 99 483 95 c 0,46,47
 483 62 483 62 500 42 c 0,48,49
 518 24 518 24 518 11 c 0,0,1
396 110 m 1,50,51
 396 110 396 110 396 211 c 1,52,53
 368 218 368 218 343.5 221 c 128,-1,54
 319 224 319 224 299 224 c 0,55,56
 244 224 244 224 209 205 c 0,57,58
 164 181 164 181 164 132 c 0,59,60
 164 104 164 104 202 87 c 0,61,62
 233 76 233 76 266 76 c 0,63,64
 327 76 327 76 396 110 c 1,50,51
482 668 m 0,65,66
 482 621 482 621 446 594 c 0,67,68
 414 569 414 569 366 569 c 0,69,70
 335 569 335 569 282 594 c 0,71,72
 227 620 227 620 198 620 c 0,73,74
 182 620 182 620 167 599 c 0,75,76
 153 578 153 578 148 578 c 0,77,78
 136 578 136 578 125 595 c 0,79,80
 117 611 117 611 117 624 c 0,81,82
 117 652 117 652 147 676 c 0,83,84
 176 699 176 699 204 699 c 0,85,86
 234 699 234 699 281 671 c 0,87,88
 330 643 330 643 359 643 c 0,89,90
 390 643 390 643 410 661 c 0,91,92
 418 667 418 667 433 693 c 0,93,94
 444 710 444 710 457 710 c 0,95,96
 482 710 482 710 482 668 c 0,65,66
EndSplineSet
Validated: 33
EndChar

StartChar: adieresis
Encoding: 228 228 167
Width: 600
GlyphClass: 2
Flags: W
LayerCount: 2
Fore
SplineSet
518 11 m 0,0,1
 518 -9 518 -9 473 -9 c 0,2,3
 445 -9 445 -9 410 23 c 1,4,5
 332 -6 332 -6 277 -6 c 0,6,7
 201 -6 201 -6 146 28 c 0,8,9
 82 70 82 70 82 142 c 0,10,11
 82 218 82 218 154 265 c 0,12,13
 215 305 215 305 296 305 c 0,14,15
 341 305 341 305 399 291 c 1,16,-1
 399 324 l 2,17,18
 399 359 399 359 361 379 c 0,19,20
 331 394 331 394 290 394 c 0,21,22
 260 394 260 394 208 376 c 0,23,24
 155 358 155 358 131 358 c 0,25,26
 103 358 103 358 103 405 c 0,27,28
 103 439 103 439 182 460 c 0,29,30
 240 475 240 475 291 475 c 0,31,32
 357 475 357 475 411 449 c 0,33,34
 474 418 474 418 483 357 c 1,35,36
 482 359 482 359 482 288 c 0,37,38
 485 277 485 277 485 235 c 0,39,40
 485 221 485 221 485 201 c 0,41,42
 485 182 485 182 484 156 c 128,-1,43
 483 130 483 130 483 114 c 0,44,45
 483 99 483 99 483 95 c 0,46,47
 483 62 483 62 500 42 c 0,48,49
 518 24 518 24 518 11 c 0,0,1
396 110 m 1,50,51
 396 110 396 110 396 211 c 1,52,53
 368 218 368 218 343.5 221 c 128,-1,54
 319 224 319 224 299 224 c 0,55,56
 244 224 244 224 209 205 c 0,57,58
 164 181 164 181 164 132 c 0,59,60
 164 104 164 104 202 87 c 0,61,62
 233 76 233 76 266 76 c 0,63,64
 327 76 327 76 396 110 c 1,50,51
445 628 m 0,65,66
 445 606 445 606 427 589 c 128,-1,67
 409 572 409 572 388 572 c 0,68,69
 378 572 378 572 368 577 c 128,-1,70
 358 582 358 582 350.5 590 c 128,-1,71
 343 598 343 598 338 608 c 128,-1,72
 333 618 333 618 333 628 c 0,73,74
 333 637 333 637 338 647 c 128,-1,75
 343 657 343 657 351 665.5 c 128,-1,76
 359 674 359 674 369 679 c 128,-1,77
 379 684 379 684 388 684 c 0,78,79
 398 684 398 684 408 679 c 128,-1,80
 418 674 418 674 426.5 666 c 128,-1,81
 435 658 435 658 440 648 c 128,-1,82
 445 638 445 638 445 628 c 0,65,66
256 627 m 0,83,84
 256 605 256 605 239 588.5 c 128,-1,85
 222 572 222 572 200 572 c 0,86,87
 191 572 191 572 181 577 c 128,-1,88
 171 582 171 582 163 590 c 128,-1,89
 155 598 155 598 150 608 c 128,-1,90
 145 618 145 618 145 627 c 256,91,92
 145 636 145 636 150 646 c 128,-1,93
 155 656 155 656 163 664.5 c 128,-1,94
 171 673 171 673 181 678 c 128,-1,95
 191 683 191 683 200 683 c 0,96,97
 221 683 221 683 238.5 665.5 c 128,-1,98
 256 648 256 648 256 627 c 0,83,84
EndSplineSet
Validated: 33
EndChar

StartChar: aring
Encoding: 229 229 168
Width: 600
GlyphClass: 2
Flags: W
LayerCount: 2
Fore
SplineSet
518 11 m 0,0,1
 518 -9 518 -9 473 -9 c 0,2,3
 445 -9 445 -9 410 23 c 1,4,5
 332 -6 332 -6 277 -6 c 0,6,7
 201 -6 201 -6 146 28 c 0,8,9
 82 70 82 70 82 142 c 0,10,11
 82 218 82 218 154 265 c 0,12,13
 215 305 215 305 296 305 c 0,14,15
 341 305 341 305 399 291 c 1,16,-1
 399 324 l 2,17,18
 399 359 399 359 361 379 c 0,19,20
 331 394 331 394 290 394 c 0,21,22
 260 394 260 394 208 376 c 0,23,24
 155 358 155 358 131 358 c 0,25,26
 103 358 103 358 103 405 c 0,27,28
 103 439 103 439 182 460 c 0,29,30
 240 475 240 475 291 475 c 0,31,32
 357 475 357 475 411 449 c 0,33,34
 474 418 474 418 483 357 c 1,35,36
 482 359 482 359 482 288 c 0,37,38
 485 277 485 277 485 235 c 0,39,40
 485 221 485 221 485 201 c 0,41,42
 485 182 485 182 484 156 c 128,-1,43
 483 130 483 130 483 114 c 0,44,45
 483 99 483 99 483 95 c 0,46,47
 483 62 483 62 500 42 c 0,48,49
 518 24 518 24 518 11 c 0,0,1
396 110 m 1,50,51
 396 110 396 110 396 211 c 1,52,53
 368 218 368 218 343.5 221 c 128,-1,54
 319 224 319 224 299 224 c 0,55,56
 244 224 244 224 209 205 c 0,57,58
 164 181 164 181 164 132 c 0,59,60
 164 104 164 104 202 87 c 0,61,62
 233 76 233 76 266 76 c 0,63,64
 327 76 327 76 396 110 c 1,50,51
410 652 m 0,65,66
 410 598 410 598 378 567.5 c 128,-1,67
 346 537 346 537 292 537 c 0,68,69
 268 537 268 537 247.5 546 c 128,-1,70
 227 555 227 555 212 571 c 128,-1,71
 197 587 197 587 188.5 608 c 128,-1,72
 180 629 180 629 180 653 c 0,73,74
 180 704 180 704 213 737 c 128,-1,75
 246 770 246 770 297 770 c 0,76,77
 349 770 349 770 380 736 c 0,78,79
 410 704 410 704 410 652 c 0,65,66
355 650 m 0,80,81
 355 708 355 708 297 708 c 0,82,83
 271 708 271 708 253.5 693 c 128,-1,84
 236 678 236 678 236 652 c 0,85,86
 236 625 236 625 253 607.5 c 128,-1,87
 270 590 270 590 298 590 c 0,88,89
 323 590 323 590 339 607.5 c 128,-1,90
 355 625 355 625 355 650 c 0,80,81
EndSplineSet
Validated: 33
EndChar

StartChar: ae
Encoding: 230 230 169
Width: 600
GlyphClass: 2
Flags: W
LayerCount: 2
Fore
SplineSet
569 261 m 0,0,1
 569 228 569 228 557 219 c 0,2,3
 549 212 549 212 513 212 c 2,4,-1
 342 211 l 1,5,6
 344 146 344 146 358 121 c 0,7,8
 379 83 379 83 436 83 c 0,9,10
 472 83 472 83 501 107 c 0,11,12
 529 131 529 131 534 131 c 0,13,14
 549 131 549 131 558 112 c 0,15,16
 566 96 566 96 566 80 c 0,17,18
 566 68 566 68 555 52 c 0,19,20
 530 17 530 17 487 3 c 0,21,22
 459 -4 459 -4 402 -4 c 0,23,24
 343 -4 343 -4 319 20 c 1,25,26
 265 -6 265 -6 208 -6 c 0,27,28
 117 -6 117 -6 82 13 c 0,29,30
 30 41 30 41 30 122 c 0,31,32
 30 183 30 183 72 236 c 0,33,34
 115 294 115 294 175 294 c 0,35,36
 225 294 225 294 263 282 c 1,37,38
 268 304 268 304 271 322 c 128,-1,39
 274 340 274 340 274 356 c 0,40,41
 274 401 274 401 225 401 c 0,42,43
 201 401 201 401 153 384 c 0,44,45
 107 367 107 367 105 367 c 0,46,47
 93 367 93 367 84 378.5 c 128,-1,48
 75 390 75 390 75 403 c 0,49,50
 75 436 75 436 124 458 c 0,51,52
 166 478 166 478 201 478 c 0,53,54
 299 478 299 478 320 427 c 1,55,56
 357 476 357 476 423 476 c 0,57,58
 496 476 496 476 537 402 c 0,59,60
 569 343 569 343 569 261 c 0,0,1
492 296 m 1,61,62
 489 383 489 383 429 399 c 1,63,64
 389 395 389 395 370 364 c 0,65,66
 358 345 358 345 349 296 c 1,67,-1
 492 296 l 1,61,62
265 99 m 1,68,69
 259 124 259 124 255.5 151 c 128,-1,70
 252 178 252 178 251 208 c 1,71,72
 228 218 228 218 201 218 c 0,73,74
 159 218 159 218 136 193 c 128,-1,75
 113 168 113 168 113 128 c 0,76,77
 113 77 113 77 177 77 c 0,78,79
 234 77 234 77 265 99 c 1,68,69
EndSplineSet
Validated: 1
EndChar

StartChar: ccedilla
Encoding: 231 231 170
Width: 600
GlyphClass: 2
Flags: W
LayerCount: 2
Fore
SplineSet
504 97 m 0,0,1
 504 86 504 86 494 69 c 0,2,3
 475 29 475 29 441 12 c 0,4,5
 414 -1 414 -1 362 -5 c 1,6,-1
 362 -52 l 1,7,8
 407 -63 407 -63 407 -118 c 0,9,10
 407 -136 407 -136 399.5 -153 c 128,-1,11
 392 -170 392 -170 379.5 -182.5 c 128,-1,12
 367 -195 367 -195 350 -202.5 c 128,-1,13
 333 -210 333 -210 315 -210 c 0,14,15
 284 -210 284 -210 254 -197 c 0,16,17
 215 -181 215 -181 215 -156 c 0,18,19
 215 -143 215 -143 224 -129.5 c 128,-1,20
 233 -116 233 -116 246 -116 c 0,21,22
 253 -116 253 -116 272 -126 c 0,23,24
 292 -137 292 -137 304 -137 c 0,25,26
 324 -137 324 -137 324 -112 c 0,27,28
 324 -93 324 -93 310 -74 c 128,-1,29
 296 -55 296 -55 277 -52 c 1,30,-1
 277 -2 l 1,31,32
 183 13 183 13 137 82 c 0,33,34
 95 143 95 143 95 242 c 0,35,36
 95 350 95 350 154 415 c 0,37,38
 216 480 216 480 323 480 c 0,39,40
 373 480 373 480 430 452 c 0,41,42
 498 419 498 419 498 377 c 0,43,44
 498 363 498 363 482 354 c 0,45,46
 467 345 467 345 452 345 c 0,47,48
 442 345 442 345 398 371 c 128,-1,49
 354 397 354 397 326 397 c 0,50,51
 265 397 265 397 223 353 c 0,52,53
 182 309 182 309 182 250 c 0,54,55
 182 175 182 175 218 130 c 0,56,57
 255 81 255 81 329 81 c 0,58,59
 375 81 375 81 406 97 c 0,60,61
 424 107 424 107 447 128 c 0,62,63
 463 144 463 144 472 144 c 0,64,65
 484 144 484 144 495 127 c 0,66,67
 504 112 504 112 504 97 c 0,0,1
EndSplineSet
Validated: 1
EndChar

StartChar: egrave
Encoding: 232 232 171
Width: 600
GlyphClass: 2
Flags: W
LayerCount: 2
Fore
SplineSet
406 572 m 0,0,1
 406 556 406 556 391.5 541 c 128,-1,2
 377 526 377 526 360 526 c 0,3,4
 339 526 339 526 201 675 c 0,5,6
 190 688 190 688 190 699 c 0,7,8
 190 715 190 715 202.5 727.5 c 128,-1,9
 215 740 215 740 230 740 c 0,10,11
 246 740 246 740 326 663 c 128,-1,12
 406 586 406 586 406 572 c 0,0,1
512 266 m 0,13,14
 512 208 512 208 443 208 c 2,15,-1
 182 208 l 1,16,17
 186 79 186 79 317 79 c 0,18,19
 358 79 358 79 391 94 c 0,20,21
 401 99 401 99 411.5 106 c 128,-1,22
 422 113 422 113 434 123 c 0,23,24
 452 138 452 138 458 138 c 0,25,26
 476 138 476 138 491.5 125.5 c 128,-1,27
 507 113 507 113 507 94 c 0,28,29
 507 80 507 80 491 63 c 0,30,31
 429 -6 429 -6 309 -6 c 0,32,33
 196 -6 196 -6 139 69 c 0,34,35
 88 136 88 136 88 254 c 0,36,37
 88 351 88 351 146 415 c 0,38,39
 206 480 206 480 302 480 c 0,40,41
 512 480 512 480 512 266 c 0,13,14
423 293 m 1,42,43
 420 354 420 354 383 376 c 0,44,45
 351 397 351 397 290 397 c 0,46,47
 251 397 251 397 218 364 c 0,48,49
 185 332 185 332 183 293 c 1,50,-1
 423 293 l 1,42,43
EndSplineSet
Validated: 1
EndChar

StartChar: eacute
Encoding: 233 233 172
Width: 600
GlyphClass: 2
Flags: W
LayerCount: 2
Fore
SplineSet
512 266 m 0,0,1
 512 208 512 208 443 208 c 2,2,-1
 182 208 l 1,3,4
 186 79 186 79 317 79 c 0,5,6
 358 79 358 79 391 94 c 0,7,8
 401 99 401 99 411.5 106 c 128,-1,9
 422 113 422 113 434 123 c 0,10,11
 452 138 452 138 458 138 c 0,12,13
 476 138 476 138 491.5 125.5 c 128,-1,14
 507 113 507 113 507 94 c 0,15,16
 507 80 507 80 491 63 c 0,17,18
 429 -6 429 -6 309 -6 c 0,19,20
 196 -6 196 -6 139 69 c 0,21,22
 88 136 88 136 88 254 c 0,23,24
 88 351 88 351 146 415 c 0,25,26
 206 480 206 480 302 480 c 0,27,28
 512 480 512 480 512 266 c 0,0,1
423 293 m 1,29,30
 420 354 420 354 383 376 c 0,31,32
 351 397 351 397 290 397 c 0,33,34
 251 397 251 397 218 364 c 0,35,36
 185 332 185 332 183 293 c 1,37,-1
 423 293 l 1,29,30
190 572 m 0,38,39
 190 586 190 586 270 663 c 128,-1,40
 350 740 350 740 366 740 c 0,41,42
 383 740 383 740 397 725 c 128,-1,43
 411 710 411 710 411 693 c 0,44,45
 411 680 411 680 401 670 c 0,46,47
 387 655 387 655 366 635.5 c 128,-1,48
 345 616 345 616 319 591 c 0,49,50
 249 526 249 526 236 526 c 0,51,52
 219 526 219 526 204.5 541 c 128,-1,53
 190 556 190 556 190 572 c 0,38,39
EndSplineSet
Validated: 1
EndChar

StartChar: ecircumflex
Encoding: 234 234 173
Width: 600
GlyphClass: 2
Flags: W
LayerCount: 2
Fore
SplineSet
512 266 m 0,0,1
 512 208 512 208 443 208 c 2,2,-1
 182 208 l 1,3,4
 186 79 186 79 317 79 c 0,5,6
 358 79 358 79 391 94 c 0,7,8
 401 99 401 99 411.5 106 c 128,-1,9
 422 113 422 113 434 123 c 0,10,11
 452 138 452 138 458 138 c 0,12,13
 476 138 476 138 491.5 125.5 c 128,-1,14
 507 113 507 113 507 94 c 0,15,16
 507 80 507 80 491 63 c 0,17,18
 429 -6 429 -6 309 -6 c 0,19,20
 196 -6 196 -6 139 69 c 0,21,22
 88 136 88 136 88 254 c 0,23,24
 88 351 88 351 146 415 c 0,25,26
 206 480 206 480 302 480 c 0,27,28
 512 480 512 480 512 266 c 0,0,1
423 293 m 1,29,30
 420 354 420 354 383 376 c 0,31,32
 351 397 351 397 290 397 c 0,33,34
 251 397 251 397 218 364 c 0,35,36
 185 332 185 332 183 293 c 1,37,-1
 423 293 l 1,29,30
448 587 m 0,38,39
 448 570 448 570 433.5 554 c 128,-1,40
 419 538 419 538 402 538 c 0,41,42
 386 538 386 538 349 578 c 0,43,44
 337 591 337 591 325 604 c 128,-1,45
 313 617 313 617 301 631 c 1,46,-1
 253 577 l 2,47,48
 215 538 215 538 195 538 c 0,49,50
 177 538 177 538 163 552 c 128,-1,51
 149 566 149 566 149 584 c 0,52,53
 149 599 149 599 217 676 c 0,54,55
 286 754 286 754 302 754 c 0,56,57
 310 754 310 754 379 677 c 128,-1,58
 448 600 448 600 448 587 c 0,38,39
EndSplineSet
Validated: 1
EndChar

StartChar: edieresis
Encoding: 235 235 174
Width: 600
GlyphClass: 2
Flags: W
LayerCount: 2
Fore
SplineSet
512 266 m 0,0,1
 512 208 512 208 443 208 c 2,2,-1
 182 208 l 1,3,4
 186 79 186 79 317 79 c 0,5,6
 358 79 358 79 391 94 c 0,7,8
 401 99 401 99 411.5 106 c 128,-1,9
 422 113 422 113 434 123 c 0,10,11
 452 138 452 138 458 138 c 0,12,13
 476 138 476 138 491.5 125.5 c 128,-1,14
 507 113 507 113 507 94 c 0,15,16
 507 80 507 80 491 63 c 0,17,18
 429 -6 429 -6 309 -6 c 0,19,20
 196 -6 196 -6 139 69 c 0,21,22
 88 136 88 136 88 254 c 0,23,24
 88 351 88 351 146 415 c 0,25,26
 206 480 206 480 302 480 c 0,27,28
 512 480 512 480 512 266 c 0,0,1
423 293 m 1,29,30
 420 354 420 354 383 376 c 0,31,32
 351 397 351 397 290 397 c 0,33,34
 251 397 251 397 218 364 c 0,35,36
 185 332 185 332 183 293 c 1,37,-1
 423 293 l 1,29,30
452 628 m 0,38,39
 452 606 452 606 434 589 c 128,-1,40
 416 572 416 572 395 572 c 0,41,42
 385 572 385 572 375 577 c 128,-1,43
 365 582 365 582 357.5 590 c 128,-1,44
 350 598 350 598 345 608 c 128,-1,45
 340 618 340 618 340 628 c 0,46,47
 340 637 340 637 345 647 c 128,-1,48
 350 657 350 657 358 665.5 c 128,-1,49
 366 674 366 674 376 679 c 128,-1,50
 386 684 386 684 395 684 c 0,51,52
 405 684 405 684 415 679 c 128,-1,53
 425 674 425 674 433.5 666 c 128,-1,54
 442 658 442 658 447 648 c 128,-1,55
 452 638 452 638 452 628 c 0,38,39
263 627 m 0,56,57
 263 605 263 605 246 588.5 c 128,-1,58
 229 572 229 572 207 572 c 0,59,60
 198 572 198 572 188 577 c 128,-1,61
 178 582 178 582 170 590 c 128,-1,62
 162 598 162 598 157 608 c 128,-1,63
 152 618 152 618 152 627 c 256,64,65
 152 636 152 636 157 646 c 128,-1,66
 162 656 162 656 170 664.5 c 128,-1,67
 178 673 178 673 188 678 c 128,-1,68
 198 683 198 683 207 683 c 0,69,70
 228 683 228 683 245.5 665.5 c 128,-1,71
 263 648 263 648 263 627 c 0,56,57
EndSplineSet
Validated: 1
EndChar

StartChar: igrave
Encoding: 236 236 175
Width: 600
GlyphClass: 2
Flags: W
LayerCount: 2
Fore
SplineSet
420 572 m 0,0,1
 420 556 420 556 405.5 541 c 128,-1,2
 391 526 391 526 374 526 c 0,3,4
 353 526 353 526 215 675 c 0,5,6
 204 688 204 688 204 699 c 0,7,8
 204 715 204 715 216.5 727.5 c 128,-1,9
 229 740 229 740 244 740 c 0,10,11
 260 740 260 740 340 663 c 128,-1,12
 420 586 420 586 420 572 c 0,0,1
392 14 m 2,13,14
 392 -9 392 -9 350 -9 c 0,15,16
 306 -9 306 -9 306 16 c 2,17,-1
 306 384 l 1,18,19
 258 383 258 383 232.5 382.5 c 128,-1,20
 207 382 207 382 203 382 c 0,21,22
 194 382 194 382 186 402 c 0,23,24
 180 417 180 417 180 430 c 0,25,26
 180 468 180 468 212 468 c 2,27,-1
 331 468 l 2,28,29
 392 468 392 468 392 430 c 2,30,-1
 392 14 l 2,13,14
EndSplineSet
Validated: 1
EndChar

StartChar: iacute
Encoding: 237 237 176
Width: 600
GlyphClass: 2
Flags: W
LayerCount: 2
Fore
SplineSet
201 572 m 0,0,1
 201 586 201 586 281 663 c 128,-1,2
 361 740 361 740 377 740 c 0,3,4
 394 740 394 740 408 725 c 128,-1,5
 422 710 422 710 422 693 c 0,6,7
 422 680 422 680 412 670 c 0,8,9
 398 655 398 655 377 635.5 c 128,-1,10
 356 616 356 616 330 591 c 0,11,12
 260 526 260 526 247 526 c 0,13,14
 230 526 230 526 215.5 541 c 128,-1,15
 201 556 201 556 201 572 c 0,0,1
389 14 m 2,16,17
 389 -9 389 -9 347 -9 c 0,18,19
 303 -9 303 -9 303 16 c 2,20,-1
 303 384 l 1,21,22
 255 383 255 383 229.5 382.5 c 128,-1,23
 204 382 204 382 200 382 c 0,24,25
 191 382 191 382 183 402 c 0,26,27
 177 417 177 417 177 430 c 0,28,29
 177 468 177 468 209 468 c 2,30,-1
 328 468 l 2,31,32
 389 468 389 468 389 430 c 2,33,-1
 389 14 l 2,16,17
EndSplineSet
Validated: 1
EndChar

StartChar: icircumflex
Encoding: 238 238 177
Width: 600
GlyphClass: 2
Flags: W
LayerCount: 2
Fore
SplineSet
449 587 m 0,0,1
 449 570 449 570 434.5 554 c 128,-1,2
 420 538 420 538 403 538 c 0,3,4
 387 538 387 538 350 578 c 0,5,6
 338 591 338 591 326 604 c 128,-1,7
 314 617 314 617 302 631 c 1,8,-1
 254 577 l 2,9,10
 216 538 216 538 196 538 c 0,11,12
 178 538 178 538 164 552 c 128,-1,13
 150 566 150 566 150 584 c 0,14,15
 150 599 150 599 218 676 c 0,16,17
 287 754 287 754 303 754 c 0,18,19
 311 754 311 754 380 677 c 128,-1,20
 449 600 449 600 449 587 c 0,0,1
379 14 m 2,21,22
 379 -9 379 -9 337 -9 c 0,23,24
 293 -9 293 -9 293 16 c 2,25,-1
 293 384 l 1,26,27
 245 383 245 383 219.5 382.5 c 128,-1,28
 194 382 194 382 190 382 c 0,29,30
 181 382 181 382 173 402 c 0,31,32
 167 417 167 417 167 430 c 0,33,34
 167 468 167 468 199 468 c 2,35,-1
 318 468 l 2,36,37
 379 468 379 468 379 430 c 2,38,-1
 379 14 l 2,21,22
EndSplineSet
Validated: 1
EndChar

StartChar: idieresis
Encoding: 239 239 178
Width: 600
GlyphClass: 2
Flags: W
LayerCount: 2
Fore
SplineSet
450 628 m 0,0,1
 450 606 450 606 432 589 c 128,-1,2
 414 572 414 572 393 572 c 0,3,4
 383 572 383 572 373 577 c 128,-1,5
 363 582 363 582 355.5 590 c 128,-1,6
 348 598 348 598 343 608 c 128,-1,7
 338 618 338 618 338 628 c 0,8,9
 338 637 338 637 343 647 c 128,-1,10
 348 657 348 657 356 665.5 c 128,-1,11
 364 674 364 674 374 679 c 128,-1,12
 384 684 384 684 393 684 c 0,13,14
 403 684 403 684 413 679 c 128,-1,15
 423 674 423 674 431.5 666 c 128,-1,16
 440 658 440 658 445 648 c 128,-1,17
 450 638 450 638 450 628 c 0,0,1
261 627 m 0,18,19
 261 605 261 605 244 588.5 c 128,-1,20
 227 572 227 572 205 572 c 0,21,22
 196 572 196 572 186 577 c 128,-1,23
 176 582 176 582 168 590 c 128,-1,24
 160 598 160 598 155 608 c 128,-1,25
 150 618 150 618 150 627 c 256,26,27
 150 636 150 636 155 646 c 128,-1,28
 160 656 160 656 168 664.5 c 128,-1,29
 176 673 176 673 186 678 c 128,-1,30
 196 683 196 683 205 683 c 0,31,32
 226 683 226 683 243.5 665.5 c 128,-1,33
 261 648 261 648 261 627 c 0,18,19
376 14 m 2,34,35
 376 -9 376 -9 334 -9 c 0,36,37
 290 -9 290 -9 290 16 c 2,38,-1
 290 384 l 1,39,40
 242 383 242 383 216.5 382.5 c 128,-1,41
 191 382 191 382 187 382 c 0,42,43
 178 382 178 382 170 402 c 0,44,45
 164 417 164 417 164 430 c 0,46,47
 164 468 164 468 196 468 c 2,48,-1
 315 468 l 2,49,50
 376 468 376 468 376 430 c 2,51,-1
 376 14 l 2,34,35
EndSplineSet
Validated: 1
EndChar

StartChar: eth
Encoding: 240 240 179
Width: 600
GlyphClass: 2
Flags: W
LayerCount: 2
Fore
SplineSet
229 583 m 1,0,1
 229 583 229 583 182 616 c 0,2,3
 169 625 169 625 160 637.5 c 128,-1,4
 151 650 151 650 151 657 c 0,5,6
 151 663 151 663 156 671 c 0,7,8
 163 690 163 690 182 696 c 0,9,10
 189 700 189 700 199 700 c 0,11,12
 230 699 230 699 305 621 c 1,13,14
 322 629 322 629 342 636.5 c 128,-1,15
 362 644 362 644 385 652 c 0,16,17
 418 665 418 665 432 665 c 0,18,19
 439 665 439 665 454 660 c 0,20,21
 472 654 472 654 480 637 c 0,22,23
 485 629 485 629 483 621 c 0,24,25
 485 613 485 613 480 605 c 0,26,27
 475 599 475 599 466 594 c 2,28,-1
 432 578 l 1,29,-1
 367 555 l 1,30,31
 507 385 507 385 507 255 c 0,32,33
 507 195 507 195 501 156 c 0,34,35
 495 115 495 115 469 78 c 0,36,37
 407 -8 407 -8 280 -8 c 0,38,39
 201 -8 201 -8 142 45 c 0,40,41
 93 91 93 91 93 178 c 0,42,43
 93 267 93 267 166 336 c 0,44,45
 240 406 240 406 350 425 c 1,46,47
 331 461 331 461 291 516 c 1,48,-1
 229 485 l 2,49,50
 182 461 182 461 167 461 c 0,51,52
 149 461 149 461 134 473 c 0,53,54
 119 489 119 489 119 503 c 0,55,56
 119 514 119 514 127 522 c 1,57,58
 131 532 131 532 142 541 c 0,59,60
 149 542 149 542 172 553 c 0,61,62
 194 563 194 563 229 583 c 1,0,1
182 167 m 0,63,64
 182 152 182 152 191 132 c 128,-1,65
 200 112 200 112 210 100 c 0,66,67
 228 80 228 80 253 73 c 0,68,69
 264 69 264 69 283 69 c 0,70,71
 325 69 325 69 350 84 c 128,-1,72
 375 99 375 99 393 132 c 0,73,74
 400 146 400 146 405 158 c 128,-1,75
 410 170 410 170 413 183.5 c 128,-1,76
 416 197 416 197 417 213.5 c 128,-1,77
 418 230 418 230 418 251 c 0,78,79
 418 266 418 266 411 289.5 c 128,-1,80
 404 313 404 313 387 353 c 1,81,82
 374 348 374 348 352.5 342.5 c 128,-1,83
 331 337 331 337 302 331 c 1,84,85
 245 309 245 309 213.5 267 c 128,-1,86
 182 225 182 225 182 167 c 0,63,64
EndSplineSet
Validated: 1
EndChar

StartChar: ntilde
Encoding: 241 241 180
Width: 600
GlyphClass: 2
Flags: W
LayerCount: 2
Fore
SplineSet
461 -8 m 0,0,1
 416 -8 416 -8 416 24 c 2,2,-1
 416 309 l 2,3,4
 416 356 416 356 398 376 c 0,5,6
 379 398 379 398 333 398 c 0,7,8
 282 398 282 398 233 358 c 0,9,10
 182 317 182 317 182 267 c 2,11,-1
 183 25 l 2,12,13
 183 -10 183 -10 140 -10 c 0,14,15
 124 -10 124 -10 109.5 1.5 c 128,-1,16
 95 13 95 13 95 29 c 2,17,-1
 95 440 l 2,18,19
 95 457 95 457 113 471 c 0,20,21
 129 483 129 483 147 483 c 0,22,23
 169 483 169 483 179 461 c 0,24,25
 182 451 182 451 185 441 c 128,-1,26
 188 431 188 431 192 421 c 1,27,-1
 192 422 l 1,28,29
 205 440 205 440 255 461 c 0,30,31
 304 481 304 481 327 481 c 0,32,33
 422 481 422 481 466 433 c 0,34,35
 505 389 505 389 505 291 c 2,36,-1
 505 24 l 2,37,38
 505 -8 505 -8 461 -8 c 0,0,1
488 668 m 0,39,40
 488 621 488 621 452 594 c 0,41,42
 420 569 420 569 372 569 c 0,43,44
 341 569 341 569 288 594 c 0,45,46
 233 620 233 620 204 620 c 0,47,48
 188 620 188 620 173 599 c 0,49,50
 159 578 159 578 154 578 c 0,51,52
 142 578 142 578 131 595 c 0,53,54
 123 611 123 611 123 624 c 0,55,56
 123 652 123 652 153 676 c 0,57,58
 182 699 182 699 210 699 c 0,59,60
 240 699 240 699 287 671 c 0,61,62
 336 643 336 643 365 643 c 0,63,64
 396 643 396 643 416 661 c 0,65,66
 424 667 424 667 439 693 c 0,67,68
 450 710 450 710 463 710 c 0,69,70
 488 710 488 710 488 668 c 0,39,40
EndSplineSet
Validated: 1
EndChar

StartChar: ograve
Encoding: 242 242 181
Width: 600
GlyphClass: 2
Flags: W
LayerCount: 2
Fore
SplineSet
528 234 m 0,0,1
 528 121 528 121 475 56 c 0,2,3
 417 -11 417 -11 305 -11 c 256,4,5
 193 -11 193 -11 131 57 c 0,6,7
 72 124 72 124 72 237 c 0,8,9
 72 347 72 347 128 414 c 0,10,11
 188 484 188 484 297 484 c 0,12,13
 410 484 410 484 472 415 c 0,14,15
 528 350 528 350 528 234 c 0,0,1
436 233 m 0,16,17
 436 299 436 299 400 344 c 0,18,19
 361 393 361 393 296 393 c 0,20,21
 233 393 233 393 196 345 c 0,22,23
 162 302 162 302 162 237 c 0,24,25
 162 169 162 169 204 124 c 0,26,27
 248 80 248 80 314 80 c 0,28,29
 372 80 372 80 406 129 c 0,30,31
 436 172 436 172 436 233 c 0,16,17
407 572 m 0,32,33
 407 556 407 556 392.5 541 c 128,-1,34
 378 526 378 526 361 526 c 0,35,36
 340 526 340 526 202 675 c 0,37,38
 191 688 191 688 191 699 c 0,39,40
 191 715 191 715 203.5 727.5 c 128,-1,41
 216 740 216 740 231 740 c 0,42,43
 247 740 247 740 327 663 c 128,-1,44
 407 586 407 586 407 572 c 0,32,33
EndSplineSet
Validated: 1
EndChar

StartChar: oacute
Encoding: 243 243 182
Width: 600
GlyphClass: 2
Flags: W
LayerCount: 2
Fore
SplineSet
528 234 m 0,0,1
 528 121 528 121 475 56 c 0,2,3
 417 -11 417 -11 305 -11 c 256,4,5
 193 -11 193 -11 131 57 c 0,6,7
 72 124 72 124 72 237 c 0,8,9
 72 347 72 347 128 414 c 0,10,11
 188 484 188 484 297 484 c 0,12,13
 410 484 410 484 472 415 c 0,14,15
 528 350 528 350 528 234 c 0,0,1
436 233 m 0,16,17
 436 299 436 299 400 344 c 0,18,19
 361 393 361 393 296 393 c 0,20,21
 233 393 233 393 196 345 c 0,22,23
 162 302 162 302 162 237 c 0,24,25
 162 169 162 169 204 124 c 0,26,27
 248 80 248 80 314 80 c 0,28,29
 372 80 372 80 406 129 c 0,30,31
 436 172 436 172 436 233 c 0,16,17
191 572 m 0,32,33
 191 586 191 586 271 663 c 128,-1,34
 351 740 351 740 367 740 c 0,35,36
 384 740 384 740 398 725 c 128,-1,37
 412 710 412 710 412 693 c 0,38,39
 412 680 412 680 402 670 c 0,40,41
 388 655 388 655 367 635.5 c 128,-1,42
 346 616 346 616 320 591 c 0,43,44
 250 526 250 526 237 526 c 0,45,46
 220 526 220 526 205.5 541 c 128,-1,47
 191 556 191 556 191 572 c 0,32,33
EndSplineSet
Validated: 1
EndChar

StartChar: ocircumflex
Encoding: 244 244 183
Width: 600
GlyphClass: 2
Flags: W
LayerCount: 2
Fore
SplineSet
528 234 m 0,0,1
 528 121 528 121 475 56 c 0,2,3
 417 -11 417 -11 305 -11 c 256,4,5
 193 -11 193 -11 131 57 c 0,6,7
 72 124 72 124 72 237 c 0,8,9
 72 347 72 347 128 414 c 0,10,11
 188 484 188 484 297 484 c 0,12,13
 410 484 410 484 472 415 c 0,14,15
 528 350 528 350 528 234 c 0,0,1
436 233 m 0,16,17
 436 299 436 299 400 344 c 0,18,19
 361 393 361 393 296 393 c 0,20,21
 233 393 233 393 196 345 c 0,22,23
 162 302 162 302 162 237 c 0,24,25
 162 169 162 169 204 124 c 0,26,27
 248 80 248 80 314 80 c 0,28,29
 372 80 372 80 406 129 c 0,30,31
 436 172 436 172 436 233 c 0,16,17
449 587 m 0,32,33
 449 570 449 570 434.5 554 c 128,-1,34
 420 538 420 538 403 538 c 0,35,36
 387 538 387 538 350 578 c 0,37,38
 338 591 338 591 326 604 c 128,-1,39
 314 617 314 617 302 631 c 1,40,-1
 254 577 l 2,41,42
 216 538 216 538 196 538 c 0,43,44
 178 538 178 538 164 552 c 128,-1,45
 150 566 150 566 150 584 c 0,46,47
 150 599 150 599 218 676 c 0,48,49
 287 754 287 754 303 754 c 0,50,51
 311 754 311 754 380 677 c 128,-1,52
 449 600 449 600 449 587 c 0,32,33
EndSplineSet
Validated: 1
EndChar

StartChar: otilde
Encoding: 245 245 184
Width: 600
GlyphClass: 2
Flags: W
LayerCount: 2
Fore
SplineSet
528 234 m 0,0,1
 528 121 528 121 475 56 c 0,2,3
 417 -11 417 -11 305 -11 c 256,4,5
 193 -11 193 -11 131 57 c 0,6,7
 72 124 72 124 72 237 c 0,8,9
 72 347 72 347 128 414 c 0,10,11
 188 484 188 484 297 484 c 0,12,13
 410 484 410 484 472 415 c 0,14,15
 528 350 528 350 528 234 c 0,0,1
436 233 m 0,16,17
 436 299 436 299 400 344 c 0,18,19
 361 393 361 393 296 393 c 0,20,21
 233 393 233 393 196 345 c 0,22,23
 162 302 162 302 162 237 c 0,24,25
 162 169 162 169 204 124 c 0,26,27
 248 80 248 80 314 80 c 0,28,29
 372 80 372 80 406 129 c 0,30,31
 436 172 436 172 436 233 c 0,16,17
490 668 m 0,32,33
 490 621 490 621 454 594 c 0,34,35
 422 569 422 569 374 569 c 0,36,37
 343 569 343 569 290 594 c 0,38,39
 235 620 235 620 206 620 c 0,40,41
 190 620 190 620 175 599 c 0,42,43
 161 578 161 578 156 578 c 0,44,45
 144 578 144 578 133 595 c 0,46,47
 125 611 125 611 125 624 c 0,48,49
 125 652 125 652 155 676 c 0,50,51
 184 699 184 699 212 699 c 0,52,53
 242 699 242 699 289 671 c 0,54,55
 338 643 338 643 367 643 c 0,56,57
 398 643 398 643 418 661 c 0,58,59
 426 667 426 667 441 693 c 0,60,61
 452 710 452 710 465 710 c 0,62,63
 490 710 490 710 490 668 c 0,32,33
EndSplineSet
Validated: 1
EndChar

StartChar: odieresis
Encoding: 246 246 185
Width: 600
GlyphClass: 2
Flags: W
LayerCount: 2
Fore
SplineSet
528 234 m 0,0,1
 528 121 528 121 475 56 c 0,2,3
 417 -11 417 -11 305 -11 c 256,4,5
 193 -11 193 -11 131 57 c 0,6,7
 72 124 72 124 72 237 c 0,8,9
 72 347 72 347 128 414 c 0,10,11
 188 484 188 484 297 484 c 0,12,13
 410 484 410 484 472 415 c 0,14,15
 528 350 528 350 528 234 c 0,0,1
436 233 m 0,16,17
 436 299 436 299 400 344 c 0,18,19
 361 393 361 393 296 393 c 0,20,21
 233 393 233 393 196 345 c 0,22,23
 162 302 162 302 162 237 c 0,24,25
 162 169 162 169 204 124 c 0,26,27
 248 80 248 80 314 80 c 0,28,29
 372 80 372 80 406 129 c 0,30,31
 436 172 436 172 436 233 c 0,16,17
453 628 m 0,32,33
 453 606 453 606 435 589 c 128,-1,34
 417 572 417 572 396 572 c 0,35,36
 386 572 386 572 376 577 c 128,-1,37
 366 582 366 582 358.5 590 c 128,-1,38
 351 598 351 598 346 608 c 128,-1,39
 341 618 341 618 341 628 c 0,40,41
 341 637 341 637 346 647 c 128,-1,42
 351 657 351 657 359 665.5 c 128,-1,43
 367 674 367 674 377 679 c 128,-1,44
 387 684 387 684 396 684 c 0,45,46
 406 684 406 684 416 679 c 128,-1,47
 426 674 426 674 434.5 666 c 128,-1,48
 443 658 443 658 448 648 c 128,-1,49
 453 638 453 638 453 628 c 0,32,33
264 627 m 0,50,51
 264 605 264 605 247 588.5 c 128,-1,52
 230 572 230 572 208 572 c 0,53,54
 199 572 199 572 189 577 c 128,-1,55
 179 582 179 582 171 590 c 128,-1,56
 163 598 163 598 158 608 c 128,-1,57
 153 618 153 618 153 627 c 256,58,59
 153 636 153 636 158 646 c 128,-1,60
 163 656 163 656 171 664.5 c 128,-1,61
 179 673 179 673 189 678 c 128,-1,62
 199 683 199 683 208 683 c 0,63,64
 229 683 229 683 246.5 665.5 c 128,-1,65
 264 648 264 648 264 627 c 0,50,51
EndSplineSet
Validated: 1
EndChar

StartChar: divide
Encoding: 247 247 186
Width: 600
GlyphClass: 2
Flags: W
LayerCount: 2
Fore
SplineSet
377 514 m 0,0,1
 376 480 376 480 355 456 c 128,-1,2
 334 432 334 432 301 432 c 0,3,4
 267 432 267 432 248 456 c 0,5,6
 229 479 229 479 231 511 c 0,7,8
 229 528 229 528 235 540 c 0,9,10
 240 551 240 551 251 564 c 0,11,12
 260 575 260 575 273 581 c 0,13,14
 285 587 285 587 300 587 c 0,15,16
 314 587 314 587 328 581 c 0,17,18
 344 574 344 574 353 565 c 0,19,20
 363 555 363 555 369 541 c 0,21,22
 376 526 376 526 377 514 c 0,0,1
377 117 m 0,23,24
 377 88 377 88 357 67 c 0,25,26
 336 45 336 45 305 45 c 1,27,-1
 306 45 l 1,28,-1
 305 45 l 2,29,30
 231 45 231 45 231 119 c 0,31,32
 231 149 231 149 253 171 c 0,33,34
 276 196 276 196 302 196 c 0,35,36
 313 196 313 196 329 189 c 0,37,38
 342 183 342 183 354 171 c 0,39,40
 365 160 365 160 371 147 c 256,41,42
 377 134 377 134 377 117 c 0,23,24
502 313 m 0,43,44
 502 275 502 275 461 275 c 2,45,-1
 143 275 l 2,46,47
 100 275 100 275 100 314 c 0,48,49
 100 327 100 327 107 340 c 0,50,51
 115 354 115 354 131 354 c 2,52,-1
 463 354 l 2,53,54
 477 354 477 354 490 341 c 0,55,56
 502 329 502 329 502 313 c 0,43,44
EndSplineSet
Validated: 37
EndChar

